<svg xmlns:sketch="http://www.bohemiancoding.com/sketch/ns" xmlns="http://www.w3.org/2000/svg" xmlns:xlink="http://www.w3.org/1999/xlink" version="1.1" x="0px" y="0px" viewBox="0 0 792 612" enable-background="new 0 0 792 612" xml:space="preserve"><g><g><rect x="259.4" y="267.2" transform="matrix(0.7285 0.685 -0.685 0.7285 299.319 -200.9339)" width="287.6" height="20"></rect></g><g><rect x="393.2" y="133.4" transform="matrix(0.7286 0.685 -0.685 0.7286 299.3044 -200.9292)" width="20" height="287.6"></rect></g></g><title>chart_pie_2</title><description>Created with Sketch (http://www.bohemiancoding.com/sketch)</description><g><path d="M403.2,65.2c-116.9,0-212,95.1-212,212c0,56.6,22,109.9,62.1,149.9s93.3,62.1,149.9,62.1c56.6,0,109.9-22,149.9-62.1   s62.1-93.3,62.1-149.9C615.2,160.3,520.1,65.2,403.2,65.2z M403.2,471.2c-107,0-194-87-194-194c0-107,87-194,194-194   s194,87,194,194C597.2,384.2,510.1,471.2,403.2,471.2z"></path></g></svg>