<?xml version="1.0" standalone="no"?>
<!DOCTYPE svg PUBLIC "-//W3C//DTD SVG 1.1//EN" "http://www.w3.org/Graphics/SVG/1.1/DTD/svg11.dtd" >
<svg xmlns="http://www.w3.org/2000/svg">
<metadata>
Created by FontPrep 20130207 at Wed Aug 28 18:15:44 2013
 By roycifer
Copyright (c) 2010 by John Baskerville &#38; Frantisek Storm. All rights reserved.
</metadata>
<defs>
<font id="61d5a1c9220932afc67be1806057da27" >
  <font-face 
    font-family="Baskerville120ProMedium"
    font-weight="500"
    font-stretch="normal"
    units-per-em="2048"
    panose-1="2 0 6 3 0 0 0 0 0 0"
    ascent="1430"
    descent="-618"
    x-height="887"
    cap-height="1462"
    bbox="-242 -684 2417 1933"
    underline-thickness="102"
    underline-position="-102"
    unicode-range="U+0020-017F"
  />
<missing-glyph horiz-adv-x="500" 
 />
    <glyph glyph-name=".notdef" horiz-adv-x="500" 
 />
    <glyph glyph-name=".null" horiz-adv-x="0" 
 />
    <glyph glyph-name="nonmarkingreturn" horiz-adv-x="682" 
 />
    <glyph glyph-name="space" unicode=" " horiz-adv-x="495" 
 />
    <glyph glyph-name="exclam" unicode="!" horiz-adv-x="702" 
d="M361 227q51 1 87 -35t35 -84q0 -48 -37 -84t-86 -36q-50 0 -84 34t-34 86q0 51 34 85t85 34zM406 1446q98 0 98 -98q0 -56 -47 -500t-47 -451q0 -35 -42 -35t-42 23q0 57 -54 495t-55 480t45 64t144 22z" />
    <glyph glyph-name="quotedbl" unicode="&#x22;" horiz-adv-x="763" 
d="M451 1428q-1 42 33 72q34 32 80 32t79 -33t33 -74t-4 -61l-84 -342q-3 -21 -34 -21t-34 21l-67 354q-2 10 -2 52zM115 1428q0 42 35 71q32 33 78 33t79 -33t33 -74t-4 -61l-84 -342q-3 -21 -34 -21t-34 21l-67 354q-2 10 -2 52z" />
    <glyph glyph-name="numbersign" unicode="#" horiz-adv-x="1363" 
d="M989 -82h-182v375h-242v-375h-182v375h-293v129h293v276h-293v129h293v361h182v-361h242v361h182v-361h279v-129h-279v-276h279v-129h-279v-375zM807 422v276h-242v-276h242z" />
    <glyph glyph-name="dollar" unicode="$" horiz-adv-x="1169" 
d="M328 1118q0 -160 202 -227v436q-86 -9 -144 -67t-58 -142zM881 316q0 100 -60 162t-178 106v-506q110 9 172 74q66 63 66 164zM530 -293v289q-192 12 -304 94t-113 184q0 47 28 78q30 27 63 27t66 -23q26 -23 35 -65q38 -186 225 -213v530q-182 62 -278 154t-96 258
t106 262q106 103 268 115v282q0 23 56 23t57 -23v-280q160 -11 252 -81t92 -161q0 -40 -27 -62t-59 -22q-74 0 -92 76q-35 153 -166 180v-465q213 -77 317 -176t103 -277q0 -179 -120 -285t-300 -124v-295q-1 -22 -57 -22t-56 22z" />
    <glyph glyph-name="percent" unicode="%" horiz-adv-x="1802" 
d="M1309 63q90 0 170 89q82 85 82 237q1 107 -53 175t-140 69q-86 0 -164 -84q-76 -85 -76 -248q0 -111 48 -174q43 -64 133 -64zM1321 725q139 0 233 -96q94 -95 95 -249t-113 -282t-275 -129q-161 0 -255 92q-94 91 -93 247q-1 156 115 286t293 131zM369 1090
q0 -114 45 -176q46 -62 134 -62t171 86q82 88 82 240q-1 108 -53 176t-140 67q-88 0 -164 -84q-75 -84 -75 -247zM1071 1268q-128 0 -217 57q35 -72 35 -149q0 -162 -115 -289q-111 -129 -289 -129q-144 0 -239 92q-92 92 -92 248t115 285q115 130 290 130q130 0 207 -71
q107 -96 301 -96q119 0 221 39t160 112q8 12 34 12q26 1 64 -15t39 -36l-47 -59l-1210 -1436q-10 -10 -39 -10t-66 14t-37 31q0 7 7 14l1124 1331q-118 -75 -246 -75z" />
    <glyph glyph-name="ampersand" unicode="&#x26;" horiz-adv-x="1626" 
d="M776 1423q-63 0 -107 -57t-44 -188t84 -310q200 117 200 375q0 86 -35 133t-98 47zM326 377q0 -157 84 -238q79 -82 200 -82q156 0 264 129q-219 239 -350 529q-198 -122 -198 -338zM778 1501q116 0 186 -69t70 -201q0 -259 -301 -418q111 -235 262 -422q136 319 195 408
q95 139 223 139q77 0 117 -41t39 -97t-29 -88q-28 -34 -76 -34t-72 51t-61 51t-74 -30q-73 -85 -223 -408q200 -244 322 -244q52 0 91 22t57 48t24 25q8 -1 18 -11t10 -16t-8 -31q-93 -164 -297 -164q-156 0 -333 174q-136 -174 -366 -174t-351 95q-119 98 -119 266
q0 263 418 438q-80 195 -80 359t104 268t254 104z" />
    <glyph glyph-name="quotesingle" unicode="'" horiz-adv-x="442" 
d="M115 1428q0 42 35 71q32 33 78 33t79 -33t33 -74t-4 -61l-84 -342q-3 -21 -34 -21t-34 21l-67 354q-2 10 -2 52z" />
    <glyph glyph-name="parenleft" unicode="(" horiz-adv-x="868" 
d="M160 460q0 415 174 720q176 302 495 415q17 1 27 -13t10 -28t-10 -18q-231 -108 -351 -402t-120 -678q1 -384 121 -678t346 -405q14 -3 14 -17t-14 -28q-15 -12 -29 -12q-313 116 -488 422t-175 722z" />
    <glyph glyph-name="parenright" unicode=")" horiz-adv-x="868" 
d="M702 450q0 -416 -174 -718t-493 -416q-15 0 -27 12q-10 14 -10 28t10 17q227 108 349 401q122 294 122 680q-1 386 -121 680t-348 402q-12 3 -12 17q0 15 12 27t29 15q313 -117 488 -423t175 -722z" />
    <glyph glyph-name="asterisk" unicode="*" horiz-adv-x="997" 
d="M492 1184q0 22 -38 112t-38 140t26 80q31 28 70 28t70 -28q26 -28 26 -78t-36 -140t-37 -114q0 -30 28 -21q10 3 96 70q125 115 203 79q36 -16 48 -57t-6 -77q-20 -36 -62 -50t-142 -8q-100 8 -130 2q-31 -6 -5 -37q7 -9 93 -65t114 -92q30 -46 26 -86t-40 -60
q-32 -26 -72 -18t-68 46t-52 137q-24 98 -39 117q-14 18 -30 -2q-15 -20 -39 -114t-52 -136q-28 -40 -69 -48q-42 -8 -73 18q-36 22 -39 62q-6 40 22 78t116 97q88 58 96 68q21 25 -4 31t-128 0t-147 8t-62 50t-6 77t48 57t80 2q46 -14 121 -76t103 -75t28 23z" />
    <glyph glyph-name="plus" unicode="+" 
d="M950 541h-334v-336h-151v336h-340v145h340v340h151v-340h334v-145z" />
    <glyph glyph-name="comma" unicode="," horiz-adv-x="593" 
d="M158 -313q0 18 14 24q90 29 142 101t51 151q0 80 -35 80q-17 -1 -50 -19t-51 -18q-49 0 -73 35q-29 33 -29 89t41 95q38 41 120 41t136 -70t55 -176q0 -106 -33 -180q-36 -71 -84 -110q-102 -78 -168 -78q-36 0 -36 35z" />
    <glyph glyph-name="hyphen" unicode="-" horiz-adv-x="604" 
d="M90 528q0 86 19 86l399 29q16 1 16 -85t-16 -89l-399 -27q-19 0 -19 86z" />
    <glyph glyph-name="period" unicode="." horiz-adv-x="587" 
d="M293 -18q-59 0 -101 40t-42 100t42 102t101 42t101 -42t42 -102t-42 -100t-101 -40z" />
    <glyph glyph-name="slash" unicode="/" horiz-adv-x="1069" 
d="M996 1491q84 0 79 -27l-913 -1773q-6 -13 -46 -13t-82 10q-40 10 -40 25l905 1755q13 23 97 23z" />
    <glyph glyph-name="zero" unicode="0" 
d="M537 29q123 0 172 178q53 170 53 516q0 345 -51 527t-175 182t-174 -182t-49 -519q0 -702 224 -702zM543 1497q229 0 355 -214q126 -215 126 -551t-130 -552t-360 -215q-230 0 -358 215q-125 218 -125 548t129 550q133 219 363 219z" />
    <glyph glyph-name="one" unicode="1" 
d="M227 26q0 28 13 29q137 3 177 29t40 109q0 235 2 460v488q0 69 -45 69q-32 0 -133 -43t-119 -49q-10 0 -18 14t-9 33q0 19 15 25l36 18q183 80 455 279q8 8 33 8t37 -8q10 -13 10 -37l-12 -651q-7 -333 -7 -606q0 -88 35 -115q36 -25 178 -25q11 -1 11 -29t-17 -28
q-77 0 -161 4l-170 2l-334 -4q-17 0 -17 28z" />
    <glyph glyph-name="two" unicode="2" 
d="M328 1180q0 -191 131 -222q-15 -45 -53 -73q-47 -29 -89 -29q-99 0 -153 70q-53 74 -53 178q0 155 114 272q113 121 325 121t331 -113q118 -115 118 -301q0 -233 -181 -472t-439 -410q322 6 440 14t139 104q4 17 30 17t26 -12v-2q-35 -123 -51 -281q-3 -41 -37 -41h-35
l-772 -4q-37 0 -46 9t-11 30t22 37q302 196 483 459t181 556q0 338 -218 338q-91 0 -147 -77q-55 -79 -55 -168z" />
    <glyph glyph-name="three" unicode="3" 
d="M981 392q0 -176 -143 -301.5t-400 -125.5q-159 0 -254 68q-94 64 -94 162q0 50 33 88q35 32 78 32t70 -27q27 -26 30 -88t43 -114q42 -51 121 -51q123 0 186 100q68 100 68 268q0 318 -236 318q-56 0 -110 -57q-51 -60 -83 -60t-50 19t-17 43q0 49 64 73q191 78 294 184
t103 277q0 107 -44 165t-132 58t-140 -65t-51 -152q0 -87 54 -153q-39 -25 -97 -25t-98 49q-43 46 -43 127q-1 114 103 204t295 89q191 0 292 -84q103 -81 103 -211t-108 -232q-108 -103 -292 -175q216 0 334 -115q121 -112 121 -288z" />
    <glyph glyph-name="four" unicode="4" 
d="M561 573v635q-57 -84 -207 -336t-172 -299h379zM793 1460q0 -227 -11 -887h246q19 -1 19 -73t-23 -72h-240q-4 -54 -4 -156v-131q0 -43 27 -67q32 -19 115 -19q10 -1 10 -31t-14 -30q-176 8 -267 8l-237 -4q-13 0 -13 28t13 27q87 3 118 31q29 29 29 86v258h-506
q-15 0 -26 10t-11 18q0 9 17 40l18 28q1 2 132 218t272 446t172 285q12 24 61 24q103 0 103 -37z" />
    <glyph glyph-name="five" unicode="5" 
d="M172 330q96 0 96 -118q0 -65 39 -120q44 -53 123 -53q118 0 188 109t70 323q0 397 -250 397q-158 0 -188 -139q-12 -61 -57 -61q-19 0 -35 12t-17 27q0 25 16.5 74t24.5 100q41 205 41 563q0 26 25 26q72 0 186 -12l236 -6q136 0 145 72q3 12 28 12t25 -18
q0 -168 -50 -226t-175 -59q-187 0 -338 22q-3 -151 -31 -356q98 49 218 49q220 0 342 -136t122 -356t-149 -354q-146 -137 -393 -137q-156 0 -250 71t-94 175q0 57 28 88q31 31 74 31z" />
    <glyph glyph-name="six" unicode="6" 
d="M549 33q194 0 194 362q0 226 -50 329q-49 103 -151 103q-102 -1 -160 -91t-58 -220q0 -483 225 -483zM596 920q189 0 297 -138q111 -134 111 -332t-132 -339q-128 -146 -342 -146q-214 -1 -336 177t-122 476q0 389 169 634t429 245q156 0 242 -72t85 -165q0 -55 -31 -83
t-75.5 -28t-70.5 28t-29 76q-9 174 -144 174q-282 0 -328 -673q88 166 277 166z" />
    <glyph glyph-name="seven" unicode="7" 
d="M971 1458q22 0 22 -18l-2 -4v-6q-135 -285 -299 -750t-164 -612q0 -52 -34 -78t-86 -25q-52 0 -89 27q-34 28 -34 76t12 98t68 188t89 200q32 62 80 154t93 173q45 90 65 125l123 233q-262 -16 -530 -16q-73 0 -103 -25t-47 -84q-5 -12 -19 -12t-23 8t-9 14q14 48 34 148
t32 146q12 48 22 48t42 -8t93 -8h152l176 4h162l125 4h49z" />
    <glyph glyph-name="eight" unicode="8" 
d="M532 811q99 1 145 73t46 238t-46 237q-45 71 -143 71t-144 -71t-46 -237t44 -238t144 -73zM326 379q0 -187 52 -267t160 -79q108 0 154 82q49 79 49 262q0 371 -211 371q-204 0 -204 -369zM1004 383q0 -176 -138 -297t-336 -121q-200 0 -329 117t-129 301q0 143 92 252
q86 108 235 147q-137 28 -219 120t-82 235t127 252q129 108 314 108q185 -1 311 -109t127 -262q1 -122 -83 -214t-224 -128q150 -34 242 -146t92 -255z" />
    <glyph glyph-name="nine" unicode="9" 
d="M522 649q111 0 165 87t54 235q0 459 -211 459q-110 0 -154 -90t-44 -283q0 -408 190 -408zM479 563q-187 0 -295 129q-110 125 -110 327t130 340t344 138q214 1 337 -179t123 -468q0 -392 -164 -637q-158 -248 -445 -248q-146 0 -235 68q-92 65 -92 162q0 58 33 87t75 29
q95 0 101 -104q9 -170 143 -170t220 174t110 518q-88 -166 -275 -166z" />
    <glyph glyph-name="colon" unicode=":" horiz-adv-x="595" 
d="M297 621q-60 0 -100 43q-43 40 -43 100t43 100q40 43 100 43t100 -43q43 -40 43 -100t-43 -100q-40 -43 -100 -43zM297 -18q-59 0 -101 40t-42 100t42 102t101 42t101 -42t42 -102t-42 -100t-101 -40z" />
    <glyph glyph-name="semicolon" unicode=";" horiz-adv-x="612" 
d="M170 -313q0 18 14 24q91 31 142 101t51 150t-35 81q-17 -1 -50 -19t-50 -18q-50 0 -74 35q-29 33 -29 89t41 95q38 41 120 41t137 -70t55 -176t-33 -180q-36 -71 -84 -110q-103 -78 -169 -78q-36 0 -36 35zM436 764q0 -60 -43 -100q-40 -43 -100 -43t-100 43
q-43 40 -43 100t43 100q40 43 100 43t100 -43q43 -40 43 -100z" />
    <glyph glyph-name="less" unicode="&#x3c;" 
d="M160 596q0 27 16 37l707 373q11 3 23 -13t12 -24t-5 -13l-419 -344l419 -376q5 -5 5 -13t-13 -24t-22 -13l-707 373q-16 10 -16 37z" />
    <glyph glyph-name="equal" unicode="=" 
d="M141 879h793q22 0 22 -75t-22 -75h-793q-22 0 -22 75t22 75zM934 375h-793q-22 -1 -22 73t22 74h793q22 0 22 -74t-22 -73z" />
    <glyph glyph-name="greater" unicode="&#x3e;" 
d="M160 251q0 9 4 13l418 344l-418 377q-4 4 -4 13t10 24t25 12l706 -372q17 -10 17 -37t-17 -37l-706 -373q-15 -3 -25 12t-10 24z" />
    <glyph glyph-name="question" unicode="?" horiz-adv-x="987" 
d="M467 108q0 -48 -37 -84q-36 -36 -86 -36t-84 36t-35 85q1 49 35 83t84 35t86 -35q37 -36 37 -84zM381 391q0 -33 -37 -33t-37 29q-1 177 -17 305t-16 137q0 39 37 39q7 0 19 -4q9 -6 13 -19t5 -16t2 -11t2 -12t1.5 -11.5t2.5 -12.5q20 -82 122 -82t155 92t53 229
q0 136 -63 228q-61 99 -185 99q-153 0 -180 -142q-12 -71 -92 -71q-34 0 -56 27t-22 71q0 89 103 149t272 60q228 0 354 -123q125 -125 125 -294t-115 -290t-313 -121q-90 0 -152 50q19 -78 19 -273z" />
    <glyph glyph-name="at" unicode="@" horiz-adv-x="1757" 
d="M662 88q-181 0 -181 199q0 134 80 291q75 157 214 276t282 119q82 0 125 -82q6 26 24 74q6 14 39 13.5t76 -8.5t43 -18q0 -26 -118 -332t-118 -380q0 -32 10 -44t38 -12q132 0 258 167t127 415q0 189 -115 319q-119 125 -351 125t-419 -129q-186 -129 -294 -331
t-108 -429q0 -228 128 -371t378 -143q134 -1 245 39t171 109q9 12 18 12q23 0 23 -26t-10 -39q-63 -83 -191 -144q-128 -55 -286 -55q-320 -1 -496 185t-176 474q0 177 72 348t202 310q132 138 324 217q193 84 424 84q296 0 449 -161t153 -390q0 -286 -182 -484t-430 -198
q-52 0 -91 31q-32 37 -32 86t12 98q-144 -215 -317 -215zM1128 805q0 100 -71 100q-61 0 -151 -112q-90 -111 -156 -257t-66 -240t61 -95q69 0 144 78q111 108 229 452q10 45 10 74z" />
    <glyph glyph-name="A" unicode="A" horiz-adv-x="1515" 
d="M-27 23q0 25 15 34q55 18 94 54q36 27 76 91t287 631q246 567 255 617q6 43 57 43t66 -43q33 -105 257 -654t270 -624q71 -115 163 -127q13 -3 13 -27t-10 -24l-121 6q-160 4 -203 4h-74l-266 -8q-10 0 -10 24t10 27q91 9 135 35q47 24 47 94q0 34 -19 73t-112 290
q-12 -2 -191 -2t-302 12q-131 -321 -131 -379t34 -88q39 -30 88 -33q21 1 21 -27t-16 -28l-228 10q-61 0 -108 -4l-80 -2q-17 0 -17 25zM643 631q165 0 225 -8q-63 142 -101 244q-39 102 -56.5 147t-31.5 83.5t-15 39.5l-224 -506h203z" />
    <glyph glyph-name="B" unicode="B" horiz-adv-x="1503" 
d="M678 819q185 0 250 74q63 75 63 211q0 280 -262 280q-77 0 -123 -14q-12 -184 -12 -549q18 -2 84 -2zM590 219q0 -162 194 -162q136 1 222 77t86 257t-117 271t-383 96q0 -137 -2 -258v-281zM1286 1124q0 -272 -377 -329q214 -35 348 -143t134 -279q0 -379 -566 -379
l-381 10l-189 -4q-189 -4 -189 20t8 25q144 6 196 49q56 41 56 142l-2 555q-5 332 -5 469q0 73 -40 110t-156 37q-6 1 -6 29t10 28q169 -14 346 -14l303 4q510 0 510 -330z" />
    <glyph glyph-name="C" unicode="C" horiz-adv-x="1579" 
d="M1446 211q0 -63 4 -117q0 -14 -30 -14t-29 14q0 37 -43 37q-24 0 -72 -31q-108 -77 -210 -107t-243 -30q-323 0 -536 213q-211 214 -211 554t230 553q230 214 542 214q272 0 446 -131q30 -23 54 -23q24 -1 46 21t21 43q0 14 30 14t30 -14q-9 -102 -9 -204t17 -275
q0 -15 -30 -15t-30 15q-40 230 -178 362q-140 131 -371 131q-231 1 -357 -187t-126 -496t139 -500q140 -187 394 -187q189 0 329 137q138 142 168 320q0 14 31 14t31 -14q-37 -234 -37 -297z" />
    <glyph glyph-name="D" unicode="D" horiz-adv-x="1712" 
d="M868 53q455 0 455 664q0 203 -78 381q-48 94 -106 155q-59 61 -153 101t-208 41q-114 0 -176 -21l-10 -1067q0 -134 65 -196q67 -58 211 -58zM1624 721q0 -353 -199 -543q-203 -188 -551 -188q-152 0 -276 7t-195 7l-311 -10q-8 0 -8 26t10 27q140 9 186 52t46 186
l-4 942q0 100 -50 137t-168 37q-8 1 -8 31t13 30q205 -10 311 -10l395 8q209 0 361 -63q166 -64 254 -168q194 -211 194 -508z" />
    <glyph glyph-name="E" unicode="E" horiz-adv-x="1441" 
d="M1008 1016q0 -13 -4 -49t-5 -149q0 -113 9 -302q0 -16 -36 -16t-36 18q-2 62 -12 95t-43 71q-69 59 -254 59h-35v-94l-4 -440q0 -73 46 -107t167 -34q255 0 367 90t130 274q2 27 38 27t36 -15l-10 -391q0 -39 -9 -48t-42 -9l-862 4h-82l-295 -8q-11 0 -11 30t11 29
q123 0 190 39q66 45 66 168q0 264 -4 522l-2 445q0 92 -51 134t-156 42q-9 -1 -9 31t13 32q137 -12 267 -12t303 4t295 9t161.5 6.5t57.5 2.5t20 1q28 0 28 -35l-12 -316q0 -14 -27 -14t-30 10q-26 144 -110 205t-286 61q-64 0 -176 -8q0 -286 -18 -571q206 0 276 46t70 165
q0 20 35 20t35 -22z" />
    <glyph glyph-name="F" unicode="F" horiz-adv-x="1372" 
d="M989 442q-35 0 -35 17q-10 76 -19 109t-44 71q-39 33 -97 45t-159 12h-45q4 -78 4 -272v-207q0 -97 61 -127q55 -35 162 -35q6 -1 6 -31t-12 -30q-138 12 -293 12t-383 -10q-8 0 -8 26t8 25q109 9 149 47t40 162v524q-2 260 -2 447q0 98 -48 137t-151 39q-6 1 -6 31
t10 30q129 -12 520 -12h78q225 0 371 10t170 10.5t36.5 1.5t14.5 1q31 0 31 -33l-13 -355q1 -14 -27 -14t-28 8q-22 133 -72 189q-49 62 -164 88t-354 26h-43q-20 -2 -41 -2v-67q2 -18 2 -51v-27q0 -167 -16 -471q220 2 289 60t69 167q0 17 35 17t35 -19q0 -29 -4 -82
l-2 -176l10 -274q0 -17 -35 -17z" />
    <glyph glyph-name="G" unicode="G" horiz-adv-x="1748" 
d="M1030 633q152 -12 391 -12l289 8q8 0 8 -30t-8 -30q-124 -9 -150 -47t-26 -136t8 -259q0 -23 -29 -23q-2 0 -38 19q-29 20 -61 20t-71 -28q-203 -150 -485 -150q-348 1 -565 213t-217 552t230 553q230 214 542 214q272 0 448 -123q22 -16 54 -16t55 39q18 37 44 37
t26 -15q-9 -102 -9 -197t17 -268q0 -14 -31 -14t-31 14q-41 231 -180 349q-135 120 -365 120q-230 1 -360 -187q-129 -188 -129 -500t143 -500t369 -189q173 -1 270 81t97 211t-47 181t-193 51q-12 0 -12 19t16 43z" />
    <glyph glyph-name="H" unicode="H" horiz-adv-x="1923" 
d="M1802 20q0 -26 -10 -26q-228 8 -354 8t-322 -8q-8 0 -8 26t8 25q121 13 165 43t44 133q0 393 -2 516q-294 -4 -435 -4t-288 12q0 -239 -6 -413v-115q0 -99 45 -135q50 -34 156 -37q6 1 6 -25t-10 -26q-229 8 -355 8t-321 -8q-9 0 -9 26t9 25q121 13 165 43t44 133
l-5 1039q0 79 -45 108q-44 33 -170 33q-8 1 -8 31t13 30q140 -10 358 -10l170 2q82 4 180 4q8 0 8 -30t-8 -29q-124 0 -168 -35q-43 -38 -43 -140t-6 -415q136 8 341 8t382 -10v278q-2 106 -2 180t-45 103q-44 33 -170 33q-8 1 -8 31t12 30q140 -10 358 -10l349 8
q10 0 10 -30t-10 -29q-123 -1 -167 -37t-44 -139l-11 -1008q0 -98 43 -135q50 -34 158 -37q6 1 6 -25z" />
    <glyph glyph-name="I" unicode="I" horiz-adv-x="923" 
d="M801 20q0 -26 -10 -26q-229 8 -355 8t-321 -8q-9 0 -9 26t9 27q121 13 165 43t44 133l-5 1032q0 80 -46 114t-169 34q-8 -1 -8 29t13 30q140 -10 358 -10l350 8q8 0 8 -28t-8 -29q-127 1 -169 -39t-42 -143l-12 -1004q0 -99 44 -133t157 -37q6 -1 6 -27z" />
    <glyph glyph-name="J" unicode="J" horiz-adv-x="915" 
d="M90 -524q-152 0 -230 58t-77 136q0 111 113 111q85 0 116 -107q6 -38 39 -71q28 -35 86 -35q107 0 162 82t55 319l8 1260q0 161 -219 176q-6 -1 -6 29t10 30q150 -12 296 -12t403 10q8 0 8 -28t-8 -29q-116 -9 -158 -57q-45 -42 -45 -160l-8 -1219q0 -241 -158 -366
q-154 -127 -387 -127z" />
    <glyph glyph-name="K" unicode="K" horiz-adv-x="1769" 
d="M809 20q0 -26 -10 -26q-253 12 -389 12t-289 -10q-8 0 -8 26t8 25q113 9 155 50t43 153l11 975q0 83 -43 125t-176 51q-9 1 -9 31t13 30q139 -10 341 -10t355 8q8 0 8 -30t-8 -29q-109 -3 -154 -45q-45 -36 -45 -146q-2 -46 -2 -90l-8 -211q0 -43 -1 -119t-1 -108
q153 120 361 346t208 313q0 62 -90 62q-8 -1 -8 27t8 28h101q66 -2 159 -2l119 2q22 2 72 5t72 5q10 0 10 -28t-10 -37q-160 -12 -287 -148q-230 -241 -424 -403q359 -417 556 -609t294 -192q28 -1 28 -29t-12 -28q-400 0 -441 17t-104 75q-124 116 -518 592l-94 -76
q0 -110 -2 -190q-6 -70 -1 -130t3 -90t12 -61q16 -31 22 -42t38 -23q55 -14 131 -19q6 -1 6 -27z" />
    <glyph glyph-name="L" unicode="L" horiz-adv-x="1411" 
d="M1315 0h-948q-176 0 -277 -8q-10 0 -10 28t10 31q111 3 174 43q60 45 60 160v276l-5 699q0 101 -40 135q-37 37 -162 37q-6 1 -6 31t10 30q143 -10 346 -10l373 8q8 0 8 -30t-8 -29q-128 0 -185 -45q-54 -51 -51 -160l-12 -850q0 -154 72 -211q74 -53 229 -53
q225 0 313 88t103 260q3 25 38 25t35 -15l-16 -385q0 -40 -10 -47q-5 -8 -41 -8z" />
    <glyph glyph-name="M" unicode="M" horiz-adv-x="2138" 
d="M1991 20q0 -26 -11 -26q-188 10 -366 10t-311 -8q-9 0 -9 23t9 26q107 12 159 57q51 48 51 160q0 227 25 969q-92 -167 -309 -658q-212 -489 -222 -527t-39 -38t-38 27q-36 106 -224 558t-268 583l-22 -955q0 -86 35 -127q30 -41 149 -53q6 -1 6 -25t-10 -24
q-140 10 -238 10t-252 -6q-8 0 -8 24t8 25q114 13 161 61t50 172t21 508t18 449q0 166 -250 166q-6 -1 -6 31t11 32q258 -12 262 -12l125 2q49 4 84 4t43 -14q234 -523 434 -1051q189 473 477 1045q10 16 33 16h37q12 -2 104 -2t303 10q8 0 8 -27t-8 -32q-115 -15 -163 -59
t-48 -156l-8 -946q0 -38 3 -66t23 -61t56 -47q37 -14 106 -23q9 1 9 -25z" />
    <glyph glyph-name="N" unicode="N" horiz-adv-x="1775" 
d="M1397 -25q-16 0 -35 29q-72 108 -440 566t-500 599q-3 -205 1 -409t5 -280.5t1.5 -112.5t0.5 -41q0 -138 49 -199q46 -64 213 -82q6 -5 6 -29t-12 -24q-76 8 -248 8t-350 -8q-8 0 -8 28t8 29q138 0 182 53q47 50 47 181l23 911q0 80 -66 137q-63 63 -200 72q-6 1 -6 31
t10 30q147 -10 276 -10h133q29 2 49 2t31 -18l25 -31q257 -301 469 -567q261 -318 321 -422v774q0 116 -50 166t-177 53q-8 1 -8 27t12 26q176 -12 291 -12t248 8q8 0 8 -32t-8 -31q-103 0 -160 -45q-55 -49 -55 -170l-15 -650v-172l5 -354q0 -31 -76 -31z" />
    <glyph glyph-name="O" unicode="O" horiz-adv-x="1806" 
d="M904 33q232 0 366 184q131 185 131 491t-141 509q-142 198 -365 198t-358 -194q-140 -195 -140 -508t140 -496q135 -184 367 -184zM1724 722q0 -322 -239 -542q-243 -217 -598 -217t-584 209q-225 212 -225 540t240 557q240 228 588 228t581 -227q237 -226 237 -548z" />
    <glyph glyph-name="P" unicode="P" horiz-adv-x="1413" 
d="M1215 1348q133 -114 133 -275q0 -162 -121 -278q-141 -129 -482 -129q-65 0 -145 6v-426q0 -124 33 -162t160 -37q8 -1 8 -27t-13 -26q-222 10 -376 10t-285 -8q-8 0 -8 26t8 25q99 5 145 49t47 168l5 967q0 102 -50 137q-51 31 -151 31q-6 1 -6 31t10 30q63 -8 266 -8
l436 10q253 0 386 -114zM733 727q328 0 328 317q0 191 -103 269q-100 80 -251 80q-56 0 -113 -11q4 -508 4 -575v-78q20 -2 135 -2z" />
    <glyph glyph-name="Q" unicode="Q" horiz-adv-x="1841" 
d="M921 51q226 0 355 182t129 484q-1 303 -139 501t-356 199q-218 0 -354 -192q-136 -193 -136 -501t137 -491q138 -182 364 -182zM877 -143q152 -1 474 -91q323 -90 481 -90t234 40t103 124q3 23 34 23t31 -21q0 -183 -130 -327t-347 -144q-245 1 -491 181
q-120 88 -160 120q-42 33 -132 83t-171 50q-3 0 -8 -0.5t-15.5 -1.5t-19.5 -2q-117 -141 -219 -141q-68 0 -68 64q-1 45 53 79t162 37q92 77 256 146q-10 0 -18 -2h-19q-350 0 -577 204q-226 209 -226 533t236 551q240 225 580 225q340 -1 572 -225t232 -543
q0 -253 -151 -438q-148 -188 -397 -268q-244 -71 -367 -173q24 7 68 7z" />
    <glyph glyph-name="R" unicode="R" horiz-adv-x="1662" 
d="M881 1458q229 0 355 -110t126 -252t-105 -248q-108 -101 -307 -131q30 -18 74 -62l37 -37q29 -29 42 -43t29 -31t26 -29t34 -40q26 -28 139 -153t186 -186q74 -61 158 -70q19 0 19 -32t-23 -32l-307 -10q-68 0 -154 75t-266 308q-40 51 -53 69l-49 66q-38 50 -54 70
q-31 41 -54 65l-25 25q-3 3 -17 10q-78 4 -96 4l-4 -465q0 -98 40 -134t136 -36q8 -1 8 -27t-12 -26q-140 10 -313 10l-166 -4q-166 -4 -166 22t8 27q115 9 156 47q43 34 43 162l-9 975q0 92 -43 129q-39 39 -151 39q-6 1 -6 31t10 30q108 -12 311 -12l221 2q104 4 222 4z
M731 745q322 0 322 318q0 323 -285 323q-112 0 -164 -8q-8 -117 -8 -630q27 -3 135 -3z" />
    <glyph glyph-name="S" unicode="S" horiz-adv-x="1284" 
d="M168 504q0 18 35 18t35 -12q0 -217 120 -342t301 -125q131 0 205 68q72 72 72 179t-55 177t-140 104q-30 13 -151.5 64.5t-205.5 97.5t-138 135q-56 86 -56 215q0 183 130 299t317 115q141 0 260 -61q41 -21 49 -21q37 0 49 43q3 10 29 10t27 -16q0 -1 -3.5 -33
t-10.5 -178t-7 -186q0 -19 -32 -19t-33 21q1 159 -79 263t-245 103q-108 1 -175 -65t-67 -156q1 -90 41 -140t109 -87q96 -43 161 -65q64 -22 146 -60t148 -90t108 -142t43 -212q0 -206 -144 -324t-341 -119q-85 0 -174 21q-88 26 -120 48t-73 50q-38 20 -55 20t-31 -26
t-14 -47q0 -11 -33 -11t-33 27q15 85 23 243t8 216z" />
    <glyph glyph-name="T" unicode="T" horiz-adv-x="1474" 
d="M1081 19q0 -25 -10 -25q-199 12 -353 12t-323 -8q-8 0 -8 22t8 31q106 9 154 51q47 44 47 150l8 1112q-105 6 -180 6q-159 0 -237 -74t-124 -245q-3 -13 -29 -13t-26 17l15 381q0 32 30 32q1 0 217 -8t377 -8t302 2t238 6t111 4l119 4q31 0 31 -8l14 -405q0 -17 -26 -17
t-29 13q-45 171 -121 247q-81 72 -237 72q-4 0 -164 -4l-8 -1122q0 -112 44 -153t154 -44q6 -3 6 -28z" />
    <glyph glyph-name="U" unicode="U" horiz-adv-x="1789" 
d="M884 -37q-275 0 -433 143t-158 394l10 729q0 176 -219 176q-8 -1 -8 29t12 30q150 -12 326 -12t383 10q8 0 8 -28t-8 -29q-167 -11 -196 -103q-15 -47 -15 -114v-148l-4 -307v-248q0 -180 110 -275t296 -95q186 -1 298 103q111 104 111 269q0 330 -5.5 533.5t-5.5 208.5
q0 83 -63 131q-64 45 -160 45q-6 -1 -6 29t10 30q137 -12 231 -12t316 10q8 0 8 -28t-8 -29q-102 -6 -158 -53q-51 -48 -51 -164l-8 -727q0 -208 -170 -350q-168 -148 -443 -148z" />
    <glyph glyph-name="V" unicode="V" horiz-adv-x="1478" 
d="M1278 1450q154 0 217 10q12 0 12 -30t-18 -33q-147 -21 -207 -183q-4 -13 -238.5 -600t-238.5 -622q-3 -25 -63 -25t-68 31q-26 104 -251 669t-257 615q-76 120 -172 129q-6 1 -6 27t10 26q191 -12 338 -12t330 8q6 0 6 -28t-10 -27q-177 -3 -177 -107q-1 -38 17 -82
t170 -447t168 -462q48 138 131 344q116 308 158 432t42 191q0 117 -176 117q-12 1 -12 35t21 34q120 -10 274 -10z" />
    <glyph glyph-name="W" unicode="W" horiz-adv-x="2181" 
d="M1837 1268q0 129 -166 129q-14 1 -14 33t18 32q144 -12 273 -12l206 10q13 0 13 -30t-10 -31q-149 -3 -195 -166q-25 -90 -216.5 -652.5t-195.5 -589.5q-4 -26 -64 -26t-63 25q-53 194 -317 946q-138 -398 -235 -659q-98 -262 -102 -287q-5 -25 -61 -25t-59 25
q-22 87 -234 657t-249 635q-70 120 -162 129q-4 1 -4 27t8 26q141 -12 306 -12t321 8q6 0 6 -28t-10 -29q-148 -6 -148 -105q-1 -42 17 -93t151 -435q121 -361 148 -430q15 46 74 209q84 236 167 495q89 246 97 332q-1 27 55 27t59 -25q13 -96 158 -534q138 -434 170 -492
q102 294 180 572t78 344z" />
    <glyph glyph-name="X" unicode="X" horiz-adv-x="1650" 
d="M1069 123q0 20 -16 61t-185 275q-91 132 -104 151q-28 -38 -66 -86t-98 -125t-104 -163q-19 -44 -19 -86t30 -70t107 -29q13 -1 13 -29t-21 -28q-200 12 -340 12t-198 -10q-13 0 -13 31t19 34q121 23 229 134q4 5 138 159t282 310q-221 304 -475 618q-53 63 -101 90
q-47 36 -75 39q-9 1 -9 27t13 26q156 -12 346 -12t336 8q4 0 4 -28t-10 -27q-63 -3 -113 -21q-37 -18 -37 -62t66 -142t229 -322q149 176 217 278t68 154q0 111 -154 111q-12 -1 -12 31t20 32q181 -12 326 -12t207 12q12 0 12 -29t-18 -32q-100 -18 -230 -160l-393 -442
q366 -512 462 -628t193 -134q7 -1 7 -25t-11 -24q-252 12 -368 12l-154 -4q-154 -4 -154 24t11 27l47 4q96 0 96 70z" />
    <glyph glyph-name="Y" unicode="Y" horiz-adv-x="1572" 
d="M909 265q0 -133 45 -175q46 -40 158 -43q6 -1 6 -27t-10 -26q-205 12 -358 12t-312 -8q-10 0 -10 26t10 25q107 6 154 47t47 148q0 275 2 334q-104 188 -264 417q-159 237 -205 289q-104 122 -172 125q-6 -1 -6 27t12 28q296 -12 418 -12t270 8q6 0 6 -28t-10 -29
q-162 0 -162 -98q0 -27 26 -85t56 -106q40 -72 66 -110t57 -87t71 -111t64 -101q297 473 297 581q0 115 -159 115q-13 1 -13 31t17 30q120 -10 287 -10t259 10q13 0 13 -30t-19 -37q-120 -18 -219 -144q-49 -55 -193 -265t-220 -370q-9 -218 -9 -351z" />
    <glyph glyph-name="Z" unicode="Z" horiz-adv-x="1431" 
d="M164 1090l20 335q0 35 37 35l561 -8q180 0 258 2h181q41 2 73 2t33 -22q-1 -10 -11 -26t-416 -640q-406 -623 -454 -690q580 0 725 151q77 74 86 203q3 25 39 25t35 -13l-10 -395q0 -35 -10 -43q-11 -8 -119 -8t-438 2h-656q-14 0 -20 12q-10 10 -10 28t10 28
q152 166 518 724q230 351 279.5 427.5t69 106.5t26.5 42q-114 6 -248 6q-247 0 -354 -71q-109 -66 -148 -218q-3 -10 -30 -10t-27 15z" />
    <glyph glyph-name="bracketleft" unicode="[" horiz-adv-x="845" 
d="M852 1556q0 -36 -21 -36q-126 -6 -399 -23q-16 -457 -16 -975t4 -1104q205 -12 389 -16q20 -6 20 -40t-20 -34l-559 17q-37 0 -37 24l4 1080q0 298 -4 593l-2 506q0 25 43 25l577 20q21 -1 21 -37z" />
    <glyph glyph-name="backslash" unicode="\" horiz-adv-x="1069" 
d="M80 1491q84 0 98 -23l903 -1755q0 -15 -38 -25q-39 -10 -81 -10t-49 13l-911 1773q-6 27 78 27z" />
    <glyph glyph-name="bracketright" unicode="]" horiz-adv-x="845" 
d="M-4 -635q0 37 20 37q69 2 400 20q16 546 16 1148t-6 931q-231 13 -387 17q-21 6 -21 40t21 35l557 -18q39 0 39 -25l-4 -1079q0 -299 4 -594l2 -504q0 -24 -43 -24l-578 -21q-20 0 -20 37z" />
    <glyph glyph-name="asciicircum" unicode="^" 
d="M946 727l-53 -31l-354 494l-355 -494l-53 31l371 707h73z" />
    <glyph glyph-name="underscore" unicode="_" horiz-adv-x="1488" 
d="M1489 -227h-1489v155h1489v-155z" />
    <glyph glyph-name="grave" unicode="`" horiz-adv-x="624" 
d="M102 1419q0 45 94 45t103 -24l219 -363l4 -12q0 -27 -37 -27q-6 0 -18 9l-340 333q-25 22 -25 39z" />
    <glyph glyph-name="a" unicode="a" horiz-adv-x="1030" 
d="M806 -29q-173 0 -179 189q-47 -87 -132 -140t-189 -53t-160 52t-56 143q0 128 124 238t407 169v97q0 96 -27 145q-28 45 -109 45t-120 -33q-43 -32 -64 -102q-9 -28 -37 -48t-61.5 -20t-58.5 22t-25 64q0 75 90 138q91 57 289 57t278 -57q76 -61 76 -207q0 -23 -8 -199
q-10 -136 -10 -276q0 -93 60 -93t81 50q3 6 11 6t18 -6t10 -17q0 -10 -15 -53q-19 -36 -65 -74t-128 -37zM317 254q0 -82 35 -111q27 -34 86 -34q98 0 180 104q-3 163 0 309q-161 -46 -231 -116t-70 -152z" />
    <glyph glyph-name="b" unicode="b" horiz-adv-x="1230" 
d="M199 1350q-1 58 -31 78t-125 20q-10 0 -10 30t10 29q174 1 268 17q93 16 113 16t20 -16t-4 -132q-4 -114 -10 -224t-18 -404q44 70 122 120t187 50q186 0 313 -139q125 -140 125 -351t-139 -344q-135 -135 -350 -135q-102 0 -182 45t-121 113q-43 -32 -84 -82
q-43 -61 -59 -87t-21 -26q-15 0 -27 9q-16 9 -16 19t6 74q24 231 24 699l9 611v10zM399 227q-1 -67 71 -121t151 -53q122 0 194 90q76 85 76 287t-64 295q-65 92 -196 92q-157 0 -219 -141q-13 -276 -13 -449z" />
    <glyph glyph-name="c" unicode="c" horiz-adv-x="944" 
d="M582 934q139 0 221 -48t82 -124q0 -41 -25 -66q-28 -22 -62 -22t-60 30t-38 62q-48 92 -143 92q-235 0 -235 -379q0 -196 81 -286q81 -97 203 -97q76 0 144 34t94 91q3 8 16 8t25 -12q14 -8 14 -24q-35 -113 -133 -168q-102 -60 -221 -60q-190 0 -332 127
q-139 127 -139 335t139 359q142 148 369 148z" />
    <glyph glyph-name="d" unicode="d" horiz-adv-x="1249" 
d="M827 1352q-1 58 -29 78t-124 20q-10 0 -10 28t10 29q138 1 248 17q109 16 116 16q33 0 33 -18t-11 -511q-11 -494 -11 -847q0 -45 24 -61t74 -19l59 -4q15 0 15 -32t-13 -32q-61 0 -149 -16q-97 -12 -105 -15l-38 -13q-30 -10 -34 -11t-11 -3.5t-11 -4.5t-12 -2
q-23 0 -23 22v3l1 8l1 45q4 33 4 77q-139 -141 -315 -141t-308 132q-132 131 -132 347t129 351q123 139 315 139t311 -119v217l-4 209v111zM829 680q-1 66 -63 111t-164 45t-184 -95q-78 -101 -78 -289t74 -282q70 -94 171 -94t152 26q48 26 86 97q6 144 6 481z" />
    <glyph glyph-name="e" unicode="e" horiz-adv-x="974" 
d="M551 864q-175 0 -236 -217q85 0 180 7t137 9t58 11t15 45q0 145 -154 145zM563 934q173 0 266 -99t93 -206q0 -25 -8 -33t-31 -8q-378 0 -578 8q-8 -36 -8 -92q1 -184 87 -294t242 -110t222 101q6 8 18 8q12 1 24 -9t13 -24q-91 -211 -358 -211q-209 0 -339 119t-130 336
t133 362q128 152 354 152z" />
    <glyph glyph-name="f" unicode="f" horiz-adv-x="727" 
d="M92 786q-12 0 -12 29t12 29q67 6 93 29t26 79v234q0 162 117 250q119 88 305 88q127 0 208 -46t81 -135q0 -43 -29 -69q-26 -29 -70 -29q-74 0 -92 76q-11 57 -39 86t-86 29q-94 0 -130 -68t-38 -176q-1 -28 -1.5 -90t-2.5 -116t-2 -105l162 4q27 2 72 2q14 0 14 -46
t-16 -46h-232v-619q0 -78 31 -106q35 -24 147 -27q8 1 8 -23t-8 -24l-317 10l-111 -2q-49 -4 -90 -4q-8 0 -8 21t8 24q74 9 92 37q23 26 23 74l8 630h-123z" />
    <glyph glyph-name="g" unicode="g" horiz-adv-x="1159" 
d="M503 299q67 1 113 73t46 204t-44 212q-44 78 -114 78t-114 -73q-46 -73 -46 -209t46 -210q46 -75 113 -75zM348 270q-225 79 -225 340q0 135 106 230q110 94 273 94q107 0 182 -41q81 -36 131 -111q69 162 221 162t152 -139q0 -48 -29 -74q-23 -26 -61 -26q-65 0 -86 71
q-16 41 -56 41t-71 -22q-27 -27 -27 -56t12 -83t11 -85q1 -156 -85 -237t-282 -90q-131 -6 -199 -29q-57 -22 -57 -65q0 -60 111 -60q61 0 157 8t185 8q168 0 252 -90q86 -86 86 -225q0 -171 -141 -295q-140 -124 -390 -125q-250 0 -371 76q-116 79 -116 203q0 88 55 144
t147 56q53 0 82 -20q-96 -44 -96 -152q1 -108 79 -172q78 -65 239 -65t249 76.5t88 172.5t-51 150q-51 60 -157 60l-269 -9q-123 0 -196 43q-78 40 -78 124t61 143q57 60 164 69z" />
    <glyph glyph-name="h" unicode="h" horiz-adv-x="1236" 
d="M49 1448q-12 0 -12 30t12 29q152 1 256 17q105 16 127 16t21 -18q0 -131 -25 -809q37 101 140 161q104 60 214 60t196 -72t87 -207l-18 -491q-1 -70 23 -95t118 -28q10 1 10 -23t-10 -24l-256 12l-230 -4q-8 0 -8 24t8 23q65 0 93 21q24 24 24 35l10 522q0 86 -47 133
t-128 47q-80 0 -150 -77t-70 -230v-240q-2 -84 -2 -132t22 -63q22 -16 89 -16q8 1 8 -23t-8 -24l-215 4l-131 -5q-131 -5 -131 19t8 23q78 3 108 18q25 19 25 68l-4 1221q-1 58 -31 78t-123 20z" />
    <glyph glyph-name="i" unicode="i" horiz-adv-x="614" 
d="M457 1364q0 -54 -39 -92q-38 -38 -94 -37q-56 -1 -95 37t-39 92t39 93.5t95 39.5t94.5 -39.5t38.5 -93.5zM61 20q0 22 9 23q81 3 110 25t29 84v344q-2 131 -2 252q0 67 -62 67h-59q-14 1 -14 25t14 24q170 9 315 74q17 3 29 -6t12 -37t-8 -307t-8 -447q0 -52 25 -71
q22 -22 116 -25q8 -1 8 -25t-8 -24l-284 8q-70 0 -119 -4l-94 -2q-9 0 -9 22z" />
    <glyph glyph-name="j" unicode="j" horiz-adv-x="610" 
d="M332 1234q-55 0 -94 38t-39 92t39 93.5t94 39.5t94 -39.5t39 -93.5t-39 -92t-94 -38zM209 -274l1 202l2 454l3 366q0 67 -61 67h-62q-14 1 -14 25t14 24q173 9 318 74q41 0 41 -27l-17 -1067q0 -235 -112 -356q-116 -119 -314 -119q-120 -1 -185 51t-65 121q0 40 25 68
q26 26 67 26.5t66 -29.5q24 -30 32 -65t29 -65q23 -29 62 -29q92 0 129 64q41 61 41 215z" />
    <glyph glyph-name="k" unicode="k" horiz-adv-x="1159" 
d="M76 20q0 22 8 23q79 6 101 28t22 83v1196q0 58 -28 78t-124 20q-12 0 -12 30t12 29q138 1 246 17t129 16t21 -18q0 -45 -4 -164t-21 -940q334 258 334 362q0 60 -103 60q-8 0 -8 24t8 23q48 0 97 -2h106q70 0 123 4l88 2q12 -1 12 -23t-8 -22q-80 -14 -190 -111
q-29 -22 -118.5 -103t-94.5 -85q126 -181 248 -321t166 -162q42 -22 79 -21q6 1 6 -23t-14 -24l-274 4q-53 0 -113 66t-264 350q-33 -33 -76 -58v-104l-4 -90v-51q0 -35 25 -47q19 -17 88 -23q6 -1 6 -23t-3 -22l-128 2q-52 4 -110 4t-111 -4l-107 -2q-10 0 -10 22z" />
    <glyph glyph-name="l" unicode="l" horiz-adv-x="624" 
d="M51 1450q-12 0 -12 28t12 29q138 1 248 17q109 16 117 16q33 0 33 -18q0 -8 -2 -50t-3 -102.5t-2 -94.5t-2 -121.5t-2 -137.5t-1.5 -178.5t-2.5 -238.5t-2 -441q0 -68 23 -88q18 -21 116 -27q7 1 7 -23t-11 -24l-250 8q-72 0 -133 -4l-118 -2q-9 0 -9 22t9 23
q94 9 118 26t23 76l-4 1207q1 58 -27 78t-125 20z" />
    <glyph glyph-name="m" unicode="m" horiz-adv-x="1798" 
d="M213 698q0 82 -12 101q-16 16 -51 16h-58q-12 1 -12 25t12 24q126 3 318 72q34 0 34 -25q0 -12 -4 -106.5t-4 -102.5q38 104 134 168t196 64t168 -52t90 -159q39 95 135 153t208 58q113 0 185 -70t72 -205l-10 -514q0 -57 23 -79t100 -25q10 1 10 -23t-10 -24l-279 10
l-190 -4q-8 0 -8 24t8 23q78 3 100 25t21 63v283q2 110 2 204q0 180 -148 179q-79 0 -145 -60q-61 -61 -64 -170l-10 -376v-72q13 -66 45 -70q18 -6 64 -6q10 1 10 -23t-10 -24l-209 4l-246 -4q-8 0 -8 24t8 23q79 3 102 21t23 63l4 487q0 187 -143 187q-87 0 -154 -76
q-66 -81 -66 -236t-2 -237v-131q0 -45 17 -61t84 -15q8 1 8 -23t-8 -24l-228 4q-57 0 -108 -4t-84 -5t-39 -1t-6 24t8 23q84 3 108 19t25 69l-2 344q-4 141 -4 223z" />
    <glyph glyph-name="n" unicode="n" horiz-adv-x="1247" 
d="M150 815h-58q-12 1 -12 25t12 24q126 3 318 72q34 0 34 -25q0 -10 -4 -104t-4 -96q38 103 140 163t215 60q112 0 197 -72t85 -209l-16 -458q0 -102 20 -125q17 -29 115 -29q8 1 8 -23t-8 -24l-240 10h-131q-55 -2 -108 -2q-8 0 -8 24t8 23q72 3 93 24t21 66l9 492
q0 83 -45 131q-49 45 -129 45t-150 -76q-68 -77 -68 -233l-4 -373q0 -41 27 -59t86 -17q8 1 8 -23t-8 -24l-221 4l-128 -5q-128 -5 -128 19t8 23q85 6 109 22t24 64l-4 612q0 40 -12 58q-16 16 -51 16z" />
    <glyph glyph-name="o" unicode="o" horiz-adv-x="1138" 
d="M574 27q117 0 180 106q61 107 61 307t-65 312q-61 116 -183 116q-241 0 -241 -407q0 -202 63 -322q68 -112 185 -112zM68 448q0 206 145 346t361 140t357 -140q140 -140 140 -346t-145 -346q-146 -137 -363 -137t-356 139t-139 344z" />
    <glyph glyph-name="p" unicode="p" horiz-adv-x="1253" 
d="M920 418q0 420 -261 420q-97 0 -165 -66t-68 -211v-143q2 -86 2 -207q0 -82 71 -130t164 -48q93 1 175 93t82 292zM436 -470q0 -96 168 -95q14 0 14 -32t-14 -32l-577 11q-9 0 -9 28t9 29q109 0 135 29q28 25 28 98l5 1145q0 108 -66 108h-68q-10 -1 -10 23t10 24
q133 9 256 64l50 18q27 0 43 -54t16 -128q104 168 330 168q175 0 305 -139q125 -141 125 -353t-140 -348t-348 -135q-89 1 -162 35t-106 78l4 -441q2 -57 2 -101z" />
    <glyph glyph-name="q" unicode="q" horiz-adv-x="1210" 
d="M625 -600q0 24 8 27q99 13 133 39t37 100q0 3 2.5 57t8 189t11.5 280q-133 -127 -303 -127t-311 137q-137 140 -137 349t135 344q133 139 341 139t316 -150q31 23 80 72l66 66q24 24 35 24q26 0 26 -24l-1 -21q-3 -55 -14 -279t-14 -401q-10 -266 -10 -639q0 -90 28 -115
t132 -34q8 0 8 -30t-8 -30l-291 9l-270 -5q-8 -1 -8 23zM836 618q0 98 -62 160q-65 62 -153 62q-129 0 -203 -102t-74 -287q0 -186 66 -283q60 -102 186 -102q181 0 233 137q7 226 7 415z" />
    <glyph glyph-name="r" unicode="r" horiz-adv-x="854" 
d="M63 22q0 24 9 23q74 0 106 21q29 26 29 65t2 102v238q2 94 2 285q0 59 -51 59h-82q-12 0 -12 23t12 26q163 9 323 72q35 0 35 -27t-6 -194q34 95 118 157t162 62t115 -37t37 -93t-28 -94t-78 -38t-70 45q-26 63 -111 63q-122 -15 -137 -213q-6 -68 -6 -430q0 -49 35 -67
q36 -23 129 -23q8 1 8 -23t-8 -24l-262 4q-84 0 -150 -4l-112 -2q-9 0 -9 24z" />
    <glyph glyph-name="s" unicode="s" horiz-adv-x="827" 
d="M136 295q22 0 22 -12q16 -123 88 -187t152 -63q80 0 130 35q45 36 45 100t-47 104q-47 41 -122 70q-74 29 -132 56t-100 89q-47 61 -47 160q0 135 92 209q90 78 213 78t199 -76q23 10 43 33q33 0 33 -12t-5 -43l-4 -95q-4 -33 -4 -84q0 -16 -25 -16t-28 18
q-14 96 -74 156q-61 55 -130 55t-109 -34t-39 -91q1 -58 45 -94q44 -35 102 -59t144 -65q85 -41 131 -109q49 -64 49 -160q0 -148 -110 -220t-244 -73q-134 0 -209 60q-22 14 -32 14t-26 -16q-14 -7 -18 -7q-19 0 -19 15l13 248q1 16 23 16z" />
    <glyph glyph-name="t" unicode="t" horiz-adv-x="712" 
d="M78 828q0 19 10 22q90 28 166 114t111 195q3 8 28 8t25 -14q0 -187 -6 -272q234 6 246 6t12 -48t-13 -48h-251v-410q-3 -62 -3 -126t12 -95q13 -32 21 -46t30 -24t61 -10t76 16t44 41q3 19 25 19t22 -19q0 -74 -70 -122t-192 -48t-190 56q-64 58 -64 194l10 547
q0 27 -16 37q-16 7 -38 3t-40 -1q-16 6 -16 25z" />
    <glyph glyph-name="u" unicode="u" horiz-adv-x="1218" 
d="M1022 895q27 0 27 -18q-29 -375 -29 -711q0 -64 41 -64h78q14 0 14 -27t-14 -30q-209 -42 -279 -78q-28 0 -37 31q-20 70 -20 172q-53 -100 -146 -152t-198 -53q-258 0 -258 258l4 463q0 99 -19 121t-114 31q-9 3 -9 25t9 22l358 10l-8 -625q0 -92 35 -134t123 -42
t153 78q70 73 70 195l8 395q0 44 -33 61q-34 17 -104 17q-8 0 -8 22t8 21l137 2q25 2 73 4t65 3t20 1l49 2h4z" />
    <glyph glyph-name="v" unicode="v" horiz-adv-x="1011" 
d="M1042 870q0 -18 -8 -26q-69 -18 -125 -92q-19 -27 -98 -179q-215 -434 -258 -577q-10 -23 -65 -23t-62 23q-6 56 -162 398t-184 384q-41 65 -96 68q-11 11 -11 29t11 18l237 -8l232 4q8 0 8 -22t-8 -25q-93 -15 -93 -70q0 -41 103 -291q95 -249 102 -270q6 19 69 161
q136 307 136 388q0 70 -90 82q-8 0 -8 22t8 23h4l10 -1l56 -1q47 -4 116 -4l168 8q8 -1 8 -19z" />
    <glyph glyph-name="w" unicode="w" horiz-adv-x="1482" 
d="M1507 870q0 -18 -8 -26q-74 -20 -127 -94q-45 -51 -156 -325t-167 -429q-7 -21 -41 -21t-54 5q-17 9 -24 38q-7 30 -197 527q-114 -293 -161 -405q-48 -112 -56 -144q-2 -21 -50 -21q-48 1 -56 19t-135 343q-128 325 -171 408q-43 84 -77 93q-19 4 -31 4t-12 24t8 25
q15 0 33 -2l208 -4l218 4q8 0 8 -22t-8 -25q-91 -19 -91 -68q0 -18 7 -39l8 -24q29 -85 85 -237t81 -236q51 132 125 346t84 268q6 18 39 18t42 -6t12 -16t5 -12v-5q6 -17 70 -201t96 -270t49 -133q53 123 109 293t57 222q0 52 -21 77q-23 20 -86 23q-8 0 -8 24t8 23
q168 -8 221 -8l156 8q8 -1 8 -19z" />
    <glyph glyph-name="x" unicode="x" horiz-adv-x="1126" 
d="M756 774q0 60 -70 66q-8 0 -8 24t8 23q25 0 72 -2h106q27 0 121 4l72 2q8 0 8 -22t-8 -25q-89 -12 -153 -70t-88 -82t-90 -96q-67 -72 -83 -88q332 -411 420 -451q21 -9 43 -12q8 -3 8 -25t-8 -22l-82 2q-53 2 -144 2t-159 -2h-107q-8 0 -8 24t8 23q86 9 86 47
q0 28 -18 49q-94 108 -174 222l-170 -224q-14 -20 -14 -43t20 -38t49 -15q10 1 10 -23t-10 -24l-100 2q-39 4 -89 4t-93 -4l-72 -2q-8 0 -8 22t8 25q62 8 104 45q49 30 107 86t69 68q70 79 154 164q-312 379 -367 417q-18 14 -47 17q-8 3 -8 25t8 22l230 -4l239 4q9 1 9 -23
t-9 -24q-88 -3 -88 -54q0 -18 15 -36q78 -100 151 -201q7 9 29 35l29 32q6 14 22 32t22 25t12 17t21 32t15 50z" />
    <glyph glyph-name="y" unicode="y" horiz-adv-x="991" 
d="M109 -668q-84 0 -84 93q0 54 49 88q41 33 115 73t106 82q89 123 149 314q-12 59 -174 411t-213 412q-19 22 -34 31q-27 10 -43 10q-9 0 -9 22t9 23q17 0 40 -2l191 -4q78 0 133 4l111 2q8 0 8 -21t-8 -24q-97 -15 -97 -72q0 -36 72 -204t97.5 -226t36.5 -84t14 -33
q21 56 63 159q43 103 85 218q42 116 42 156t-15 60t-73 22q-8 0 -8 24t8 23l180 -4q33 0 111 4l59 2q8 0 8 -21t-8 -24q-32 -8 -44 -18t-15 -9l-29 -28q0 -1 -13 -17t-16 -20q-34 -44 -129 -240q-278 -592 -396 -887t-279 -295z" />
    <glyph glyph-name="z" unicode="z" horiz-adv-x="1005" 
d="M913 863q0 -24 -15.5 -31.5t-60.5 -73.5t-61 -90l-44 -66q-27 -42 -77 -110q-36 -54 -90 -136t-215 -293q325 3 422 66q38 22 66 70t36 92q4 12 26 12t22 -8l-21 -252v-18q-4 -8 -4 -13q-8 -12 -35 -12h-442q-213 -2 -342 -2q-15 0 -15 26t13 33q26 11 274 361
q42 55 271 393q-31 -1 -111 -2t-162 -14q-106 -25 -135 -103q-17 -49 -31 -121q0 -12 -24 -12t-25 12l19 279v18q0 13 16 13q6 2 25 2l702 4q18 0 18 -24z" />
    <glyph glyph-name="braceleft" unicode="{" horiz-adv-x="876" 
d="M854 -612q20 0 20 -36t-20 -36q-573 0 -573 473l10 342q0 135 -41 209q-44 74 -160 74q-24 0 -24 36t24 35q119 -1 161 73t42 210l-12 352q0 212 135 340t438 127q20 1 20 -33t-20 -34q-244 0 -305 -115q-37 -59 -47 -117t-10 -147l12 -391q0 -272 -252 -299
q118 -14 190 -99q64 -89 64 -207l-12 -387q0 -82 9 -140t45 -118q68 -112 306 -112z" />
    <glyph glyph-name="bar" unicode="|" horiz-adv-x="655" 
d="M420 -543h-184v2044h184v-2044z" />
    <glyph glyph-name="braceright" unicode="}" horiz-adv-x="876" 
d="M20 1516q-22 0 -22 36t22 35q574 0 574 -473l-12 -342q0 -136 44 -210t158 -73q23 1 23 -35t-23 -36q-116 0 -160 -74t-44 -209l14 -352q0 -211 -135 -340q-139 -127 -439 -127q-22 0 -22 34t22 34q238 0 308 116q35 64 44 122t9 140l-12 392q0 269 252 299
q-124 15 -189 98t-65 207l12 387q-1 73 -5 117t-26 100t-62 86q-88 68 -266 68z" />
    <glyph glyph-name="asciitilde" unicode="~" 
d="M745 453q-83 0 -227 87t-221 87q-98 0 -107 -103q-9 -45 -31 -45t-22 21q0 122 55 194t151 72t237 -78q149 -76 192 -76q129 0 129 123q0 6 9.5 5.5t19.5 -6.5t10 -9q0 -272 -195 -272z" />
    <glyph glyph-name="nbspace" unicode="&#xa0;" horiz-adv-x="454" 
 />
    <glyph glyph-name="exclamdown" unicode="&#xa1;" horiz-adv-x="702" 
d="M236 830q0 50 36 85t86 35t84 -36t35 -85q-1 -49 -35 -83t-84 -35q-50 0 -86 34q-36 35 -36 85zM356 -508q-142 0 -141 100q0 54 47 498t47 451q0 34 42 34t42 -22q-1 -57 55 -491t56 -480t-46 -68q-48 -22 -102 -22z" />
    <glyph glyph-name="cent" unicode="&#xa2;" horiz-adv-x="952" 
d="M322 750q0 -280 194 -357v715q-194 -41 -194 -358zM516 -43v279q-182 12 -312 137t-130 320t119 341q124 145 323 166v277q0 22 52 22t53 -22v-273q123 -10 193 -56t71 -116q0 -40 -25 -65q-30 -23 -60 -23t-55 21q-23 27 -30 48t-33 49t-61 38v-729q75 -1 137 33t88 94
q4 8 18 8t28 -12t13 -31q-81 -188 -284 -223v-283q-1 -23 -53 -23t-52 23z" />
    <glyph glyph-name="sterling" unicode="&#xa3;" horiz-adv-x="1296" 
d="M444 193q90 0 250 -37t207 -39q234 0 234 202q0 21 20 21q51 0 51 -164q0 -116 -68 -187t-198 -71t-348 87t-287 87t-119 -48t-86 -48q-65 0 -65 51q0 61 88 88q98 36 133 147t35 302q0 28 -4 98l-129 -6q-17 0 -17 52t17 52h125q0 23 -13 127q-8 136 -8 150
q0 207 128 327t382 119q206 -1 308 -65t102 -164q0 -115 -127 -115q-43 -1 -69 39t-42 90t-62 90t-122 41q-243 0 -264 -344q-7 -126 -11 -289l371 5q16 0 16 -53t-18 -56q-295 0 -379 2q-9 -158 -76 -314t-145 -214q100 37 190 37z" />
    <glyph glyph-name="currency" unicode="&#xa4;" horiz-adv-x="1144" 
d="M574 991q-122 -1 -182 -107t-60 -284t60 -284t178 -105q120 -1 182 107t63 283q0 175 -61 282q-58 108 -180 108zM1067 610q0 -131 -59 -235q-54 -106 -156 -178l207 -398q1 -13 -35 -23t-76 -9q-40 0 -43 12l-182 352q-77 -22 -157 -22t-154 24l-183 -354
q-3 -12 -40 -12t-83 8q-30 12 -30 24l205 400q-199 138 -199 411q0 124 53 221q47 100 141 175l-196 385q-3 7 10 10q16 8 33 8q14 4 61 4t58 -20l164 -320q78 33 162 33t163 -27l162 314q9 20 57 20t62 -4q26 0 35 -7.5t8 -10.5l-195 -377q207 -155 207 -404z" />
    <glyph glyph-name="yen" unicode="&#xa5;" horiz-adv-x="1572" 
d="M897 213q1 -91 41 -127t137 -39q4 -1 4 -27t-8 -26q-183 12 -319 12t-275 -8q-10 0 -10 26t10 25q91 6 133 45q41 41 41 123v109l-207 -2q-22 0 -22 43t10 43l221 2q0 155 2 190h-295q-16 0 -16 47t10 47l248 2q-76 134 -213 357q-142 220 -151 233q-41 59 -88 89t-64 32
q-4 -1 -4 29t10 30q264 -12 374 -12t241 8q6 0 6 -32t-11 -31q-22 0 -34 -4q-16 -1 -46 -11t-47 -30q-16 -20 -16 -47t19 -76q14 -51 54 -125t57 -109t45 -85t44 -78t33 -58t28 -49t17 -31q266 477 266 585t-143 108q-10 1 -10 37t14 36q111 -10 259 -10t226 10q13 0 13 -32
t-19 -39q-106 -18 -192 -142q-58 -81 -144 -225q-102 -161 -186 -326l258 2q12 0 12 -48t-12 -48l-295 -2l-4 -190h221q13 0 13 -42t-23 -42l-213 -2v-115z" />
    <glyph glyph-name="brokenbar" unicode="&#xa6;" horiz-adv-x="655" 
d="M420 760h-184v741h184v-741zM420 -543h-184v815h184v-815z" />
    <glyph glyph-name="section" unicode="&#xa7;" horiz-adv-x="1310" 
d="M974 386q-68 62 -112 98q-46 36 -208 146t-253 197q-89 89 -110 201q-88 -85 -88 -217t87 -231q88 -100 312 -252t297 -222q105 -99 131 -198q74 86 74 223t-130 255zM608 -569q-180 0 -272 71q-88 73 -88 158q0 100 96 100q75 0 102 -92q13 -32 30 -71t61 -66
q38 -27 117 -27q78 0 140 56t62 161q0 64 -35 136q-29 46 -60 75.5t-41 39.5t-69 52t-105 70q-46 27 -127 80t-109 72q-82 57 -165 176q-77 126 -77 272q0 236 219 393q3 175 119 283t290 109q174 0 262.5 -68t88.5 -154q0 -100 -97 -100q-41 1 -66 27t-33 50t-18.5 48
t-20.5 46t-50 52q-46 25 -116 25t-126 -53q-51 -54 -51 -156q0 -127 104 -209q95 -84 214.5 -152.5t187.5 -119.5t133 -117q135 -138 135 -344q0 -251 -205 -404q-3 -184 -129 -301q-121 -118 -301 -118z" />
    <glyph glyph-name="dieresis" unicode="&#xa8;" horiz-adv-x="804" 
d="M591.5 1120q-42.5 0 -77.5 35q-33 36 -33 86t33 86q35 35 77.5 35t76.5 -35t34 -86t-34 -86t-76.5 -35zM213 1120q-43 0 -78 35q-33 36 -33 86t33 86q35 35 78 35t78 -35q33 -36 33 -86t-33 -86q-35 -35 -78 -35z" />
    <glyph glyph-name="copyright" unicode="&#xa9;" horiz-adv-x="1718" 
d="M1257 373v-39q3 -21 3 -25q0 -14 -25 -14t-25 10q0 21 -16 21t-47 -17q-119 -67 -279 -67q-215 0 -344 147q-133 142 -133 360q-1 218 141 355t351 137q164 0 274 -67q15 -9 30 -9q15 -1 27 9t13 22q-1 12 23 12t24 -12q-4 -86 -4 -140t10 -173q0 -15 -24 -15t-25 13
q-65 293 -324 293q-131 0 -201 -114t-71 -302q1 -188 77 -316t203 -129q127 1 211 85t105 188q3 14 27 14t24 -14q-25 -128 -25 -213zM868 43q280 0 471 203q195 201 195 483t-195 483q-191 203 -471 203t-473.5 -203t-193.5 -483t193.5 -483t473.5 -203zM868 1509
q324 1 543 -229t219 -552t-219 -551q-219 -228 -543 -228t-553 227q-227 230 -227 553t227 553q229 227 553 227z" />
    <glyph glyph-name="ordfeminine" unicode="&#xaa;" horiz-adv-x="735" 
d="M631 872q13 0 39 18t32 17q6 0 11 -6q8 -3 8 -10q0 -40 -37 -80q-40 -37 -104 -37q-128 0 -134 135q-34 -59 -94 -99t-133 -40q-74 0 -117 37q-39 42 -39 102q0 87 89 169t288 122v68q0 70 -18 100q-20 29 -76 29t-88 -19q-30 -22 -44 -69t-73 -47t-59 59t65 98
q62 41 206 41t196 -43q55 -40 55 -145l-14 -332q0 -68 41 -68zM436 1053q0 20 4 114q-217 -67 -217 -204q0 -45 26 -69t62 -24q69 0 127 76v60q-2 27 -2 47z" />
    <glyph glyph-name="guillemotleft" unicode="&#xab;" horiz-adv-x="1265" 
d="M86 446q0 32 14 41l568 369q10 3 22 -12t12 -24t-4 -13l-346 -346l346 -379q4 -4 4 -14t-13 -24t-21 -11l-568 373q-14 8 -14 40zM569 446q0 32 15 41l567 369q11 4 23 -12t12 -24q0 -9 -4 -13l-346 -346l346 -379q4 -4 4 -13t-14 -24t-21 -12l-567 373q-15 8 -15 40z
" />
    <glyph glyph-name="logicalnot" unicode="&#xac;" horiz-adv-x="1054" 
d="M938 -102h-135v522h-692v145h827v-667z" />
    <glyph glyph-name="registered" unicode="&#xae;" horiz-adv-x="905" 
d="M391 1120h43q101 0 101 90t-93 90q-18 0 -24 -2h-25q-2 -23 -2 -178zM461 1341q88 0 137 -34q45 -39 45 -88t-34 -83t-97 -40q64 -64 86 -92l35 -43q51 -63 94 -66q53 87 53 217t-88 227q-92 95 -232 95t-226.5 -95t-86.5 -241t86 -238q83 -96 227 -96t240 92h-38
q-18 -2 -47 -2t-109 114t-88 115h-27q0 -30 -2 -71v-78q-1 -32 9 -44t40 -13q4 1 4 -11t-4 -12q-27 2 -100 2h-39q-13 -2 -29 -2t-16 6q0 17 4 17q26 3 32 17t5 54v170q-2 82 -2 132t-12 61q-9 6 -29 6q-2 0 -2 13t4 13l84 -4h63q27 2 60 2zM458 1497q170 1 287 -115
t117 -282t-117 -282t-287 -116t-293 116q-122 116 -122 280t121 282q124 117 294 117z" />
    <glyph glyph-name="degree" unicode="&#xb0;" horiz-adv-x="784" 
d="M229 1162q0 -134 46 -211q45 -77 115 -77t118 76q45 76 45 210t-45 208q-44 80 -117 80t-117 -78q-45 -74 -45 -208zM730.5 1163q-0.5 -151 -100.5 -255t-238 -103q-138 0 -240 104q-99 105 -99 254t99 254q102 105 240 105t238 -104q101 -104 100.5 -255z" />
    <glyph glyph-name="plusminus" unicode="&#xb1;" 
d="M950 156h-825v145h825v-145zM950 764h-334v-336h-151v336h-340v145h340v340h151v-340h334v-145z" />
    <glyph glyph-name="twosuperior" unicode="&#xb2;" horiz-adv-x="862" 
d="M670 1133q0 6 16 6t29 -4q-1 -15 -19 -154l-10 -66q0 -16 -16 -16h-607q-8 0 -8 27l4 10l7 12q175 120 277 214q183 170 183 390q0 112 -32 154t-108 43q-75 1 -114 -43t-39 -111q0 -118 78 -139q0 -18 -32 -24q-1 -35 -57 -35t-96 40t-40 111q0 108 86 185q82 79 227 79
t227 -65t81 -199q0 -134 -109 -254q-113 -119 -338 -270l301 10q49 0 79 26t30 73z" />
    <glyph glyph-name="threesuperior" unicode="&#xb3;" horiz-adv-x="784" 
d="M350 934q172 0 172 202q0 104 -35 146q-29 47 -105 47t-120 -47q-27 -27 -45 -27q-37 1 -37 41t34 51q122 39 204 95q45 26 61 69q19 43 19 107q0 136 -123 135q-65 0 -101 -40t-36 -93q0 -52 13 -72t13 -22q0 -19 -50 -19q-50 -1 -82 27q-30 28 -30 78q0 78 76 139
t216 61t209 -52t69 -142q0 -151 -260 -227l2 -15q140 3 214 -63q74 -65 74 -177t-98 -188t-268 -76q-116 0 -184 45t-68 117q0 78 82 78q67 0 67 -72q3 -106 117 -106z" />
    <glyph glyph-name="acute" unicode="&#xb4;" horiz-adv-x="624" 
d="M139 1038q-37 0 -37 27l4 12l218 363q14 24 106 24t92 -45q0 -18 -24 -39l-342 -333q-9 -9 -17 -9z" />
    <glyph glyph-name="paragraph" unicode="&#xb6;" horiz-adv-x="1110" 
d="M700 14q0 -18 -21 -18t-56 4l-84 2l-144 -4q-8 0 -8 25t8 28q81 9 107 41t26 78l4 309q3 76 0 129q-70 -6 -133 -6q-165 0 -261 116t-97 307q0 192 131 314q130 127 358 127q276 0 340 -8l70 -2q25 0 31 -6t6 -37l-4 -1235q0 -58 19 -90t81 -37q8 -3 8 -28t-8 -25l-127 4
l-112 -4q-23 0 -23 16t11 53q11 38 1 703l-2 594h-123l-12 -1253q0 -33 7 -59t7 -38z" />
    <glyph glyph-name="cedilla" unicode="&#xb8;" horiz-adv-x="673" 
d="M324 -147q105 0 176 -54q71 -55 71 -151q1 -96 -77 -158t-205 -63q-127 0 -180 86q-7 11 -7 23t10 20q10 10 18 10t13 -8q48 -60 120 -60q71 0 109 40t38 107q0 66 -31 105q-28 41 -81 41t-67 -39q-14 -33 -34 -33t-35 11q-12 12 -12 28t12 31q14 17 58.5 55.5
t94.5 155.5h82q-49 -87 -112 -150q12 3 39 3z" />
    <glyph glyph-name="onesuperior" unicode="&#xb9;" horiz-adv-x="862" 
d="M190 895v55q87 0 121 17q29 19 29 80v522q0 53 -33 53q-15 0 -51 -18v2q-104 -56 -141 -66q-13 0 -13 49l7 13q63 24 175 86t173 120q11 7 33 7t22 -13q0 -176 -4 -352l-2 -408q0 -56 31 -74t112 -18q0 -53 -2 -55l-207 4h-39l-153 -4h-58z" />
    <glyph glyph-name="ordmasculine" unicode="&#xba;" horiz-adv-x="806" 
d="M408 823q172 0 172 295q0 140 -48 217q-44 80 -129 80q-170 0 -170 -285q1 -148 47 -228t128 -79zM762 1122q0 -146 -105 -245t-258 -99t-253 100t-99 244q0 144 104 245q105 101 259 101t254 -100q98 -100 98 -246z" />
    <glyph glyph-name="guillemotright" unicode="&#xbb;" horiz-adv-x="1265" 
d="M86 69q0 9 4 13l348 346l-348 379q-4 4 -4 12t14 25q17 14 23 12l567 -373q15 -9 15 -41t-15 -41l-567 -368q-10 -3 -25 12q-12 15 -12 24zM569 70q0 8 4 12l349 346l-349 379q-4 3 -4 11t15 26q17 14 22 12l568 -373q14 -8 14 -41t-14 -41l-568 -368q-9 -3 -24 12
q-13 17 -13 25z" />
    <glyph glyph-name="onequarter" unicode="&#xbc;" horiz-adv-x="1763" 
d="M1492 1522q23 0 51 -12t28 -23q0 -17 -49 -72l-1096 -1423q-17 -17 -43 -17t-55 10q-29 11 -29 19t4 12l1141 1475q25 31 48 31zM221 644q0 28 6 28q89 0 121 16q29 19 29 80v522q0 32 -6 42t-29 11q-23 0 -74 -25q-110 -54 -119 -54t-11 24t5 31q69 27 179 90t172 121
q9 6 32 6t23 -12v-49q0 -162 -4 -324l-2 -389q0 -56 30 -74q32 -16 113 -16q4 0 4 -28t-6 -28l-225 5h-25l-207 -5q-6 0 -6 28zM1274 348v379q-20 -28 -124 -184t-122 -193q191 0 246 -2zM1149 -8q-8 0 -8 28t6 29q79 -1 103 21t24 94v92q-98 0 -176 -2h-176q-17 0 -17 21
t8 32l404 584q9 12 61 12t52 -14v-33q-7 -70 -7 -508q39 2 168 2q15 0 15 -48t-17 -48h-84q-37 2 -82 2v-98q1 -66 25 -88t94 -21q6 -1 6 -29t-6 -28q-45 0 -84 4l-108 2l-95 -2q-43 -4 -106 -4z" />
    <glyph glyph-name="onehalf" unicode="&#xbd;" horiz-adv-x="1763" 
d="M1418 1522q23 0 51 -12t28 -23q0 -17 -49 -72l-1096 -1423q-17 -17 -43 -17t-55 10q-29 11 -29 19t4 12l1141 1475q25 31 48 31zM182 644q0 28 6 28q90 0 120 18t30 78v522q0 32 -6 42t-29 11q-23 0 -74 -25q-110 -54 -119 -54q-8 0 -10 24t4 31q70 27 180 90t171 121
q9 6 32 6t23 -12v-49l-2 -324q-4 -164 -4 -389q0 -55 31 -74q32 -16 112 -16q4 0 4 -28t-6 -28l-225 5h-25l-207 -5q-6 0 -6 28zM1618 -4h-608q-9 0 -9 23t15 32q216 129 336 273t121 325q0 106 -31 154q-34 43 -105 43t-111 -40t-40 -99q0 -94 76 -158q0 -23 -28 -39
t-76 -16t-86 41q-40 41 -40 110q0 106 85 185t229 79t226 -65q82 -66 81 -200q0 -134 -109 -254t-334 -269q127 10 318 10q35 0 61 29q25 31 25 71q0 7 24 7t23 -10q1 -10 -1 -16q-2 -8 -3 -18t-2 -14l-21 -168q0 -16 -16 -16z" />
    <glyph glyph-name="threequarters" unicode="&#xbe;" horiz-adv-x="1763" 
d="M1493 1522q22 0 55 -11q25 -13 25 -27t-49 -69l-1096 -1423q-17 -17 -44 -17t-55 10q-28 11 -28 19t4 12l1141 1475q25 31 47 31zM432 655q172 0 172 198t-132 198q-68 0 -114 -37t-59 -37q-37 0 -37 40t34 51q122 39 204 95q80 46 80 179t-123 133q-67 1 -101 -39
t-34 -93t24 -94q0 -22 -49 -22t-82 26q-31 31 -31 80q0 79 76 140t212 61t212 -51q70 -58 70 -149t-92 -150q-12 -7 -39.5 -22.5t-48.5 -27.5t-78 -32q138 0 213 -66t75 -178t-98 -188t-243 -76t-211 44t-66 116q0 80 82 80q36 0 53 -27q18 -36 18 -62q6 -39 31 -61
q26 -29 82 -29zM1294 348v379q-20 -29 -121 -181t-124 -196q190 0 245 -2zM1169 -8q-8 0 -8 28t6 29q79 0 103 21t24 94v92q-98 0 -176 -2h-176q-16 0 -16 21t8 32l403 584q9 12 61 12t52 -14v-33q-6 -60 -6 -508q39 2 168 2q14 0 14 -48t-16 -48h-84q-37 2 -82 2v-98
q0 -67 24 -88t95 -21q6 -1 6 -29t-6 -28q-45 0 -84 4l-109 2l-94 -2q-43 -4 -107 -4z" />
    <glyph glyph-name="questiondown" unicode="&#xbf;" horiz-adv-x="987" 
d="M794.5 833.5q-0.5 -48.5 -34.5 -84.5t-84 -36q-50 -1 -86 35q-37 36 -36.5 86t36.5 85t86 35t85 -36q34 -36 33.5 -84.5zM334 -78q0 -134 62 -232t184 -98q155 0 182 144q12 71 90 71q34 0 56 -27t22 -71q0 -89 -103 -149q-100 -62 -272 -62q-227 0 -352 125t-125 296
t115 286q109 121 311 121q92 0 151 -47q-18 70 -18 272q0 33 37 33t37 -29q0 -99 10 -186q5 -89 15 -163t9 -93q0 -39 -38 -39q-11 0 -23 8q-6 8 -12 20l-4 29q-2 8 -10 59.5t-113 51.5t-158 -94q-53 -92 -53 -226z" />
    <glyph glyph-name="Agrave" unicode="&#xc0;" horiz-adv-x="1515" 
d="M-27 23q0 25 15 34q55 18 94 54q36 27 76 91t287 631q246 567 255 617q6 43 57 43t66 -43q33 -105 257 -654t270 -624q71 -115 163 -127q13 -3 13 -27t-10 -24l-121 6q-160 4 -203 4h-74l-266 -8q-10 0 -10 24t10 27q91 9 135 35q47 24 47 94q0 34 -19 73t-112 290
q-12 -2 -191 -2t-302 12q-131 -321 -131 -379t34 -88q39 -30 88 -33q21 1 21 -27t-16 -28l-228 10q-61 0 -108 -4l-80 -2q-17 0 -17 25zM643 631q165 0 225 -8q-63 142 -101 244q-39 102 -56.5 147t-31.5 83.5t-15 39.5l-224 -506h203zM410 1880q0 37 105 37t120 -21
l250 -313q4 -4 4 -10q0 -23 -41 -23q-3 0 -21 6l-391 289q-26 17 -26 35z" />
    <glyph glyph-name="Aacute" unicode="&#xc1;" horiz-adv-x="1515" 
d="M-27 23q0 25 15 34q55 18 94 54q36 27 76 91t287 631q246 567 255 617q6 43 57 43t66 -43q33 -105 257 -654t270 -624q71 -115 163 -127q13 -3 13 -27t-10 -24l-121 6q-160 4 -203 4h-74l-266 -8q-10 0 -10 24t10 27q91 9 135 35q47 24 47 94q0 34 -19 73t-112 290
q-12 -2 -191 -2t-302 12q-131 -321 -131 -379t34 -88q39 -30 88 -33q21 1 21 -27t-16 -28l-228 10q-61 0 -108 -4l-80 -2q-17 0 -17 25zM643 631q165 0 225 -8q-63 142 -101 244q-39 102 -56.5 147t-31.5 83.5t-15 39.5l-224 -506h203zM645 1550q-41 0 -41 23q0 6 4 10
l250 313q15 21 121 21t106 -37q0 -16 -28 -35l-391 -289q-18 -6 -21 -6z" />
    <glyph glyph-name="Acircumflex" unicode="&#xc2;" horiz-adv-x="1515" 
d="M-27 23q0 25 15 34q55 18 94 54q36 27 76 91t287 631q246 567 255 617q6 43 57 43t66 -43q33 -105 257 -654t270 -624q71 -115 163 -127q13 -3 13 -27t-10 -24l-121 6q-160 4 -203 4h-74l-266 -8q-10 0 -10 24t10 27q91 9 135 35q47 24 47 94q0 34 -19 73t-112 290
q-12 -2 -191 -2t-302 12q-131 -321 -131 -379t34 -88q39 -30 88 -33q21 1 21 -27t-16 -28l-228 10q-61 0 -108 -4l-80 -2q-17 0 -17 25zM643 631q165 0 225 -8q-63 142 -101 244q-39 102 -56.5 147t-31.5 83.5t-15 39.5l-224 -506h203zM474 1561q-12 0 -22 9q-14 12 -6.5 22
t15.5 22l241 297q8 14 48 14t53 -14l254 -322q0 -26 -33 -26q-14 0 -20 6l-263 186l-243 -186q-13 -8 -24 -8z" />
    <glyph glyph-name="Atilde" unicode="&#xc3;" horiz-adv-x="1515" 
d="M-27 23q0 25 15 34q55 18 94 54q36 27 76 91t287 631q246 567 255 617q6 43 57 43t66 -43q33 -105 257 -654t270 -624q71 -115 163 -127q13 -3 13 -27t-10 -24l-121 6q-160 4 -203 4h-74l-266 -8q-10 0 -10 24t10 27q91 9 135 35q47 24 47 94q0 34 -19 73t-112 290
q-12 -2 -191 -2t-302 12q-131 -321 -131 -379t34 -88q39 -30 88 -33q21 1 21 -27t-16 -28l-228 10q-61 0 -108 -4l-80 -2q-17 0 -17 25zM643 631q165 0 225 -8q-63 142 -101 244q-39 102 -56.5 147t-31.5 83.5t-15 39.5l-224 -506h203zM1055 1802q-1 -108 -49 -166t-119 -57
q-71 -1 -167 71t-132 72q-76 0 -76 -100q0 -35 -29 -35q-37 0 -37 43q0 101 58 156q53 59 126 59t160 -56t128 -56q83 0 83 88q0 22 27 22t27 -41z" />
    <glyph glyph-name="Adieresis" unicode="&#xc4;" horiz-adv-x="1515" 
d="M-27 23q0 25 15 34q55 18 94 54q36 27 76 91t287 631q246 567 255 617q6 43 57 43t66 -43q33 -105 257 -654t270 -624q71 -115 163 -127q13 -3 13 -27t-10 -24l-121 6q-160 4 -203 4h-74l-266 -8q-10 0 -10 24t10 27q91 9 135 35q47 24 47 94q0 34 -19 73t-112 290
q-12 -2 -191 -2t-302 12q-131 -321 -131 -379t34 -88q39 -30 88 -33q21 1 21 -27t-16 -28l-228 10q-61 0 -108 -4l-80 -2q-17 0 -17 25zM643 631q165 0 225 -8q-63 142 -101 244q-39 102 -56.5 147t-31.5 83.5t-15 39.5l-224 -506h203zM948.5 1592.5q-46.5 -0.5 -76.5 31.5
t-30 77t30 75t76 30t78 -30t31 -75q0 -46 -33 -75q-29 -33 -75.5 -33.5zM666 1700q0 -45 -33 -76t-79 -31q-46 -1 -76 31t-29 77q0 45 29.5 75t75.5 30t81 -30q31 -31 31 -76z" />
    <glyph glyph-name="Aring" unicode="&#xc5;" horiz-adv-x="1515" 
d="M-27 23q0 25 15 34q55 18 94 54q36 27 76 91t287 631q246 567 255 617q6 43 57 43t66 -43q33 -105 257 -654t270 -624q71 -115 163 -127q13 -3 13 -27t-10 -24l-121 6q-160 4 -203 4h-74l-266 -8q-10 0 -10 24t10 27q91 9 135 35q47 24 47 94q0 34 -19 73t-112 290
q-12 -2 -191 -2t-302 12q-131 -321 -131 -379t34 -88q39 -30 88 -33q21 1 21 -27t-16 -28l-228 10q-61 0 -108 -4l-80 -2q-17 0 -17 25zM643 631q165 0 225 -8q-63 142 -101 244q-39 102 -56.5 147t-31.5 83.5t-15 39.5l-224 -506h203zM752 1587q51 0 88 37q34 38 34 90
t-36 86t-88 35q-52 0 -86.5 -34.5t-34.5 -86.5t35 -90q37 -37 88 -37zM989 1718q1 -90 -69 -148t-169 -57q-99 -1 -167 57t-68 148t68 152t168 63q98 0 168 -61q69 -64 69 -154z" />
    <glyph glyph-name="AE" unicode="&#xc6;" horiz-adv-x="2072" 
d="M666 629q216 0 284 -6l-6 507q-234 -297 -416 -501h138zM1588 506q-34 0 -38 18q-9 125 -65 172q-57 54 -238 54h-35q2 -66 2 -271l-4 -270q0 -73 46 -107t167 -34q259 0 371 92q116 91 131 272q3 27 37 27t33 -15l-10 -389q0 -41 -11 -47q-5 -10 -99 -10t-327 2h-542
l-312 -8q-10 0 -10 28t10 29q130 0 191 41q65 38 65 166q0 207 -2 283q-168 -4 -291 -4t-194 6q-217 -266 -264 -355q-13 -29 -13 -54t18 -44t35 -22q56 -9 56 -50q0 -22 -16 -22q-35 0 -113 8t-135 8l-193 -10q-10 0 -10 18t20 27q2 4 8 8.5t14 12.5t81 53q83 59 119 95
t364 421q341 410 453 555q37 50 37 98t-58 78t-129 31q-8 1 -8 33t12 32q153 -10 271 -10h102q251 0 485 11.5t236 11.5q29 0 29 -35l-13 -314q0 -14 -25 -14t-28 10q-26 134 -104 199t-264 65q-106 0 -197 -8q0 -267 -19 -565q194 0 265 47q67 49 67 168q0 21 35 21t35 -23
q0 -15 -2 -31l-4 -211q0 -78 6 -170l6 -90q0 -18 -34 -18z" />
    <glyph glyph-name="Ccedilla" unicode="&#xc7;" horiz-adv-x="1579" 
d="M718 -281q-48 -1 -48 39q0 22 23 44q23 21 54.5 49.5t71.5 111.5q-323 3 -533 215t-210 551q0 340 230 554t542 214q272 0 446 -131q30 -23 54 -23q24 -1 46 21t21 43q0 14 30 14t30 -14q-9 -102 -9 -204t17 -275q0 -15 -30 -15t-30 15q-40 230 -178 362
q-140 131 -371 131q-231 1 -357 -187t-126 -496t139 -500q140 -187 394 -187q189 0 329 137q138 142 168 320q0 14 31 14t31 -14q-37 -234 -37 -297t4 -117q0 -14 -30 -14t-29 14q0 37 -43 37q-24 0 -72 -31q-175 -120 -379 -135q-50 -73 -92 -115q12 3 39 3q105 0 178 -54
q70 -55 70 -151t-78 -158q-78 -63 -205 -63t-180 86q-6 9 -6 22t9 22t18 9t14 -8q48 -60 120 -60t108 40q38 40 38 107q0 66 -31 105q-29 41 -81 41t-66 -39q-14 -33 -34 -33z" />
    <glyph glyph-name="Egrave" unicode="&#xc8;" horiz-adv-x="1441" 
d="M1008 1016q0 -13 -4 -49t-5 -149q0 -113 9 -302q0 -16 -36 -16t-36 18q-2 62 -12 95t-43 71q-69 59 -254 59h-35v-94l-4 -440q0 -73 46 -107t167 -34q255 0 367 90t130 274q2 27 38 27t36 -15l-10 -391q0 -39 -9 -48t-42 -9l-862 4h-82l-295 -8q-11 0 -11 30t11 29
q123 0 190 39q66 45 66 168q0 264 -4 522l-2 445q0 92 -51 134t-156 42q-9 -1 -9 31t13 32q137 -12 267 -12t303 4t295 9t161.5 6.5t57.5 2.5t20 1q28 0 28 -35l-12 -316q0 -14 -27 -14t-30 10q-26 144 -110 205t-286 61q-64 0 -176 -8q0 -286 -18 -571q206 0 276 46t70 165
q0 20 35 20t35 -22zM471 1880q0 37 105 37t120 -21l250 -313q4 -4 4 -10q0 -23 -41 -23q-2 0 -20 6l-391 289q-27 18 -27 35z" />
    <glyph glyph-name="Eacute" unicode="&#xc9;" horiz-adv-x="1441" 
d="M1008 1016q0 -13 -4 -49t-5 -149q0 -113 9 -302q0 -16 -36 -16t-36 18q-2 62 -12 95t-43 71q-69 59 -254 59h-35v-94l-4 -440q0 -73 46 -107t167 -34q255 0 367 90t130 274q2 27 38 27t36 -15l-10 -391q0 -39 -9 -48t-42 -9l-862 4h-82l-295 -8q-11 0 -11 30t11 29
q123 0 190 39q66 45 66 168q0 264 -4 522l-2 445q0 92 -51 134t-156 42q-9 -1 -9 31t13 32q137 -12 267 -12t303 4t295 9t161.5 6.5t57.5 2.5t20 1q28 0 28 -35l-12 -316q0 -14 -27 -14t-30 10q-26 144 -110 205t-286 61q-64 0 -176 -8q0 -286 -18 -571q206 0 276 46t70 165
q0 20 35 20t35 -22zM655 1550q-41 0 -41 23q0 6 4 10l250 313q16 21 122 21t106 -37q0 -16 -29 -35l-391 -289q-18 -6 -21 -6z" />
    <glyph glyph-name="Ecircumflex" unicode="&#xca;" horiz-adv-x="1441" 
d="M1008 1016q0 -13 -4 -49t-5 -149q0 -113 9 -302q0 -16 -36 -16t-36 18q-2 62 -12 95t-43 71q-69 59 -254 59h-35v-94l-4 -440q0 -73 46 -107t167 -34q255 0 367 90t130 274q2 27 38 27t36 -15l-10 -391q0 -39 -9 -48t-42 -9l-862 4h-82l-295 -8q-11 0 -11 30t11 29
q123 0 190 39q66 45 66 168q0 264 -4 522l-2 445q0 92 -51 134t-156 42q-9 -1 -9 31t13 32q137 -12 267 -12t303 4t295 9t161.5 6.5t57.5 2.5t20 1q28 0 28 -35l-12 -316q0 -14 -27 -14t-30 10q-26 144 -110 205t-286 61q-64 0 -176 -8q0 -286 -18 -571q206 0 276 46t70 165
q0 20 35 20t35 -22zM492 1561q-10 0 -20 9q-10 10 -10 14t2 7.5t6.5 10t8.5 12.5l242 297q8 14 47 14t53 -14l254 -322q0 -26 -33 -26q-14 0 -20 6l-262 186l-244 -186q-14 -8 -24 -8z" />
    <glyph glyph-name="Edieresis" unicode="&#xcb;" horiz-adv-x="1441" 
d="M1008 1016q0 -13 -4 -49t-5 -149q0 -113 9 -302q0 -16 -36 -16t-36 18q-2 62 -12 95t-43 71q-69 59 -254 59h-35v-94l-4 -440q0 -73 46 -107t167 -34q255 0 367 90t130 274q2 27 38 27t36 -15l-10 -391q0 -39 -9 -48t-42 -9l-862 4h-82l-295 -8q-11 0 -11 30t11 29
q123 0 190 39q66 45 66 168q0 264 -4 522l-2 445q0 92 -51 134t-156 42q-9 -1 -9 31t13 32q137 -12 267 -12t303 4t295 9t161.5 6.5t57.5 2.5t20 1q28 0 28 -35l-12 -316q0 -14 -27 -14t-30 10q-26 144 -110 205t-286 61q-64 0 -176 -8q0 -286 -18 -571q206 0 276 46t70 165
q0 20 35 20t35 -22zM1092 1701q0 -44 -32 -76t-78 -32q-46 -1 -76 31t-29 77q0 45 30.5 75t74.5 30t79 -30q31 -31 31 -75zM589 1593q-46 0 -76 32t-30 76q1 45 31 75t77 30t78 -29t31 -76t-32 -75q-33 -33 -79 -33z" />
    <glyph glyph-name="Igrave" unicode="&#xcc;" horiz-adv-x="923" 
d="M801 20q0 -26 -10 -26q-229 8 -355 8t-321 -8q-9 0 -9 26t9 27q121 13 165 43t44 133l-5 1032q0 80 -46 114t-169 34q-8 -1 -8 29t13 30q140 -10 358 -10l350 8q8 0 8 -28t-8 -29q-127 1 -169 -39t-42 -143l-12 -1004q0 -99 44 -133t157 -37q6 -1 6 -27zM184 1880
q0 37 106 37t120 -21l249 -313q5 -5 5 -10q0 -23 -41 -23q-3 0 -21 6l-391 289q-27 18 -27 35z" />
    <glyph glyph-name="Iacute" unicode="&#xcd;" horiz-adv-x="923" 
d="M801 20q0 -26 -10 -26q-229 8 -355 8t-321 -8q-9 0 -9 26t9 27q121 13 165 43t44 133l-5 1032q0 80 -46 114t-169 34q-8 -1 -8 29t13 30q140 -10 358 -10l350 8q8 0 8 -28t-8 -29q-127 1 -169 -39t-42 -143l-12 -1004q0 -99 44 -133t157 -37q6 -1 6 -27zM328 1550
q-41 0 -41 23q0 6 4 10l250 313q15 21 121 21t106 -37q0 -16 -29 -35l-391 -289q-18 -6 -20 -6z" />
    <glyph glyph-name="Icircumflex" unicode="&#xce;" horiz-adv-x="923" 
d="M801 20q0 -26 -10 -26q-229 8 -355 8t-321 -8q-9 0 -9 26t9 27q121 13 165 43t44 133l-5 1032q0 80 -46 114t-169 34q-8 -1 -8 29t13 30q140 -10 358 -10l350 8q8 0 8 -28t-8 -29q-127 1 -169 -39t-42 -143l-12 -1004q0 -99 44 -133t157 -37q6 -1 6 -27zM179 1561
q-11 0 -21 9q-14 12 -7 22t15 22l242 297q8 14 47 14t53 -14l254 -322q0 -26 -33 -26q-14 0 -20 6l-263 186l-243 -186q-13 -8 -24 -8z" />
    <glyph glyph-name="Idieresis" unicode="&#xcf;" horiz-adv-x="923" 
d="M801 20q0 -26 -10 -26q-229 8 -355 8t-321 -8q-9 0 -9 26t9 27q121 13 165 43t44 133l-5 1032q0 80 -46 114t-169 34q-8 -1 -8 29t13 30q140 -10 358 -10l350 8q8 0 8 -28t-8 -29q-127 1 -169 -39t-42 -143l-12 -1004q0 -99 44 -133t157 -37q6 -1 6 -27zM658 1593
q-46 0 -77 32q-30 32 -30 76q1 45 31 75t76 30t76 -30q32 -30 32 -75q0 -46 -33 -75q-29 -33 -75 -33zM375 1700q0 -45 -33 -76t-79 -31q-45 -1 -75 31t-30 77t30 75t76 30t80 -30q31 -31 31 -76z" />
    <glyph glyph-name="Eth" unicode="&#xd0;" horiz-adv-x="1712" 
d="M592 307q0 -134 65 -196q67 -58 211 -58q455 0 455 664q0 203 -78 381q-48 94 -106 155q-59 61 -153 101t-208 41q-114 0 -176 -21q0 -176 -6 -563l262 2q12 1 12 -63t-12 -64l-262 -4q-1 -94 -2 -116l-1 -136q-1 -112 -1 -123zM84 22q0 26 10 25q140 13 186 55t46 183
v395l-211 -2q-11 0 -11 64t11 63l209 2q-2 117 -2 420q0 99 -50 137t-168 37q-8 1 -8 31t13 30q205 -10 311 -10l395 8q209 0 361 -63q166 -64 254 -168q194 -211 194 -508q0 -353 -200 -541t-550 -188q-165 0 -290 7t-181 7l-311 -10q-8 0 -8 26z" />
    <glyph glyph-name="Ntilde" unicode="&#xd1;" horiz-adv-x="1775" 
d="M1397 -25q-16 0 -35 29q-72 108 -440 566t-500 599q-3 -205 1 -409t5 -280.5t1.5 -112.5t0.5 -41q0 -138 49 -199q46 -64 213 -82q6 -5 6 -29t-12 -24q-76 8 -248 8t-350 -8q-8 0 -8 28t8 29q138 0 182 53q47 50 47 181l23 911q0 80 -66 137q-63 63 -200 72q-6 1 -6 31
t10 30q147 -10 276 -10h133q29 2 49 2t31 -18l25 -31q257 -301 469 -567q261 -318 321 -422v774q0 116 -50 166t-177 53q-8 1 -8 27t12 26q176 -12 291 -12t248 8q8 0 8 -32t-8 -31q-103 0 -160 -45q-55 -49 -55 -170l-15 -650v-172l5 -354q0 -31 -76 -31zM1210 1802
q0 -108 -48 -166t-120 -57q-71 -1 -167 71t-132 72q-75 0 -75 -100q0 -35 -29 -35q-37 0 -37 43q0 102 57 156q53 59 126 59t160 -56t128 -56q84 0 84 88q1 22 27 22t26 -41z" />
    <glyph glyph-name="Ograve" unicode="&#xd2;" horiz-adv-x="1806" 
d="M904 33q232 0 366 184q131 185 131 491t-141 509q-142 198 -365 198t-358 -194q-140 -195 -140 -508t140 -496q135 -184 367 -184zM1724 722q0 -322 -239 -542q-243 -217 -598 -217t-584 209q-225 212 -225 540t240 557q240 228 588 228t581 -227q237 -226 237 -548z
M655 1880q-1 37 105 37t121 -21l249 -313q5 -5 5 -10q0 -23 -41 -23q-3 0 -21 6l-391 289q-27 18 -27 35z" />
    <glyph glyph-name="Oacute" unicode="&#xd3;" horiz-adv-x="1806" 
d="M904 33q232 0 366 184q131 185 131 491t-141 509q-142 198 -365 198t-358 -194q-140 -195 -140 -508t140 -496q135 -184 367 -184zM1724 722q0 -322 -239 -542q-243 -217 -598 -217t-584 209q-225 212 -225 540t240 557q240 228 588 228t581 -227q237 -226 237 -548z
M727 1550q-41 0 -41 23q0 6 4 10l250 313q15 21 121 21t106 -37q0 -16 -28 -35l-391 -289q-18 -6 -21 -6z" />
    <glyph glyph-name="Ocircumflex" unicode="&#xd4;" horiz-adv-x="1806" 
d="M904 33q232 0 366 184q131 185 131 491t-141 509q-142 198 -365 198t-358 -194q-140 -195 -140 -508t140 -496q135 -184 367 -184zM1724 722q0 -322 -239 -542q-243 -217 -598 -217t-584 209q-225 212 -225 540t240 557q240 228 588 228t581 -227q237 -226 237 -548z
M628 1561q-10 0 -22 9q-10 10 -10 14t2.5 7.5t7 10t8.5 12.5l242 297q8 14 47 14t53 -14l254 -322q0 -26 -32 -26q-15 0 -21 6l-262 186l-244 -186q-13 -8 -23 -8z" />
    <glyph glyph-name="Otilde" unicode="&#xd5;" horiz-adv-x="1806" 
d="M904 33q232 0 366 184q131 185 131 491t-141 509q-142 198 -365 198t-358 -194q-140 -195 -140 -508t140 -496q135 -184 367 -184zM1724 722q0 -322 -239 -542q-243 -217 -598 -217t-584 209q-225 212 -225 540t240 557q240 228 588 228t581 -227q237 -226 237 -548z
M1206 1802q0 -108 -48 -166t-120 -57q-71 -1 -167 71t-132 72q-75 0 -75 -100q0 -35 -29 -35q-37 0 -37 43q0 102 57 156q53 59 126 59t160 -56t128 -56q84 0 84 88q1 22 27 22t26 -41z" />
    <glyph glyph-name="Odieresis" unicode="&#xd6;" horiz-adv-x="1806" 
d="M904 33q232 0 366 184q131 185 131 491t-141 509q-142 198 -365 198t-358 -194q-140 -195 -140 -508t140 -496q135 -184 367 -184zM1724 722q0 -322 -239 -542q-243 -217 -598 -217t-584 209q-225 212 -225 540t240 557q240 228 588 228t581 -227q237 -226 237 -548z
M1100 1593q-47 0 -77 32t-30 76q1 45 31 75t76 30t77 -29t31 -76t-32 -75q-29 -33 -76 -33zM817 1700q0 -45 -33 -76q-32 -31 -78 -31t-76 32t-30 76q0 45 30 75t76 30t80 -30q31 -31 31 -76z" />
    <glyph glyph-name="multiply" unicode="&#xd7;" 
d="M827 221l-288 289l-293 -291l-103 103l293 292l-293 293l105 105l293 -291l290 289l103 -103l-291 -291l291 -288z" />
    <glyph glyph-name="Oslash" unicode="&#xd8;" horiz-adv-x="1806" 
d="M922 33q214 0 348 184q131 190 131 496q0 251 -105 432l-723 -971q135 -141 349 -141zM878 1415q-208 0 -341 -192q-140 -192 -140 -482t103 -467l723 983q-137 158 -345 158zM1724 725q0 -324 -240 -542t-595 -218q-229 0 -404 88l-196 -266q-6 -6 -23 -6t-53 22
q-31 22 -31 41v6l199 265q-303 216 -303 610q0 324 240 548t583 224q220 0 420 -108l158 213q11 14 41 14t69 -10q31 -12 31 -27v-4q-35 -56 -107 -147q-72 -90 -86 -109q297 -234 297 -594z" />
    <glyph glyph-name="Ugrave" unicode="&#xd9;" horiz-adv-x="1789" 
d="M884 -37q-275 0 -433 143t-158 394l10 729q0 176 -219 176q-8 -1 -8 29t12 30q150 -12 326 -12t383 10q8 0 8 -28t-8 -29q-167 -11 -196 -103q-15 -47 -15 -114v-148l-4 -307v-248q0 -180 110 -275t296 -95q186 -1 298 103q111 104 111 269q0 330 -5.5 533.5t-5.5 208.5
q0 83 -63 131q-64 45 -160 45q-6 -1 -6 29t10 30q137 -12 231 -12t316 10q8 0 8 -28t-8 -29q-102 -6 -158 -53q-51 -48 -51 -164l-8 -727q0 -208 -170 -350q-168 -148 -443 -148zM666 1880q0 37 105 37t120 -21l250 -313q4 -4 4 -10q0 -23 -41 -23q-3 0 -21 6l-391 289
q-26 17 -26 35z" />
    <glyph glyph-name="Uacute" unicode="&#xda;" horiz-adv-x="1789" 
d="M884 -37q-275 0 -433 143t-158 394l10 729q0 176 -219 176q-8 -1 -8 29t12 30q150 -12 326 -12t383 10q8 0 8 -28t-8 -29q-167 -11 -196 -103q-15 -47 -15 -114v-148l-4 -307v-248q0 -180 110 -275t296 -95q186 -1 298 103q111 104 111 269q0 330 -5.5 533.5t-5.5 208.5
q0 83 -63 131q-64 45 -160 45q-6 -1 -6 29t10 30q137 -12 231 -12t316 10q8 0 8 -28t-8 -29q-102 -6 -158 -53q-51 -48 -51 -164l-8 -727q0 -208 -170 -350q-168 -148 -443 -148zM850 1550q-41 0 -41 23q0 6 4 10l250 313q15 21 121 21t106 -37q0 -16 -28 -35l-392 -289
q-18 -6 -20 -6z" />
    <glyph glyph-name="Ucircumflex" unicode="&#xdb;" horiz-adv-x="1789" 
d="M884 -37q-275 0 -433 143t-158 394l10 729q0 176 -219 176q-8 -1 -8 29t12 30q150 -12 326 -12t383 10q8 0 8 -28t-8 -29q-167 -11 -196 -103q-15 -47 -15 -114v-148l-4 -307v-248q0 -180 110 -275t296 -95q186 -1 298 103q111 104 111 269q0 330 -5.5 533.5t-5.5 208.5
q0 83 -63 131q-64 45 -160 45q-6 -1 -6 29t10 30q137 -12 231 -12t316 10q8 0 8 -28t-8 -29q-102 -6 -158 -53q-51 -48 -51 -164l-8 -727q0 -208 -170 -350q-168 -148 -443 -148zM707 1561q-11 1 -21 9t-10 13t2.5 8.5t7 10t8.5 12.5l242 297q8 14 47 14t53 -14l254 -322
q0 -26 -33 -26q-14 0 -20 6l-262 186l-244 -186q-13 -8 -24 -8z" />
    <glyph glyph-name="Udieresis" unicode="&#xdc;" horiz-adv-x="1789" 
d="M884 -37q-275 0 -433 143t-158 394l10 729q0 176 -219 176q-8 -1 -8 29t12 30q150 -12 326 -12t383 10q8 0 8 -28t-8 -29q-167 -11 -196 -103q-15 -47 -15 -114v-148l-4 -307v-248q0 -180 110 -275t296 -95q186 -1 298 103q111 104 111 269q0 330 -5.5 533.5t-5.5 208.5
q0 83 -63 131q-64 45 -160 45q-6 -1 -6 29t10 30q137 -12 231 -12t316 10q8 0 8 -28t-8 -29q-102 -6 -158 -53q-51 -48 -51 -164l-8 -727q0 -208 -170 -350q-168 -148 -443 -148zM1174 1593q-46 0 -77 32q-30 32 -30 76q1 45 31 75t76 30t76 -30q32 -30 32 -75
q0 -46 -33 -75q-29 -33 -75 -33zM891 1700q0 -45 -33 -76q-32 -31 -78 -31t-76 32t-30 76q0 45 30 75t76 30t80 -30q31 -31 31 -76z" />
    <glyph glyph-name="Yacute" unicode="&#xdd;" horiz-adv-x="1572" 
d="M909 265q0 -133 45 -175q46 -40 158 -43q6 -1 6 -27t-10 -26q-205 12 -358 12t-312 -8q-10 0 -10 26t10 25q107 6 154 47t47 148q0 275 2 334q-104 188 -264 417q-159 237 -205 289q-104 122 -172 125q-6 -1 -6 27t12 28q296 -12 418 -12t270 8q6 0 6 -28t-10 -29
q-162 0 -162 -98q0 -27 26 -85t56 -106q40 -72 66 -110t57 -87t71 -111t64 -101q297 473 297 581q0 115 -159 115q-13 1 -13 31t17 30q120 -10 287 -10t259 10q13 0 13 -30t-19 -37q-120 -18 -219 -144q-49 -55 -193 -265t-220 -370q-9 -218 -9 -351zM733 1550q-41 0 -41 23
q0 6 4 10l250 313q16 21 122 21t106 -37q0 -16 -29 -35l-391 -289q-18 -6 -21 -6z" />
    <glyph glyph-name="Thorn" unicode="&#xde;" horiz-adv-x="1413" 
d="M727 420q336 0 336 330q1 188 -101 270t-253 82q-64 0 -105 -8l-8 -672q20 -2 131 -2zM825 1430q0 -30 -8 -29q-125 -1 -168 -39t-43 -141v-58q172 6 225 6q250 0 386 -112q133 -117 133 -287t-144 -291t-467 -121q-49 0 -145 7v-146q0 -99 44 -133t157 -37q6 -1 6 -27
t-10 -26q-229 8 -334 8l-342 -8q-9 0 -9 26t9 27q125 9 167 41t42 135l-5 1030q0 77 -45 113q-51 33 -170 33q-8 1 -8 31t13 30q140 -10 358 -10l350 8q8 0 8 -30z" />
    <glyph glyph-name="germandbls" unicode="&#xdf;" horiz-adv-x="1255" 
d="M96 784q-12 0 -12 29t12 29q71 9 93 31t22 77q0 163 14 246q24 153 140 240q118 86 295 86t272 -64q92 -68 92 -180q0 -72 -38 -118t-88 -86q-51 -40 -73 -58l-22 -17q-55 -55 -55 -101t33 -86q45 -55 108 -99q63 -45 65 -49q4 0 9 -5q119 -86 182 -172t63 -196
q0 -165 -105 -245t-242 -79q-137 -1 -199 51t-62 125q0 45 23 68q19 25 61 25t62 -35q21 -35 24 -69q4 -34 26 -68q22 -35 82 -35t100 46t40 122t-42 130t-121 115q-78 61 -123 101q-46 39 -82 107t-36 121t4 65q0 22 13 45q8 30 39 82q20 26 22 32t28.5 42.5t35.5 45.5
q61 79 61 169t-45 138q-45 46 -119 46q-39 0 -71 -11q-48 -8 -95 -73q-17 -26 -25 -60t-18 -68t-10 -81q-4 -35 -4 -78v-84q-2 -39 -2 -78v-155q0 -572 10 -687q6 -34 6 -41q0 -22 -22 -22h-16q-80 6 -138 6l-168 -4q-8 0 -8 21t8 24q111 18 111 109l10 630h-125z" />
    <glyph glyph-name="agrave" unicode="&#xe0;" horiz-adv-x="1030" 
d="M806 -29q-173 0 -179 189q-47 -87 -132 -140t-189 -53t-160 52t-56 143q0 128 124 238t407 169v97q0 96 -27 145q-28 45 -109 45t-120 -33q-43 -32 -64 -102q-9 -28 -37 -48t-61.5 -20t-58.5 22t-25 64q0 75 90 138q91 57 289 57t278 -57q76 -61 76 -207q0 -23 -8 -199
q-10 -136 -10 -276q0 -93 60 -93t81 50q3 6 11 6t18 -6t10 -17q0 -10 -15 -53q-19 -36 -65 -74t-128 -37zM317 254q0 -82 35 -111q27 -34 86 -34q98 0 180 104q-3 163 0 309q-161 -46 -231 -116t-70 -152zM266 1419q0 45 94 45t103 -24l219 -363l4 -12q0 -27 -37 -27
q-6 0 -18 9l-340 333q-25 22 -25 39z" />
    <glyph glyph-name="aacute" unicode="&#xe1;" horiz-adv-x="1030" 
d="M806 -29q-173 0 -179 189q-47 -87 -132 -140t-189 -53t-160 52t-56 143q0 128 124 238t407 169v97q0 96 -27 145q-28 45 -109 45t-120 -33q-43 -32 -64 -102q-9 -28 -37 -48t-61.5 -20t-58.5 22t-25 64q0 75 90 138q91 57 289 57t278 -57q76 -61 76 -207q0 -23 -8 -199
q-10 -136 -10 -276q0 -93 60 -93t81 50q3 6 11 6t18 -6t10 -17q0 -10 -15 -53q-19 -36 -65 -74t-128 -37zM317 254q0 -82 35 -111q27 -34 86 -34q98 0 180 104q-3 163 0 309q-161 -46 -231 -116t-70 -152zM377 1038q-37 0 -37 27l4 12l217 363q15 24 107 24t92 -45
q0 -17 -25 -39l-342 -333q-9 -9 -16 -9z" />
    <glyph glyph-name="acircumflex" unicode="&#xe2;" horiz-adv-x="1030" 
d="M806 -29q-173 0 -179 189q-47 -87 -132 -140t-189 -53t-160 52t-56 143q0 128 124 238t407 169v97q0 96 -27 145q-28 45 -109 45t-120 -33q-43 -32 -64 -102q-9 -28 -37 -48t-61.5 -20t-58.5 22t-25 64q0 75 90 138q91 57 289 57t278 -57q76 -61 76 -207q0 -23 -8 -199
q-10 -136 -10 -276q0 -93 60 -93t81 50q3 6 11 6t18 -6t10 -17q0 -10 -15 -53q-19 -36 -65 -74t-128 -37zM317 254q0 -82 35 -111q27 -34 86 -34q98 0 180 104q-3 163 0 309q-161 -46 -231 -116t-70 -152zM256 1040q-33 0 -33 31l17 33l231 350q10 16 47 16t47 -16l230 -350
q2 -3 14 -31q0 -31 -33 -31q-9 0 -16 7l-252 227l-234 -227q-12 -9 -18 -9z" />
    <glyph glyph-name="atilde" unicode="&#xe3;" horiz-adv-x="1030" 
d="M806 -29q-173 0 -179 189q-47 -87 -132 -140t-189 -53t-160 52t-56 143q0 128 124 238t407 169v97q0 96 -27 145q-28 45 -109 45t-120 -33q-43 -32 -64 -102q-9 -28 -37 -48t-61.5 -20t-58.5 22t-25 64q0 75 90 138q91 57 289 57t278 -57q76 -61 76 -207q0 -23 -8 -199
q-10 -136 -10 -276q0 -93 60 -93t81 50q3 6 11 6t18 -6t10 -17q0 -10 -15 -53q-19 -36 -65 -74t-128 -37zM317 254q0 -82 35 -111q27 -34 86 -34q98 0 180 104q-3 163 0 309q-161 -46 -231 -116t-70 -152zM799 1323q1 -111 -49 -169t-120 -58t-159 72t-123 73
q-76 0 -76 -102q0 -35 -28 -35q-37 0 -37 43q0 99 55 160q59 59 133 59t146 -57q79 -58 110 -58q94 0 94 92q0 21 27 21t27 -41z" />
    <glyph glyph-name="adieresis" unicode="&#xe4;" horiz-adv-x="1030" 
d="M806 -29q-173 0 -179 189q-47 -87 -132 -140t-189 -53t-160 52t-56 143q0 128 124 238t407 169v97q0 96 -27 145q-28 45 -109 45t-120 -33q-43 -32 -64 -102q-9 -28 -37 -48t-61.5 -20t-58.5 22t-25 64q0 75 90 138q91 57 289 57t278 -57q76 -61 76 -207q0 -23 -8 -199
q-10 -136 -10 -276q0 -93 60 -93t81 50q3 6 11 6t18 -6t10 -17q0 -10 -15 -53q-19 -36 -65 -74t-128 -37zM317 254q0 -82 35 -111q27 -34 86 -34q98 0 180 104q-3 163 0 309q-161 -46 -231 -116t-70 -152zM702 1120q-42 0 -77 35q-33 36 -33 86t33 86q35 35 77 35t78 -35
q33 -36 33 -86t-33 -86q-36 -35 -78 -35zM324 1120q-42 0 -78 35q-33 36 -33 86t33 86q36 35 78 35t77 -35q33 -36 33 -86t-33 -86q-35 -35 -77 -35z" />
    <glyph glyph-name="aring" unicode="&#xe5;" horiz-adv-x="1030" 
d="M806 -29q-173 0 -179 189q-47 -87 -132 -140t-189 -53t-160 52t-56 143q0 128 124 238t407 169v97q0 96 -27 145q-28 45 -109 45t-120 -33q-43 -32 -64 -102q-9 -28 -37 -48t-61.5 -20t-58.5 22t-25 64q0 75 90 138q91 57 289 57t278 -57q76 -61 76 -207q0 -23 -8 -199
q-10 -136 -10 -276q0 -93 60 -93t81 50q3 6 11 6t18 -6t10 -17q0 -10 -15 -53q-19 -36 -65 -74t-128 -37zM317 254q0 -82 35 -111q27 -34 86 -34q98 0 180 104q-3 163 0 309q-161 -46 -231 -116t-70 -152zM387.5 1238q-0.5 -52 36.5 -90t89 -38t89 38t37 90.5t-37 92.5
q-38 39 -90 39t-88 -40t-36.5 -92zM514 1462q97 0 162 -64t65 -154q0 -92 -67 -159q-69 -63 -161 -63t-161 63q-67 67 -67 159t67 153q65 65 162 65z" />
    <glyph glyph-name="ae" unicode="&#xe6;" horiz-adv-x="1503" 
d="M1079 864q-174 0 -235 -217q85 0 180 7t137 9t57 11t15 45q0 145 -154 145zM1073 -35q-289 0 -414 223q-127 -219 -362 -219q-101 1 -153 59t-52 148q0 120 129 236t406 168q8 41 8 90q0 188 -156 188q-72 0 -114 -33q-42 -39 -64 -106q-10 -29 -39 -47q-31 -17 -62 -17
t-56 22t-25 64q0 77 88 135q89 58 305 58t272 -121q127 121 304 121q178 0 270 -98t92 -207q0 -25 -8 -33t-31 -8q-377 0 -577 8q-9 -40 -9 -92q1 -184 87 -294t243 -110t221 101q6 8 18 8t25 -10t13 -23v-4q-106 -207 -359 -207zM606 392q0 84 10 143q-301 -85 -301 -291
q0 -61 34 -98t87 -37q120 0 203 129q-33 70 -33 154z" />
    <glyph glyph-name="ccedilla" unicode="&#xe7;" horiz-adv-x="944" 
d="M582 934q139 0 221 -48t82 -124q0 -41 -25 -66q-28 -22 -62 -22t-60 30t-38 62q-48 92 -143 92q-235 0 -235 -379q0 -196 81 -286q81 -97 203 -97q76 0 144 34t94 91q3 8 16 8t25 -12q14 -8 14 -24q-29 -99 -118 -158t-201 -68q-50 -74 -93 -117q12 3 39 3q106 0 177 -54
q71 -53 71 -149t-78 -162q-80 -61 -206 -61t-179 86q-6 9 -6 22t9 22t18 9t14 -8q48 -60 120 -60t108 40q38 40 38 108q0 67 -30 104q-28 41 -81 41t-67 -39q-14 -33 -34 -33t-35 11q-13 13 -13 29t16 33t21 24q19 15 45 42t68 109q-180 15 -304 139t-124 327q0 202 139 353
q142 148 369 148z" />
    <glyph glyph-name="egrave" unicode="&#xe8;" horiz-adv-x="974" 
d="M295 1419q0 45 94 45t103 -24l219 -363l4 -12q0 -27 -37 -27q-7 0 -19 9l-340 333q-24 21 -24 39zM551 864q-175 0 -236 -217q85 0 180 7t137 9t58 11t15 45q0 145 -154 145zM563 934q173 0 266 -99t93 -206q0 -25 -8 -33t-31 -8q-378 0 -578 8q-8 -36 -8 -92
q1 -184 87 -294t242 -110t222 101q6 8 18 8q12 1 24 -9t13 -24q-91 -211 -358 -211q-209 0 -339 119t-130 336t133 362q128 152 354 152z" />
    <glyph glyph-name="eacute" unicode="&#xe9;" horiz-adv-x="974" 
d="M406 1038q-37 0 -37 27l4 12l217 363q14 24 106 24t92 -45q0 -18 -24 -39l-342 -333q-9 -9 -16 -9zM551 864q-175 0 -236 -217q85 0 180 7t137 9t58 11t15 45q0 145 -154 145zM563 934q173 0 266 -99t93 -206q0 -25 -8 -33t-31 -8q-378 0 -578 8q-8 -36 -8 -92
q1 -184 87 -294t242 -110t222 101q6 8 18 8q12 1 24 -9t13 -24q-91 -211 -358 -211q-209 0 -339 119t-130 336t133 362q128 152 354 152z" />
    <glyph glyph-name="ecircumflex" unicode="&#xea;" horiz-adv-x="974" 
d="M293 1040q-33 0 -33 31l16 33l232 350q10 16 47 16t47 -16l229 -350q5 -7 15 -31q0 -31 -33 -31q-9 0 -16 7l-252 227l-234 -227q-12 -9 -18 -9zM551 864q-175 0 -236 -217q85 0 180 7t137 9t58 11t15 45q0 145 -154 145zM563 934q173 0 266 -99t93 -206q0 -25 -8 -33
t-31 -8q-378 0 -578 8q-8 -36 -8 -92q1 -184 87 -294t242 -110t222 101q6 8 18 8q12 1 24 -9t13 -24q-91 -211 -358 -211q-209 0 -339 119t-130 336t133 362q128 152 354 152z" />
    <glyph glyph-name="edieresis" unicode="&#xeb;" horiz-adv-x="974" 
d="M744 1120q-42 0 -78 35q-33 36 -33 86t33 86q36 35 78 35t77 -35q33 -36 33 -86t-33 -86q-35 -35 -77 -35zM364 1120q-42 0 -77 35q-33 36 -33 86t33 86q35 35 77 35t78 -35q33 -36 33 -86t-33 -86q-36 -35 -78 -35zM551 864q-175 0 -236 -217q85 0 180 7t137 9t58 11
t15 45q0 145 -154 145zM563 934q173 0 266 -99t93 -206q0 -25 -8 -33t-31 -8q-378 0 -578 8q-8 -36 -8 -92q1 -184 87 -294t242 -110t222 101q6 8 18 8q12 1 24 -9t13 -24q-91 -211 -358 -211q-209 0 -339 119t-130 336t133 362q128 152 354 152z" />
    <glyph glyph-name="igrave" unicode="&#xec;" horiz-adv-x="614" 
d="M59 1419q0 45 94 45t103 -24l219 -363l4 -12q0 -27 -37 -27q-6 0 -18 9l-340 333q-25 22 -25 39zM61 20q0 22 9 23q81 3 110 25t29 84v344q-2 131 -2 252q0 67 -62 67h-59q-14 1 -14 25t14 24q170 9 315 74q17 3 29 -6t12 -37t-8 -307t-8 -447q0 -52 25 -71
q22 -22 116 -25q8 -1 8 -25t-8 -24l-284 8q-70 0 -119 -4l-94 -2q-9 0 -9 22z" />
    <glyph glyph-name="iacute" unicode="&#xed;" horiz-adv-x="614" 
d="M61 20q0 22 9 23q81 3 110 25t29 84v344q-2 131 -2 252q0 67 -62 67h-59q-14 1 -14 25t14 24q170 9 315 74q17 3 29 -6t12 -37t-8 -307t-8 -447q0 -52 25 -71q22 -22 116 -25q8 -1 8 -25t-8 -24l-284 8q-70 0 -119 -4l-94 -2q-9 0 -9 22zM168 1038q-37 0 -37 27l4 12
l217 363q15 24 107 24t92 -45q0 -17 -25 -39l-342 -333q-9 -9 -16 -9z" />
    <glyph glyph-name="icircumflex" unicode="&#xee;" horiz-adv-x="614" 
d="M61 20q0 22 9 23q81 3 110 25t29 84v344q-2 131 -2 252q0 67 -62 67h-59q-14 1 -14 25t14 24q170 9 315 74q17 3 29 -6t12 -37t-8 -307t-8 -447q0 -52 25 -71q22 -22 116 -25q8 -1 8 -25t-8 -24l-284 8q-70 0 -119 -4l-94 -2q-9 0 -9 22zM51 1040q-33 0 -33 31l17 33
l231 350q10 16 47 16t47 -16l230 -350q2 -3 14 -31q0 -31 -33 -31q-9 0 -16 7l-252 227l-233 -227q-12 -9 -19 -9z" />
    <glyph glyph-name="idieresis" unicode="&#xef;" horiz-adv-x="614" 
d="M498 1120q-42 0 -78 35q-33 36 -33 86t33 86q36 35 78 35t77 -35q33 -36 33 -86t-33 -86q-35 -35 -77 -35zM119 1120q-43 0 -78 35q-33 36 -33 86t33 86q35 35 78 35t77 -35t34 -86t-34 -86t-77 -35zM61 20q0 22 9 23q81 3 110 25t29 84v344q-2 131 -2 252q0 67 -62 67
h-59q-14 1 -14 25t14 24q170 9 315 74q17 3 29 -6t12 -37t-8 -307t-8 -447q0 -52 25 -71q22 -22 116 -25q8 -1 8 -25t-8 -24l-284 8q-70 0 -119 -4l-94 -2q-9 0 -9 22z" />
    <glyph glyph-name="eth" unicode="&#xf0;" horiz-adv-x="1132" 
d="M562 33q112 0 175 119q66 120 66 299q1 179 -61 292t-175 113t-177 -106t-64 -296q0 -188 63 -302q61 -119 173 -119zM317 1462q0 39 41 39q246 -49 418 -201l156 72q12 3 30 -16q18 -20 23 -38q6 -18 -2 -26l-137 -63q215 -244 215 -604q-1 -319 -133 -489t-372 -171
q-240 0 -364 132q-124 131 -124 343t128 353t328 141t295 -160q-9 221 -119 389l-215 -98q-18 -3 -43 33q-19 36 -8 49l207 92q-125 140 -311 205q-13 3 -13 18z" />
    <glyph glyph-name="ntilde" unicode="&#xf1;" horiz-adv-x="1247" 
d="M150 815h-58q-12 1 -12 25t12 24q126 3 318 72q34 0 34 -25q0 -10 -4 -104t-4 -96q38 103 140 163t215 60q112 0 197 -72t85 -209l-16 -458q0 -102 20 -125q17 -29 115 -29q8 1 8 -23t-8 -24l-240 10h-131q-55 -2 -108 -2q-8 0 -8 24t8 23q72 3 93 24t21 66l9 492
q0 83 -45 131q-49 45 -129 45t-150 -76q-68 -77 -68 -233l-4 -373q0 -41 27 -59t86 -17q8 1 8 -23t-8 -24l-221 4l-128 -5q-128 -5 -128 19t8 23q85 6 109 22t24 64l-4 612q0 40 -12 58q-16 16 -51 16zM750 1096q-70 0 -158 72q-89 72 -123 73q-76 0 -76 -102q0 -35 -28 -35
q-37 0 -37 43q0 99 56 159t130 60q73 0 148 -58t110 -57q94 0 94 92q0 21 27 21t27 -41q0 -109 -50 -168t-120 -59z" />
    <glyph glyph-name="ograve" unicode="&#xf2;" horiz-adv-x="1138" 
d="M574 27q117 0 180 106q61 107 61 307t-65 312q-61 116 -183 116q-241 0 -241 -407q0 -202 63 -322q68 -112 185 -112zM68 448q0 206 145 346t361 140t357 -140q140 -140 140 -346t-145 -346q-146 -137 -363 -137t-356 139t-139 344zM358 1419q0 45 94 45t103 -24
l219 -363l4 -12q0 -27 -37 -27q-6 0 -18 9l-340 333q-25 22 -25 39z" />
    <glyph glyph-name="oacute" unicode="&#xf3;" horiz-adv-x="1138" 
d="M574 27q117 0 180 106q61 107 61 307t-65 312q-61 116 -183 116q-241 0 -241 -407q0 -202 63 -322q68 -112 185 -112zM68 448q0 206 145 346t361 140t357 -140q140 -140 140 -346t-145 -346q-146 -137 -363 -137t-356 139t-139 344zM406 1038q-37 0 -37 27l4 12l217 363
q14 24 106 24t92 -45q0 -18 -24 -39l-342 -333q-9 -9 -16 -9z" />
    <glyph glyph-name="ocircumflex" unicode="&#xf4;" horiz-adv-x="1138" 
d="M574 27q117 0 180 106q61 107 61 307t-65 312q-61 116 -183 116q-241 0 -241 -407q0 -202 63 -322q68 -112 185 -112zM68 448q0 206 145 346t361 140t357 -140q140 -140 140 -346t-145 -346q-146 -137 -363 -137t-356 139t-139 344zM307 1040q-33 0 -33 31l17 33l231 350
q10 16 47 16t47 -16l230 -350q2 -3 14 -31q0 -31 -33 -31q-9 0 -16 7l-252 227l-233 -227q-12 -9 -19 -9z" />
    <glyph glyph-name="otilde" unicode="&#xf5;" horiz-adv-x="1138" 
d="M574 27q117 0 180 106q61 107 61 307t-65 312q-61 116 -183 116q-241 0 -241 -407q0 -202 63 -322q68 -112 185 -112zM68 448q0 206 145 346t361 140t357 -140q140 -140 140 -346t-145 -346q-146 -137 -363 -137t-356 139t-139 344zM864 1323q0 -111 -50 -169t-118 -58
q-70 0 -159 72t-123 73q-76 0 -76 -102q0 -35 -29 -35q-37 0 -37 43q0 98 56 160q58 59 132 59t146 -57q79 -58 111 -58q94 0 94 92q1 21 27 21t26 -41z" />
    <glyph glyph-name="odieresis" unicode="&#xf6;" horiz-adv-x="1138" 
d="M574 27q117 0 180 106q61 107 61 307t-65 312q-61 116 -183 116q-241 0 -241 -407q0 -202 63 -322q68 -112 185 -112zM68 448q0 206 145 346t361 140t357 -140q140 -140 140 -346t-145 -346q-146 -137 -363 -137t-356 139t-139 344zM757.5 1120q-42.5 0 -77.5 35
q-33 36 -33 86t33 86q35 35 77.5 35t76.5 -35t34 -86t-34 -86t-76.5 -35zM379 1120q-43 0 -78 35q-33 36 -33 86t33 86q35 35 78 35t77 -35t34 -86t-34 -86t-77 -35z" />
    <glyph glyph-name="divide" unicode="&#xf7;" 
d="M684 977q0 -59 -42 -100t-102 -41q-58 0 -102 41q-41 41 -41 100t42 101q41 42 101 42t102 -42t42 -101zM684 250q0 -58 -41 -103q-45 -41 -103 -41t-102 41q-41 45 -41 103t41 102q44 41 102 41t103 -41q41 -44 41 -102zM141 532q-24 0 -24 75t24 75q89 0 793 4
q24 0 24 -74t-24 -75q-685 -5 -793 -5z" />
    <glyph glyph-name="oslash" unicode="&#xf8;" horiz-adv-x="1138" 
d="M567 860q-241 0 -241 -395q0 -123 22 -209l404 485q-64 119 -185 119zM572 31q245 0 245 415q0 102 -29 197l-403 -491q65 -121 187 -121zM137 -147q-12 0 -45 20t-33 35q0 6 4 10l152 180q-147 138 -147 350t145 347q142 139 360 139q152 0 273 -74l119 146q13 8 47 -6
t44.5 -22.5t8.5 -14.5l-141 -164q147 -127 147 -341t-145 -356q-149 -137 -363 -137q-151 0 -272 74q-64 -77 -139 -180q-3 -6 -15 -6z" />
    <glyph glyph-name="ugrave" unicode="&#xf9;" horiz-adv-x="1218" 
d="M1022 895q27 0 27 -18q-29 -375 -29 -711q0 -64 41 -64h78q14 0 14 -27t-14 -30q-209 -42 -279 -78q-28 0 -37 31q-20 70 -20 172q-53 -100 -146 -152t-198 -53q-258 0 -258 258l4 463q0 99 -19 121t-114 31q-9 3 -9 25t9 22l358 10l-8 -625q0 -92 35 -134t123 -42
t153 78q70 73 70 195l8 395q0 44 -33 61q-34 17 -104 17q-8 0 -8 22t8 21l137 2q25 2 73 4t65 3t20 1l49 2h4zM358 1419q0 45 94 45t103 -24l219 -363l4 -12q0 -27 -37 -27q-6 0 -18 9l-340 333q-25 22 -25 39z" />
    <glyph glyph-name="uacute" unicode="&#xfa;" horiz-adv-x="1218" 
d="M1022 895q27 0 27 -18q-29 -375 -29 -711q0 -64 41 -64h78q14 0 14 -27t-14 -30q-209 -42 -279 -78q-28 0 -37 31q-20 70 -20 172q-53 -100 -146 -152t-198 -53q-258 0 -258 258l4 463q0 99 -19 121t-114 31q-9 3 -9 25t9 22l358 10l-8 -625q0 -92 35 -134t123 -42
t153 78q70 73 70 195l8 395q0 44 -33 61q-34 17 -104 17q-8 0 -8 22t8 21l137 2q25 2 73 4t65 3t20 1l49 2h4zM487 1038q-36 0 -36 27l4 12l217 363q14 24 106 24t92 -45q0 -18 -24 -39l-342 -333q-9 -9 -17 -9z" />
    <glyph glyph-name="ucircumflex" unicode="&#xfb;" horiz-adv-x="1218" 
d="M1022 895q27 0 27 -18q-29 -375 -29 -711q0 -64 41 -64h78q14 0 14 -27t-14 -30q-209 -42 -279 -78q-28 0 -37 31q-20 70 -20 172q-53 -100 -146 -152t-198 -53q-258 0 -258 258l4 463q0 99 -19 121t-114 31q-9 3 -9 25t9 22l358 10l-8 -625q0 -92 35 -134t123 -42
t153 78q70 73 70 195l8 395q0 44 -33 61q-34 17 -104 17q-8 0 -8 22t8 21l137 2q25 2 73 4t65 3t20 1l49 2h4zM348 1040q-33 0 -33 31l17 33l231 350q10 16 47 16t47 -16l230 -350q2 -3 14 -31q0 -31 -33 -31q-9 0 -16 7l-252 227l-233 -227q-12 -9 -19 -9z" />
    <glyph glyph-name="udieresis" unicode="&#xfc;" horiz-adv-x="1218" 
d="M1022 895q27 0 27 -18q-29 -375 -29 -711q0 -64 41 -64h78q14 0 14 -27t-14 -30q-209 -42 -279 -78q-28 0 -37 31q-20 70 -20 172q-53 -100 -146 -152t-198 -53q-258 0 -258 258l4 463q0 99 -19 121t-114 31q-9 3 -9 25t9 22l358 10l-8 -625q0 -92 35 -134t123 -42
t153 78q70 73 70 195l8 395q0 44 -33 61q-34 17 -104 17q-8 0 -8 22t8 21l137 2q25 2 73 4t65 3t20 1l49 2h4zM796 1120q-42 0 -77 35q-33 36 -33 86t33 86q35 35 77 35t78 -35q33 -36 33 -86t-33 -86q-36 -35 -78 -35zM417.5 1120q-42.5 0 -77.5 35q-33 36 -33 86t33 86
q35 35 77.5 35t76.5 -35t34 -86t-34 -86t-76.5 -35z" />
    <glyph glyph-name="yacute" unicode="&#xfd;" horiz-adv-x="991" 
d="M109 -668q-84 0 -84 93q0 54 49 88q41 33 115 73t106 82q89 123 149 314q-12 59 -174 411t-213 412q-19 22 -34 31q-27 10 -43 10q-9 0 -9 22t9 23q17 0 40 -2l191 -4q78 0 133 4l111 2q8 0 8 -21t-8 -24q-97 -15 -97 -72q0 -36 72 -204t97.5 -226t36.5 -84t14 -33
q21 56 63 159q43 103 85 218q42 116 42 156t-15 60t-73 22q-8 0 -8 24t8 23l180 -4q33 0 111 4l59 2q8 0 8 -21t-8 -24q-32 -8 -44 -18t-15 -9l-29 -28q0 -1 -13 -17t-16 -20q-34 -44 -129 -240q-278 -592 -396 -887t-279 -295zM424 1038q-37 0 -37 27l4 12l217 363
q15 24 107 24t92 -45q0 -17 -25 -39l-342 -333q-9 -9 -16 -9z" />
    <glyph glyph-name="thorn" unicode="&#xfe;" horiz-adv-x="1253" 
d="M920 418q0 420 -261 420q-97 0 -165 -66t-68 -211v-143q2 -86 2 -207q0 -82 71 -130t164 -48q93 1 175 93t82 292zM436 -468q0 -42 35 -73q37 -26 133 -26q14 0 14 -33t-13 -33q-13 1 -79 5t-125 7l-100 5q-35 2 -145 2h-129q-9 0 -9 28t9 27q107 -1 135 27t28 98l5 1108
v669q0 59 -28 79t-124 20q-12 0 -12 32t12 33q138 1 248 17q109 16 117 16q32 0 32 -18l-2 -129q-12 -218 -12 -627q104 168 330 168q175 0 305 -139q125 -141 125 -353t-140 -348t-348 -135q-89 1 -162 35t-106 78l4 -443q2 -55 2 -97z" />
    <glyph glyph-name="ydieresis" unicode="&#xff;" horiz-adv-x="991" 
d="M109 -668q-84 0 -84 93q0 54 49 88q41 33 115 73t106 82q89 123 149 314q-12 59 -174 411t-213 412q-19 22 -34 31q-27 10 -43 10q-9 0 -9 22t9 23q17 0 40 -2l191 -4q78 0 133 4l111 2q8 0 8 -21t-8 -24q-97 -15 -97 -72q0 -36 72 -204t97.5 -226t36.5 -84t14 -33
q21 56 63 159q43 103 85 218q42 116 42 156t-15 60t-73 22q-8 0 -8 24t8 23l180 -4q33 0 111 4l59 2q8 0 8 -21t-8 -24q-32 -8 -44 -18t-15 -9l-29 -28q0 -1 -13 -17t-16 -20q-34 -44 -129 -240q-278 -592 -396 -887t-279 -295zM725 1120q-43 0 -78 35q-33 36 -33 86t33 86
q35 35 78 35t78 -35q33 -36 33 -86t-33 -86q-35 -35 -78 -35zM346 1120q-43 0 -78 35q-32 35 -32 86t32 86q35 35 78 35t78 -35q33 -36 33 -86t-33 -86q-35 -35 -78 -35z" />
    <glyph glyph-name="Amacron" unicode="&#x100;" horiz-adv-x="1515" 
d="M-27 23q0 25 15 34q55 18 94 54q36 27 76 91t287 631q246 567 255 617q6 43 57 43t66 -43q33 -105 257 -654t270 -624q71 -115 163 -127q13 -3 13 -27t-10 -24l-121 6q-160 4 -203 4h-74l-266 -8q-10 0 -10 24t10 27q91 9 135 35q47 24 47 94q0 34 -19 73t-112 290
q-12 -2 -191 -2t-302 12q-131 -321 -131 -379t34 -88q39 -30 88 -33q21 1 21 -27t-16 -28l-228 10q-61 0 -108 -4l-80 -2q-17 0 -17 25zM643 631q165 0 225 -8q-63 142 -101 244q-39 102 -56.5 147t-31.5 83.5t-15 39.5l-224 -506h203zM1010 1616h-510q-31 0 -31 64t31 63
h510q30 1 30 -63t-30 -64z" />
    <glyph glyph-name="amacron" unicode="&#x101;" horiz-adv-x="1030" 
d="M806 -29q-173 0 -179 189q-47 -87 -132 -140t-189 -53t-160 52t-56 143q0 128 124 238t407 169v97q0 96 -27 145q-28 45 -109 45t-120 -33q-43 -32 -64 -102q-9 -28 -37 -48t-61.5 -20t-58.5 22t-25 64q0 75 90 138q91 57 289 57t278 -57q76 -61 76 -207q0 -23 -8 -199
q-10 -136 -10 -276q0 -93 60 -93t81 50q3 6 11 6t18 -6t10 -17q0 -10 -15 -53q-19 -36 -65 -74t-128 -37zM317 254q0 -82 35 -111q27 -34 86 -34q98 0 180 104q-3 163 0 309q-161 -46 -231 -116t-70 -152zM768 1167h-504q-18 1 -18 55t18 54h504q18 0 18 -54t-18 -55z" />
    <glyph glyph-name="Abreve" unicode="&#x102;" horiz-adv-x="1515" 
d="M-27 23q0 25 15 34q55 18 94 54q36 27 76 91t287 631q246 567 255 617q6 43 57 43t66 -43q33 -105 257 -654t270 -624q71 -115 163 -127q13 -3 13 -27t-10 -24l-121 6q-160 4 -203 4h-74l-266 -8q-10 0 -10 24t10 27q91 9 135 35q47 24 47 94q0 34 -19 73t-112 290
q-12 -2 -191 -2t-302 12q-131 -321 -131 -379t34 -88q39 -30 88 -33q21 1 21 -27t-16 -28l-228 10q-61 0 -108 -4l-80 -2q-17 0 -17 25zM643 631q165 0 225 -8q-63 142 -101 244q-39 102 -56.5 147t-31.5 83.5t-15 39.5l-224 -506h203zM500 1829q0 23 34 25t33 -25
q0 -55 58 -92t128 -37t128 37q55 37 55 92q2 16 20 24t31 -2q17 -6 14 -22q-1 -105 -69 -179t-180 -75t-182 75t-70 179z" />
    <glyph glyph-name="abreve" unicode="&#x103;" horiz-adv-x="1030" 
d="M806 -29q-173 0 -179 189q-47 -87 -132 -140t-189 -53t-160 52t-56 143q0 128 124 238t407 169v97q0 96 -27 145q-28 45 -109 45t-120 -33q-43 -32 -64 -102q-9 -28 -37 -48t-61.5 -20t-58.5 22t-25 64q0 75 90 138q91 57 289 57t278 -57q76 -61 76 -207q0 -23 -8 -199
q-10 -136 -10 -276q0 -93 60 -93t81 50q3 6 11 6t18 -6t10 -17q0 -10 -15 -53q-19 -36 -65 -74t-128 -37zM317 254q0 -82 35 -111q27 -34 86 -34q98 0 180 104q-3 163 0 309q-161 -46 -231 -116t-70 -152zM266 1358q0 28 33 28t33 -28q0 -70 50 -115t130 -45t127 47
q51 42 51 113q3 16 19 26q15 6 32 0q15 -12 13 -26q0 -127 -62 -219t-182 -92.5t-182 93.5t-62 218z" />
    <glyph glyph-name="Aogonek" unicode="&#x104;" horiz-adv-x="1515" 
d="M643 631q165 0 225 -8q-63 142 -101 244q-39 102 -56.5 147t-31.5 83.5t-15 39.5l-224 -506h203zM1409 -229q47 1 47 -63t-63 -118q-66 -51 -165 -51q-98 1 -154 53t-56 140t52 163t155 109h-107l-266 -8q-10 0 -10 24t10 27q91 9 135 35q47 24 47 94q0 34 -19 73
t-112 290q-12 -2 -191 -2t-302 12q-131 -321 -131 -379t34 -88q39 -30 88 -33q21 1 21 -27t-16 -28l-228 10q-61 0 -108 -4l-80 -2q-17 0 -17 25t15 34q55 18 94 54q36 27 76 91t287 631q246 567 255 617q6 43 57 43t66 -43q33 -105 257 -654t270 -624q71 -115 163 -127
q13 -3 13 -27t-10 -24l-218 8q-67 -38 -101 -102t-34 -138q0 -143 113 -143q98 0 98 78l-6 41q0 33 41 33z" />
    <glyph glyph-name="aogonek" unicode="&#x105;" horiz-adv-x="1030" 
d="M317 254q0 -82 35 -111q27 -34 86 -34q98 0 180 104q-3 163 0 309q-161 -46 -231 -116t-70 -152zM940 -303l-6 41q0 33 41 33q47 0 47 -63t-64 -118q-66 -51 -164 -51q-98 1 -154 53t-56 134t41 150t112 106q-107 30 -110 178q-47 -87 -132 -140t-189 -53t-160 52
t-56 143q0 128 124 238t407 169v97q0 96 -27 145q-28 45 -109 45t-120 -33q-43 -32 -64 -102q-9 -28 -37 -48t-61.5 -20t-58.5 22t-25 64q0 75 90 138q91 57 289 57t278 -57q76 -61 76 -207q0 -23 -8 -199q-10 -136 -10 -276q0 -93 60 -93t81 50q3 6 11 6t18 -6t10 -20
q0 -12 -16 -48t-61 -74q-45 -36 -116 -39q-92 -80 -92 -216t113 -136q98 0 98 78z" />
    <glyph glyph-name="Cacute" unicode="&#x106;" horiz-adv-x="1579" 
d="M1446 211q0 -63 4 -117q0 -14 -30 -14t-29 14q0 37 -43 37q-24 0 -72 -31q-108 -77 -210 -107t-243 -30q-323 0 -536 213q-211 214 -211 554t230 553q230 214 542 214q272 0 446 -131q30 -23 54 -23q24 -1 46 21t21 43q0 14 30 14t30 -14q-9 -102 -9 -204t17 -275
q0 -15 -30 -15t-30 15q-40 230 -178 362q-140 131 -371 131q-231 1 -357 -187t-126 -496t139 -500q140 -187 394 -187q189 0 329 137q138 142 168 320q0 14 31 14t31 -14q-37 -234 -37 -297zM686 1550q-41 0 -41 23q0 6 4 10l250 313q15 21 121 21t106 -37q0 -16 -28 -35
l-391 -289q-18 -6 -21 -6z" />
    <glyph glyph-name="cacute" unicode="&#x107;" horiz-adv-x="944" 
d="M420 1038q-37 0 -37 27l4 12l217 363q15 24 107 24t92 -45q0 -17 -25 -39l-342 -333q-9 -9 -16 -9zM582 934q139 0 221 -48t82 -124q0 -41 -25 -66q-28 -22 -62 -22t-60 30t-38 62q-48 92 -143 92q-235 0 -235 -379q0 -196 81 -286q81 -97 203 -97q76 0 144 34t94 91
q3 8 16 8t25 -12q14 -8 14 -24q-35 -113 -133 -168q-102 -60 -221 -60q-190 0 -332 127q-139 127 -139 335t139 359q142 148 369 148z" />
    <glyph glyph-name="Ccircumflex" unicode="&#x108;" horiz-adv-x="1579" 
d="M1446 211q0 -63 4 -117q0 -14 -30 -14t-29 14q0 37 -43 37q-24 0 -72 -31q-108 -77 -210 -107t-243 -30q-323 0 -536 213q-211 214 -211 554t230 553q230 214 542 214q272 0 446 -131q30 -23 54 -23q24 -1 46 21t21 43q0 14 30 14t30 -14q-9 -102 -9 -204t17 -275
q0 -15 -30 -15t-30 15q-40 230 -178 362q-140 131 -371 131q-231 1 -357 -187t-126 -496t139 -500q140 -187 394 -187q189 0 329 137q138 142 168 320q0 14 31 14t31 -14q-37 -234 -37 -297zM578 1561q-10 0 -20 9q-10 10 -10 14t2 7.5t6.5 10t8.5 12.5l242 297q8 14 47 14
t53 -14l254 -322q0 -26 -33 -26q-14 0 -20 6l-262 186l-244 -186q-14 -8 -24 -8z" />
    <glyph glyph-name="ccircumflex" unicode="&#x109;" horiz-adv-x="944" 
d="M295 1040q-33 0 -33 31l17 33l231 350q10 16 47 16t47 -16l230 -350q2 -3 14 -31q0 -31 -33 -31q-9 0 -16 7l-252 227l-234 -227q-12 -9 -18 -9zM582 934q139 0 221 -48t82 -124q0 -41 -25 -66q-28 -22 -62 -22t-60 30t-38 62q-48 92 -143 92q-235 0 -235 -379
q0 -196 81 -286q81 -97 203 -97q76 0 144 34t94 91q3 8 16 8t25 -12q14 -8 14 -24q-35 -113 -133 -168q-102 -60 -221 -60q-190 0 -332 127q-139 127 -139 335t139 359q142 148 369 148z" />
    <glyph glyph-name="Cdotaccent" unicode="&#x10a;" horiz-adv-x="1579" 
d="M1446 211q0 -63 4 -117q0 -14 -30 -14t-29 14q0 37 -43 37q-24 0 -72 -31q-108 -77 -210 -107t-243 -30q-323 0 -536 213q-211 214 -211 554t230 553q230 214 542 214q272 0 446 -131q30 -23 54 -23q24 -1 46 21t21 43q0 14 30 14t30 -14q-9 -102 -9 -204t17 -275
q0 -15 -30 -15t-30 15q-40 230 -178 362q-140 131 -371 131q-231 1 -357 -187t-126 -496t139 -500q140 -187 394 -187q189 0 329 137q138 142 168 320q0 14 31 14t31 -14q-37 -234 -37 -297zM972.5 1737q0.5 -51 -35.5 -87t-87 -36t-88 36t-37 88t36 86q35 34 87 34t88 -35
t36.5 -86z" />
    <glyph glyph-name="cdotaccent" unicode="&#x10b;" horiz-adv-x="944" 
d="M688 1229q0 -53 -38 -90t-90.5 -37t-92.5 37q-37 37 -37 90t37 90q40 37 92.5 37t90.5 -37t38 -90zM582 934q139 0 221 -48t82 -124q0 -41 -25 -66q-28 -22 -62 -22t-60 30t-38 62q-48 92 -143 92q-235 0 -235 -379q0 -196 81 -286q81 -97 203 -97q76 0 144 34t94 91
q3 8 16 8t25 -12q14 -8 14 -24q-35 -113 -133 -168q-102 -60 -221 -60q-190 0 -332 127q-139 127 -139 335t139 359q142 148 369 148z" />
    <glyph glyph-name="Ccaron" unicode="&#x10c;" horiz-adv-x="1579" 
d="M1446 211q0 -63 4 -117q0 -14 -30 -14t-29 14q0 37 -43 37q-24 0 -72 -31q-108 -77 -210 -107t-243 -30q-323 0 -536 213q-211 214 -211 554t230 553q230 214 542 214q272 0 446 -131q30 -23 54 -23q24 -1 46 21t21 43q0 14 30 14t30 -14q-9 -102 -9 -204t17 -275
q0 -15 -30 -15t-30 15q-40 230 -178 362q-140 131 -371 131q-231 1 -357 -187t-126 -496t139 -500q140 -187 394 -187q189 0 329 137q138 142 168 320q0 14 31 14t31 -14q-37 -234 -37 -297zM862 1571q-40 0 -51 14l-233 293q-10 10 -21 29q0 26 33 26q11 0 20 -6l262 -186
l244 186q9 6 21 6q34 0 34 -26q-105 -132 -262 -322q-7 -14 -47 -14z" />
    <glyph glyph-name="ccaron" unicode="&#x10d;" horiz-adv-x="944" 
d="M303 1470q10 0 16 -6l252 -229l234 229q9 6 18 6q33 0 33 -30q-2 -7 -16 -31l-232 -352q-10 -17 -47 -17t-47 17l-229 352q-13 22 -15 31q0 30 33 30zM582 934q139 0 221 -48t82 -124q0 -41 -25 -66q-28 -22 -62 -22t-60 30t-38 62q-48 92 -143 92q-235 0 -235 -379
q0 -196 81 -286q81 -97 203 -97q76 0 144 34t94 91q3 8 16 8t25 -12q14 -8 14 -24q-35 -113 -133 -168q-102 -60 -221 -60q-190 0 -332 127q-139 127 -139 335t139 359q142 148 369 148z" />
    <glyph glyph-name="Dcaron" unicode="&#x10e;" horiz-adv-x="1712" 
d="M822 1571q-40 0 -50 14l-233 293q-10 10 -21 29q0 26 33 26q11 0 20 -6l263 -186l243 186q9 6 21 6q35 0 35 -26q-82 -103 -263 -322q-8 -14 -48 -14zM868 53q455 0 455 664q0 203 -78 381q-48 94 -106 155q-59 61 -153 101t-208 41q-114 0 -176 -21l-10 -1067
q0 -134 65 -196q67 -58 211 -58zM1624 721q0 -353 -199 -543q-203 -188 -551 -188q-152 0 -276 7t-195 7l-311 -10q-8 0 -8 26t10 27q140 9 186 52t46 186l-4 942q0 100 -50 137t-168 37q-8 1 -8 31t13 30q205 -10 311 -10l395 8q209 0 361 -63q166 -64 254 -168
q194 -211 194 -508z" />
    <glyph glyph-name="dcaron" unicode="&#x10f;" horiz-adv-x="1249" 
d="M827 1352q-1 58 -29 78t-124 20q-10 0 -10 28t10 29q138 1 248 17q109 16 116 16q33 0 33 -18t-11 -511q-11 -494 -11 -847q0 -45 24 -61t74 -19l59 -4q15 0 15 -32t-13 -32q-61 0 -149 -16q-97 -12 -105 -15l-38 -13q-30 -10 -34 -11t-11 -3.5t-11 -4.5t-12 -2
q-23 0 -23 22v3l1 8l1 45q4 33 4 77q-139 -141 -315 -141t-308 132q-132 131 -132 347t129 351q123 139 315 139t311 -119v217l-4 209v111zM829 680q-1 66 -63 111t-164 45t-184 -95q-78 -101 -78 -289t74 -282q70 -94 171 -94t152 26q48 26 86 97q6 144 6 481zM1192 1473
q0 38 92 38t92 -45q-97 -295 -170 -407q-6 -15 -32 -15t-27 25q18 59 29 182q16 117 16 222z" />
    <glyph glyph-name="Dcroat" unicode="&#x110;" horiz-adv-x="1712" 
d="M596 819h252q18 0 18 -55t-18 -55h-254q-2 -123 -2 -402q0 -134 65 -196q67 -58 211 -58q455 0 455 664q0 203 -78 381q-48 94 -106 155q-59 61 -153 101t-208 41q-114 0 -176 -21v-96q-6 -186 -6 -459zM1624 721q0 -353 -199 -543q-203 -188 -551 -188q-152 0 -276 7
t-195 7l-311 -10q-8 0 -8 26t10 27q140 9 186 52t46 186q0 311 -2 422h-193q-18 0 -18 55t18 55h193q-2 119 -2 410q0 100 -50 137t-168 37q-8 1 -8 31t13 30q205 -10 311 -10l395 8q209 0 361 -63q166 -64 254 -168q194 -211 194 -508z" />
    <glyph glyph-name="dcroat" unicode="&#x111;" horiz-adv-x="1249" 
d="M829 680q-1 66 -63 111t-164 45t-184 -95q-78 -101 -78 -289t74 -282q70 -94 171 -94t152 26q48 26 86 97q6 144 6 481zM516 -35q-176 0 -308 132q-132 131 -132 347t129 351q123 139 315 139t311 -119q0 284 -2 352h-186q-20 -1 -20 49t20 50h184v86q-1 58 -29 78
t-124 20q-10 0 -10 28t10 29q138 1 248 17q109 16 116 16q33 0 33 -18t-2 -35v-90q-2 -39 -2 -131h131q19 0 19 -50t-19 -49h-133q-16 -544 -16 -1003q0 -45 24 -61t74 -19l59 -4q15 0 15 -32t-13 -32q-61 0 -149 -16q-97 -12 -105 -15l-38 -13q-30 -10 -34 -11t-11 -3.5
t-11 -4.5t-12 -2q-23 0 -23 22v3l1 8l1 45q4 33 4 77q-139 -141 -315 -141z" />
    <glyph glyph-name="Emacron" unicode="&#x112;" horiz-adv-x="1441" 
d="M1008 1016q0 -13 -4 -49t-5 -149q0 -113 9 -302q0 -16 -36 -16t-36 18q-2 62 -12 95t-43 71q-69 59 -254 59h-35v-94l-4 -440q0 -73 46 -107t167 -34q255 0 367 90t130 274q2 27 38 27t36 -15l-10 -391q0 -39 -9 -48t-42 -9l-862 4h-82l-295 -8q-11 0 -11 30t11 29
q123 0 190 39q66 45 66 168q0 264 -4 522l-2 445q0 92 -51 134t-156 42q-9 -1 -9 31t13 32q137 -12 267 -12t303 4t295 9t161.5 6.5t57.5 2.5t20 1q28 0 28 -35l-12 -316q0 -14 -27 -14t-30 10q-26 144 -110 205t-286 61q-64 0 -176 -8q0 -286 -18 -571q206 0 276 46t70 165
q0 20 35 20t35 -22zM1038 1616h-510q-30 0 -30 64t30 63h510q31 1 31 -63t-31 -64z" />
    <glyph glyph-name="emacron" unicode="&#x113;" horiz-adv-x="974" 
d="M793 1167h-504q-19 1 -19 55t19 54h504q18 0 18 -54t-18 -55zM551 864q-175 0 -236 -217q85 0 180 7t137 9t58 11t15 45q0 145 -154 145zM563 934q173 0 266 -99t93 -206q0 -25 -8 -33t-31 -8q-378 0 -578 8q-8 -36 -8 -92q1 -184 87 -294t242 -110t222 101q6 8 18 8
q12 1 24 -9t13 -24q-91 -211 -358 -211q-209 0 -339 119t-130 336t133 362q128 152 354 152z" />
    <glyph glyph-name="Ebreve" unicode="&#x114;" horiz-adv-x="1441" 
d="M1008 1016q0 -13 -4 -49t-5 -149q0 -113 9 -302q0 -16 -36 -16t-36 18q-2 62 -12 95t-43 71q-69 59 -254 59h-35v-94l-4 -440q0 -73 46 -107t167 -34q255 0 367 90t130 274q2 27 38 27t36 -15l-10 -391q0 -39 -9 -48t-42 -9l-862 4h-82l-295 -8q-11 0 -11 30t11 29
q123 0 190 39q66 45 66 168q0 264 -4 522l-2 445q0 92 -51 134t-156 42q-9 -1 -9 31t13 32q137 -12 267 -12t303 4t295 9t161.5 6.5t57.5 2.5t20 1q28 0 28 -35l-12 -316q0 -14 -27 -14t-30 10q-26 144 -110 205t-286 61q-64 0 -176 -8q0 -286 -18 -571q206 0 276 46t70 165
q0 20 35 20t35 -22zM516 1829q0 23 34 25t34 -25q0 -55 58 -92t127 -37q70 0 128 37q55 37 55 92q3 16 21 24t31 -2q17 -6 14 -22q0 -104 -69 -179t-181 -75t-182 76t-70 178z" />
    <glyph glyph-name="ebreve" unicode="&#x115;" horiz-adv-x="974" 
d="M301 1358q0 28 33 28t33 -28q0 -71 51 -113q48 -47 128 -47t130 45t49 115q3 17 18 26q17 8 33 0t12 -26q0 -128 -62 -220t-182 -91q-120 0 -182 92q-61 94 -61 219zM551 864q-175 0 -236 -217q85 0 180 7t137 9t58 11t15 45q0 145 -154 145zM563 934q173 0 266 -99
t93 -206q0 -25 -8 -33t-31 -8q-378 0 -578 8q-8 -36 -8 -92q1 -184 87 -294t242 -110t222 101q6 8 18 8q12 1 24 -9t13 -24q-91 -211 -358 -211q-209 0 -339 119t-130 336t133 362q128 152 354 152z" />
    <glyph glyph-name="Edotaccent" unicode="&#x116;" horiz-adv-x="1441" 
d="M1008 1016q0 -13 -4 -49t-5 -149q0 -113 9 -302q0 -16 -36 -16t-36 18q-2 62 -12 95t-43 71q-69 59 -254 59h-35v-94l-4 -440q0 -73 46 -107t167 -34q255 0 367 90t130 274q2 27 38 27t36 -15l-10 -391q0 -39 -9 -48t-42 -9l-862 4h-82l-295 -8q-11 0 -11 30t11 29
q123 0 190 39q66 45 66 168q0 264 -4 522l-2 445q0 92 -51 134t-156 42q-9 -1 -9 31t13 32q137 -12 267 -12t303 4t295 9t161.5 6.5t57.5 2.5t20 1q28 0 28 -35l-12 -316q0 -14 -27 -14t-30 10q-26 144 -110 205t-286 61q-64 0 -176 -8q0 -286 -18 -571q206 0 276 46t70 165
q0 20 35 20t35 -22zM911.5 1738q0.5 -52 -35.5 -88t-88 -36t-88 35t-36 88t36 87t87 34q52 0 88 -34t36.5 -86z" />
    <glyph glyph-name="edotaccent" unicode="&#x117;" horiz-adv-x="974" 
d="M688 1229q0 -53 -38 -90t-90.5 -37t-92.5 37q-37 37 -37 90t37 90q40 37 92.5 37t90.5 -37t38 -90zM551 864q-175 0 -236 -217q85 0 180 7t137 9t58 11t15 45q0 145 -154 145zM563 934q173 0 266 -99t93 -206q0 -25 -8 -33t-31 -8q-378 0 -578 8q-8 -36 -8 -92
q1 -184 87 -294t242 -110t222 101q6 8 18 8q12 1 24 -9t13 -24q-91 -211 -358 -211q-209 0 -339 119t-130 336t133 362q128 152 354 152z" />
    <glyph glyph-name="Eogonek" unicode="&#x118;" horiz-adv-x="1441" 
d="M1008 1016q0 -13 -4 -49t-5 -149q0 -113 9 -302q0 -16 -36 -16t-36 18q-2 62 -12 95t-43 71q-69 59 -254 59h-35v-94l-4 -440q0 -73 46 -107t167 -34q255 0 367 90t130 274q2 27 38 27t36 -15l-10 -391q0 -39 -9 -48t-42 -9h-101q-123 -77 -123 -227t113 -150q98 0 98 78
q0 14 -4 20l-2 21q0 33 41 33q47 1 47 -63t-63 -118q-66 -51 -165 -51q-98 1 -154 53t-56 136t45 157q50 74 141 113q-190 0 -356 2h-405l-295 -8q-11 0 -11 30t11 29q123 0 190 39q66 45 66 168q0 264 -4 522l-2 445q0 92 -51 134t-156 42q-9 -1 -9 31t13 32
q137 -12 267 -12t303 4t295 9t161.5 6.5t57.5 2.5t20 1q28 0 28 -35l-12 -316q0 -14 -27 -14t-30 10q-26 144 -110 205t-286 61q-64 0 -176 -8q0 -286 -18 -571q206 0 276 46t70 165q0 20 35 20t35 -22z" />
    <glyph glyph-name="eogonek" unicode="&#x119;" horiz-adv-x="974" 
d="M551 864q-175 0 -236 -217q85 0 180 7t137 9t58 11t15 45q0 145 -154 145zM772 -303l-6 41q0 33 41 33q47 1 47 -63t-63 -118q-66 -51 -165 -51q-98 1 -154 53t-56 142q0 148 127 231q-207 0 -337 119t-130 336t133 362q128 152 354 152q173 0 266 -99t93 -206
q0 -25 -8 -33t-31 -8q-378 0 -578 8q-8 -36 -8 -92q1 -184 87 -294t242 -110t222 101q6 8 18 8q12 1 24 -9t13 -24q-70 -159 -244 -199q-98 -82 -98 -220t113 -138q98 0 98 78z" />
    <glyph glyph-name="Ecaron" unicode="&#x11a;" horiz-adv-x="1441" 
d="M782 1571q-40 0 -51 14l-233 293q-10 10 -21 29q0 26 33 26q11 0 20 -6l263 -186l243 186q9 6 21 6q35 0 35 -26q-82 -103 -263 -322q-7 -14 -47 -14zM1008 1016q0 -13 -4 -49t-5 -149q0 -113 9 -302q0 -16 -36 -16t-36 18q-2 62 -12 95t-43 71q-69 59 -254 59h-35v-94
l-4 -440q0 -73 46 -107t167 -34q255 0 367 90t130 274q2 27 38 27t36 -15l-10 -391q0 -39 -9 -48t-42 -9l-862 4h-82l-295 -8q-11 0 -11 30t11 29q123 0 190 39q66 45 66 168q0 264 -4 522l-2 445q0 92 -51 134t-156 42q-9 -1 -9 31t13 32q137 -12 267 -12t303 4t295 9
t161.5 6.5t57.5 2.5t20 1q28 0 28 -35l-12 -316q0 -14 -27 -14t-30 10q-26 144 -110 205t-286 61q-64 0 -176 -8q0 -286 -18 -571q206 0 276 46t70 165q0 20 35 20t35 -22z" />
    <glyph glyph-name="ecaron" unicode="&#x11b;" horiz-adv-x="974" 
d="M287 1470q10 0 16 -6l252 -229l233 229q9 6 19 6q33 0 33 -30q-1 -3 -17 -31l-231 -352q-10 -17 -47 -17t-47 17l-230 352q-12 20 -14 31q0 30 33 30zM551 864q-175 0 -236 -217q85 0 180 7t137 9t58 11t15 45q0 145 -154 145zM563 934q173 0 266 -99t93 -206
q0 -25 -8 -33t-31 -8q-378 0 -578 8q-8 -36 -8 -92q1 -184 87 -294t242 -110t222 101q6 8 18 8q12 1 24 -9t13 -24q-91 -211 -358 -211q-209 0 -339 119t-130 336t133 362q128 152 354 152z" />
    <glyph glyph-name="Gcircumflex" unicode="&#x11c;" horiz-adv-x="1748" 
d="M1030 633q152 -12 391 -12l289 8q8 0 8 -30t-8 -30q-124 -9 -150 -47t-26 -136t8 -259q0 -23 -29 -23q-2 0 -38 19q-29 20 -61 20t-71 -28q-203 -150 -485 -150q-348 1 -565 213t-217 552t230 553q230 214 542 214q272 0 448 -123q22 -16 54 -16t55 39q18 37 44 37
t26 -15q-9 -102 -9 -197t17 -268q0 -14 -31 -14t-31 14q-41 231 -180 349q-135 120 -365 120q-230 1 -360 -187q-129 -188 -129 -500t143 -500t369 -189q173 -1 270 81t97 211t-47 181t-193 51q-12 0 -12 19t16 43zM586 1561q-10 0 -20 9q-10 10 -10 14t2 7.5t6.5 10
t8.5 12.5l242 297q8 14 47 14t53 -14l254 -322q0 -26 -32 -26q-15 0 -21 6l-262 186l-244 -186q-14 -8 -24 -8z" />
    <glyph glyph-name="gcircumflex" unicode="&#x11d;" horiz-adv-x="1159" 
d="M503 299q67 1 113 73t46 204t-44 212q-44 78 -114 78t-114 -73q-46 -73 -46 -209t46 -210q46 -75 113 -75zM348 270q-225 79 -225 340q0 135 106 230q110 94 273 94q107 0 182 -41q81 -36 131 -111q69 162 221 162t152 -139q0 -48 -29 -74q-23 -26 -61 -26q-65 0 -86 71
q-16 41 -56 41t-71 -22q-27 -27 -27 -56t12 -83t11 -85q1 -156 -85 -237t-282 -90q-131 -6 -199 -29q-57 -22 -57 -65q0 -60 111 -60q61 0 157 8t185 8q168 0 252 -90q86 -86 86 -225q0 -171 -141 -295q-140 -124 -390 -125q-250 0 -371 76q-116 79 -116 203q0 88 55 144
t147 56q53 0 82 -20q-96 -44 -96 -152q1 -108 79 -172q78 -65 239 -65t249 76.5t88 172.5t-51 150q-51 60 -157 60l-269 -9q-123 0 -196 43q-78 40 -78 124t61 143q57 60 164 69zM258 1040q-33 0 -33 31l17 33l231 350q10 16 47 16t47 -16l230 -350q2 -3 14 -31
q0 -31 -33 -31q-9 0 -16 7l-252 227l-234 -227q-12 -9 -18 -9z" />
    <glyph glyph-name="Gbreve" unicode="&#x11e;" horiz-adv-x="1748" 
d="M1030 633q152 -12 391 -12l289 8q8 0 8 -30t-8 -30q-124 -9 -150 -47t-26 -136t8 -259q0 -23 -29 -23q-2 0 -38 19q-29 20 -61 20t-71 -28q-203 -150 -485 -150q-348 1 -565 213t-217 552t230 553q230 214 542 214q272 0 448 -123q22 -16 54 -16t55 39q18 37 44 37
t26 -15q-9 -102 -9 -197t17 -268q0 -14 -31 -14t-31 14q-41 231 -180 349q-135 120 -365 120q-230 1 -360 -187q-129 -188 -129 -500t143 -500t369 -189q173 -1 270 81t97 211t-47 181t-193 51q-12 0 -12 19t16 43zM614 1829q0 23 34 25t34 -25q0 -55 58 -92t127 -37
q70 0 128 37q56 38 56 92q3 16 21 24t30 -2q17 -6 14 -22q0 -105 -68 -179t-182 -75q-112 0 -182 76t-70 178z" />
    <glyph glyph-name="gbreve" unicode="&#x11f;" horiz-adv-x="1159" 
d="M503 299q67 1 113 73t46 204t-44 212q-44 78 -114 78t-114 -73q-46 -73 -46 -209t46 -210q46 -75 113 -75zM348 270q-225 79 -225 340q0 135 106 230q110 94 273 94q107 0 182 -41q81 -36 131 -111q69 162 221 162t152 -139q0 -48 -29 -74q-23 -26 -61 -26q-65 0 -86 71
q-16 41 -56 41t-71 -22q-27 -27 -27 -56t12 -83t11 -85q1 -156 -85 -237t-282 -90q-131 -6 -199 -29q-57 -22 -57 -65q0 -60 111 -60q61 0 157 8t185 8q168 0 252 -90q86 -86 86 -225q0 -171 -141 -295q-140 -124 -390 -125q-250 0 -371 76q-116 79 -116 203q0 88 55 144
t147 56q53 0 82 -20q-96 -44 -96 -152q1 -108 79 -172q78 -65 239 -65t249 76.5t88 172.5t-51 150q-51 60 -157 60l-269 -9q-123 0 -196 43q-78 40 -78 124t61 143q57 60 164 69zM285 1358q1 28 33 28t32 -28q0 -71 51 -113q47 -47 127 -47t131 46q50 46 50 114q3 17 18 26
q17 8 33 0t12 -26q0 -128 -62 -220t-182 -91q-120 0 -182 92q-61 94 -61 219z" />
    <glyph glyph-name="Gdotaccent" unicode="&#x120;" horiz-adv-x="1748" 
d="M1030 633q152 -12 391 -12l289 8q8 0 8 -30t-8 -30q-124 -9 -150 -47t-26 -136t8 -259q0 -23 -29 -23q-2 0 -38 19q-29 20 -61 20t-71 -28q-203 -150 -485 -150q-348 1 -565 213t-217 552t230 553q230 214 542 214q272 0 448 -123q22 -16 54 -16t55 39q18 37 44 37
t26 -15q-9 -102 -9 -197t17 -268q0 -14 -31 -14t-31 14q-41 231 -180 349q-135 120 -365 120q-230 1 -360 -187q-129 -188 -129 -500t143 -500t369 -189q173 -1 270 81t97 211t-47 181t-193 51q-12 0 -12 19t16 43zM995 1737.5q0 -52.5 -37 -86.5q-34 -37 -86 -37t-88 35
t-36 87t36 88q36 34 88 34t87 -34q36 -34 36 -86.5z" />
    <glyph glyph-name="gdotaccent" unicode="&#x121;" horiz-adv-x="1159" 
d="M503 299q67 1 113 73t46 204t-44 212q-44 78 -114 78t-114 -73q-46 -73 -46 -209t46 -210q46 -75 113 -75zM348 270q-225 79 -225 340q0 135 106 230q110 94 273 94q107 0 182 -41q81 -36 131 -111q69 162 221 162t152 -139q0 -48 -29 -74q-23 -26 -61 -26q-65 0 -86 71
q-16 41 -56 41t-71 -22q-27 -27 -27 -56t12 -83t11 -85q1 -156 -85 -237t-282 -90q-131 -6 -199 -29q-57 -22 -57 -65q0 -60 111 -60q61 0 157 8t185 8q168 0 252 -90q86 -86 86 -225q0 -171 -141 -295q-140 -124 -390 -125q-250 0 -371 76q-116 79 -116 203q0 88 55 144
t147 56q53 0 82 -20q-96 -44 -96 -152q1 -108 79 -172q78 -65 239 -65t249 76.5t88 172.5t-51 150q-51 60 -157 60l-269 -9q-123 0 -196 43q-78 40 -78 124t61 143q57 60 164 69zM633 1229q0 -55 -38 -91t-91 -36t-91 36t-38 91t38 91t91 36t91 -36t38 -91z" />
    <glyph glyph-name="Gcommaaccent" unicode="&#x122;" horiz-adv-x="1748" 
d="M1030 633q152 -12 391 -12l289 8q8 0 8 -30t-8 -30q-124 -9 -150 -47t-26 -136t8 -259q0 -23 -29 -23q-2 0 -38 19q-29 20 -61 20t-71 -28q-203 -150 -485 -150q-348 1 -565 213t-217 552t230 553q230 214 542 214q272 0 448 -123q22 -16 54 -16t55 39q18 37 44 37
t26 -15q-9 -102 -9 -197t17 -268q0 -14 -31 -14t-31 14q-41 231 -180 349q-135 120 -365 120q-230 1 -360 -187q-129 -188 -129 -500t143 -500t369 -189q173 -1 270 81t97 211t-47 181t-193 51q-12 0 -12 19t16 43zM918 -348q0 64 -27 63q-20 0 -23 -10q-24 -18 -58 -18
t-57 27q-24 28 -24 70q1 42 33 74t96 33q64 0 110 -52q44 -53 44 -163t-86 -194t-140 -84q-32 0 -32 31q0 15 10 18q76 31 113 86q41 55 41 119z" />
    <glyph glyph-name="gcommaaccent" unicode="&#x123;" horiz-adv-x="1159" 
d="M503 299q67 1 113 73t46 204t-44 212q-44 78 -114 78t-114 -73q-46 -73 -46 -209t46 -210q46 -75 113 -75zM348 270q-225 79 -225 340q0 135 106 230q110 94 273 94q107 0 182 -41q81 -36 131 -111q69 162 221 162t152 -139q0 -48 -29 -74q-23 -26 -61 -26q-65 0 -86 71
q-16 41 -56 41t-71 -22q-27 -27 -27 -56t12 -83t11 -85q1 -156 -85 -237t-282 -90q-131 -6 -199 -29q-57 -22 -57 -65q0 -60 111 -60q61 0 157 8t185 8q168 0 252 -90q86 -86 86 -225q0 -171 -141 -295q-140 -124 -390 -125q-250 0 -371 76q-116 79 -116 203q0 88 55 144
t147 56q53 0 82 -20q-96 -44 -96 -152q1 -108 79 -172q78 -65 239 -65t249 76.5t88 172.5t-51 150q-51 60 -157 60l-269 -9q-123 0 -196 43q-78 40 -78 124t61 143q57 60 164 69zM442 1264q0 -62 27 -62q18 0 23 8q28 21 58 21q30 -1 56 -29t25 -72t-35 -74t-96 -30t-111 55
q-45 57 -45 173t84 190q84 76 145 76q33 0 33 -31q0 -16 -10 -19q-154 -65 -154 -206z" />
    <glyph glyph-name="Hcircumflex" unicode="&#x124;" horiz-adv-x="1923" 
d="M1802 20q0 -26 -10 -26q-228 8 -354 8t-322 -8q-8 0 -8 26t8 25q121 13 165 43t44 133q0 393 -2 516q-294 -4 -435 -4t-288 12q0 -239 -6 -413v-115q0 -99 45 -135q50 -34 156 -37q6 1 6 -25t-10 -26q-229 8 -355 8t-321 -8q-9 0 -9 26t9 25q121 13 165 43t44 133
l-5 1039q0 79 -45 108q-44 33 -170 33q-8 1 -8 31t13 30q140 -10 358 -10l170 2q82 4 180 4q8 0 8 -30t-8 -29q-124 0 -168 -35q-43 -38 -43 -140t-6 -415q136 8 341 8t382 -10v278q-2 106 -2 180t-45 103q-44 33 -170 33q-8 1 -8 31t12 30q140 -10 358 -10l349 8
q10 0 10 -30t-10 -29q-123 -1 -167 -37t-44 -139l-11 -1008q0 -98 43 -135q50 -34 158 -37q6 1 6 -25zM687 1561q-11 0 -21 9q-14 12 -7 22t15 22l241 297q7 14 47 14t54 -14l254 -322q0 -26 -33 -26q-14 0 -20 6l-263 186l-243 -186q-13 -8 -24 -8z" />
    <glyph glyph-name="hcircumflex" unicode="&#x125;" horiz-adv-x="1236" 
d="M49 1448q-12 0 -12 30t12 29q152 1 256 17q105 16 127 16t21 -18q0 -131 -25 -809q37 101 140 161q104 60 214 60t196 -72t87 -207l-18 -491q-1 -70 23 -95t118 -28q10 1 10 -23t-10 -24l-256 12l-230 -4q-8 0 -8 24t8 23q65 0 93 21q24 24 24 35l10 522q0 86 -47 133
t-128 47q-80 0 -150 -77t-70 -230v-240q-2 -84 -2 -132t22 -63q22 -16 89 -16q8 1 8 -23t-8 -24l-215 4l-131 -5q-131 -5 -131 19t8 23q78 3 108 18q25 19 25 68l-4 1221q-1 58 -31 78t-123 20zM144 1561q-10 0 -20 9q-10 10 -10 14t2 7.5t6.5 10t8.5 12.5l242 297
q8 14 47 14t53 -14l254 -322q0 -26 -33 -26q-14 0 -20 6l-262 186l-244 -186q-14 -8 -24 -8z" />
    <glyph glyph-name="Hbar" unicode="&#x126;" horiz-adv-x="1923" 
d="M604 1059q0 -66 -4 -250q136 8 341 8t382 -10v252h-719zM1802 20q0 -26 -10 -26q-228 8 -354 8t-322 -8q-8 0 -8 26t8 25q121 13 165 43t44 133q0 393 -2 516q-294 -4 -435 -4t-288 12q0 -239 -6 -413v-115q0 -99 45 -135q50 -34 156 -37q6 1 6 -25t-10 -26
q-229 8 -355 8t-321 -8q-9 0 -9 26t9 25q121 13 165 43t44 133l-5 838h-190q-25 0 -25 50t25 50h190v101q0 79 -45 108q-44 33 -170 33q-8 1 -8 31t13 30q140 -10 358 -10l170 2q82 4 180 4q8 0 8 -30t-8 -29q-124 0 -168 -35q-43 -37 -43 -139v-66h715v101q0 79 -45 108
q-44 33 -170 33q-8 1 -8 31t12 30q140 -10 358 -10l349 8q10 0 10 -30t-10 -29q-123 -1 -167 -37t-44 -139v-66h190q25 0 25 -50t-25 -50h-192l-9 -842q0 -98 43 -135q50 -34 158 -37q6 1 6 -25z" />
    <glyph glyph-name="hbar" unicode="&#x127;" horiz-adv-x="1236" 
d="M68 1167q-21 -1 -21 49t21 50h135v84q-1 58 -31 78t-123 20q-12 0 -12 30t12 29q152 1 256 17q105 16 127 16t21 -26q0 -26 -7 -248h177q18 0 18 -50t-18 -49h-181q-8 -297 -14 -454q37 101 140 161q104 60 214 60t196 -72t87 -207l-18 -491q-1 -70 23 -95t118 -28
q10 1 10 -23t-10 -24l-256 12l-230 -4q-8 0 -8 24t8 23q65 0 93 21q24 24 24 35l10 522q0 86 -47 133t-128 47q-80 0 -150 -77t-70 -230v-240q-2 -84 -2 -132t22 -63q22 -16 89 -16q8 1 8 -23t-8 -24l-215 4l-131 -5q-131 -5 -131 19t8 23q78 3 108 18q25 19 25 68l-4 1038
h-135z" />
    <glyph glyph-name="Itilde" unicode="&#x128;" horiz-adv-x="923" 
d="M801 20q0 -26 -10 -26q-229 8 -355 8t-321 -8q-9 0 -9 26t9 27q121 13 165 43t44 133l-5 1032q0 80 -46 114t-169 34q-8 -1 -8 29t13 30q140 -10 358 -10l350 8q8 0 8 -28t-8 -29q-127 1 -169 -39t-42 -143l-12 -1004q0 -99 44 -133t157 -37q6 -1 6 -27zM766 1802
q0 -108 -48 -166t-120 -57q-71 -1 -167 71t-132 72q-76 0 -76 -100q0 -35 -28 -35q-37 0 -37 43q0 101 56 158t128 57t159 -56t128 -56q84 0 84 88q0 22 24 22q29 0 29 -41z" />
    <glyph glyph-name="itilde" unicode="&#x129;" horiz-adv-x="614" 
d="M61 20q0 22 9 23q81 3 110 25t29 84v344q-2 131 -2 252q0 67 -62 67h-59q-14 1 -14 25t14 24q170 9 315 74q17 3 29 -6t12 -37t-8 -307t-8 -447q0 -52 25 -71q22 -22 116 -25q8 -1 8 -25t-8 -24l-284 8q-70 0 -119 -4l-94 -2q-9 0 -9 22zM604 1323q0 -111 -50 -169
t-119 -58q-70 0 -159 72t-122 73q-76 0 -76 -102q0 -35 -29 -35q-37 0 -37 43q0 99 57 159t129 60t148 -58q75 -58 111 -57q94 0 94 92q0 21 24 21q29 0 29 -41z" />
    <glyph glyph-name="Imacron" unicode="&#x12a;" horiz-adv-x="923" 
d="M801 20q0 -26 -10 -26q-229 8 -355 8t-321 -8q-9 0 -9 26t9 27q121 13 165 43t44 133l-5 1032q0 80 -46 114t-169 34q-8 -1 -8 29t13 30q140 -10 358 -10l350 8q8 0 8 -28t-8 -29q-127 1 -169 -39t-42 -143l-12 -1004q0 -99 44 -133t157 -37q6 -1 6 -27zM717 1616h-510
q-31 0 -31 64t31 63h510q31 1 31 -63t-31 -64z" />
    <glyph glyph-name="imacron" unicode="&#x12b;" horiz-adv-x="614" 
d="M61 20q0 22 9 23q81 3 110 25t29 84v344q-2 131 -2 252q0 67 -62 67h-59q-14 1 -14 25t14 24q170 9 315 74q17 3 29 -6t12 -37t-8 -307t-8 -447q0 -52 25 -71q22 -22 116 -25q8 -1 8 -25t-8 -24l-284 8q-70 0 -119 -4l-94 -2q-9 0 -9 22zM547 1167h-504q-18 1 -18 55
t18 54h504q18 0 18 -54t-18 -55z" />
    <glyph glyph-name="Ibreve" unicode="&#x12c;" horiz-adv-x="923" 
d="M801 20q0 -26 -10 -26q-229 8 -355 8t-321 -8q-9 0 -9 26t9 27q121 13 165 43t44 133l-5 1032q0 80 -46 114t-169 34q-8 -1 -8 29t13 30q140 -10 358 -10l350 8q8 0 8 -28t-8 -29q-127 1 -169 -39t-42 -143l-12 -1004q0 -99 44 -133t157 -37q6 -1 6 -27zM205 1829
q-1 23 33 25t34 -25q0 -55 58 -92t128 -37t128 37q55 37 55 92q3 16 21 24t30 -2q18 -6 15 -22q0 -104 -69 -179q-70 -75 -182 -75q-112 -1 -182 75t-69 179z" />
    <glyph glyph-name="ibreve" unicode="&#x12d;" horiz-adv-x="614" 
d="M61 20q0 22 9 23q81 3 110 25t29 84v344q-2 131 -2 252q0 67 -62 67h-59q-14 1 -14 25t14 24q170 9 315 74q17 3 29 -6t12 -37t-8 -307t-8 -447q0 -52 25 -71q22 -22 116 -25q8 -1 8 -25t-8 -24l-284 8q-70 0 -119 -4l-94 -2q-9 0 -9 22zM66 1358q0 28 32 28t33 -28
q-1 -70 49 -115t130 -45t128 47q51 42 51 113q3 16 19 26q15 6 33 0q15 -11 12 -26q1 -128 -61 -220t-182 -91q-120 0 -183 92q-61 94 -61 219z" />
    <glyph glyph-name="Iogonek" unicode="&#x12e;" horiz-adv-x="923" 
d="M668 -229q47 0 47 -63t-64 -118q-67 -51 -165 -51t-154 52.5t-56 138.5t52 159q49 76 149 113h-24q-142 0 -338 -8q-9 0 -9 26t9 27q121 13 165 43t44 133l-5 1032q0 80 -46 114t-169 34q-8 -1 -8 29t13 30q140 -10 358 -10l350 8q8 0 8 -28t-8 -29q-127 1 -169 -39
t-42 -143l-12 -1004q0 -99 44 -133t157 -37q6 -1 6 -27t-10 -26q-132 6 -236 6q-65 -38 -99 -102t-34 -136q0 -143 113 -143q98 0 98 78l-6 41q0 33 41 33z" />
    <glyph glyph-name="iogonek" unicode="&#x12f;" horiz-adv-x="614" 
d="M457 1364q0 -54 -39 -92q-38 -38 -94 -37q-56 -1 -95 37t-39 92t39 93.5t95 39.5t94.5 -39.5t38.5 -93.5zM61 20q0 22 9 23q81 3 110 25t29 84v344q-2 131 -2 252q0 67 -62 67h-59q-14 1 -14 25t14 24q170 9 315 74q17 3 29 -6t12 -37t-8 -307t-8 -447q0 -52 25 -71
q22 -22 116 -25q8 -1 8 -25t-8 -24q-41 0 -86 4l-106 2q-135 -77 -135 -230t112 -153q99 0 99 78q0 13 -5 20l-2 21q0 33 41 33q47 1 47 -63t-63 -118q-67 -51 -165 -51t-154 52.5t-56 140.5t52 163t155 109h-18q-70 0 -119 -4l-94 -2q-9 0 -9 22z" />
    <glyph glyph-name="Idotaccent" unicode="&#x130;" horiz-adv-x="923" 
d="M801 20q0 -26 -10 -26q-229 8 -355 8t-321 -8q-9 0 -9 26t9 27q121 13 165 43t44 133l-5 1032q0 80 -46 114t-169 34q-8 -1 -8 29t13 30q140 -10 358 -10l350 8q8 0 8 -28t-8 -29q-127 1 -169 -39t-42 -143l-12 -1004q0 -99 44 -133t157 -37q6 -1 6 -27zM584 1737
q0 -51 -36 -87t-87 -36t-88 36t-37 88t36 86t88 34t88 -35t36 -86z" />
    <glyph glyph-name="dotlessi" unicode="&#x131;" horiz-adv-x="614" 
d="M61 20q0 22 9 23q81 3 110 25t29 84v344q-2 131 -2 252q0 67 -62 67h-59q-14 1 -14 25t14 24q170 9 315 74q17 3 29 -6t12 -37t-8 -307t-8 -447q0 -52 25 -71q22 -22 116 -25q8 -1 8 -25t-8 -24l-284 8q-70 0 -119 -4l-94 -2q-9 0 -9 22z" />
    <glyph glyph-name="IJ" unicode="&#x132;" horiz-adv-x="1839" 
d="M1014 -524q-153 0 -230 58t-77 136q0 111 112 111q56 0 78 -35q31 -31 37 -72q13 -43 41 -71q28 -35 86 -35q107 0 162 82t55 319l8 1258q0 161 -219 176q-6 1 -6 31t10 30q149 -12 295 -12t403 10q9 0 9 -30t-9 -29q-109 -9 -159 -55q-43 -49 -43 -162l-8 -1217
q0 -241 -158 -366q-154 -127 -387 -127zM801 22q0 -26 -10 -26q-229 8 -334 8l-342 -8q-9 0 -9 26t9 27q121 13 165 43t44 133l-5 1030q0 80 -46 114t-169 34q-8 -1 -8 29t13 30q140 -10 358 -10l350 8q8 0 8 -28t-8 -29q-127 1 -169 -39t-42 -143l-12 -1002q0 -99 44 -133
t157 -37q6 -1 6 -27z" />
    <glyph glyph-name="ij" unicode="&#x133;" horiz-adv-x="1226" 
d="M457 1364q0 -54 -39 -92q-38 -38 -94 -37q-56 -1 -95 37t-39 92t39 93.5t95 39.5t94.5 -39.5t38.5 -93.5zM946 1234q-55 0 -94 38t-39 92t39 93.5t94 39.5t94 -39.5t39 -93.5t-39 -92t-94 -38zM61 20q0 22 9 23q81 3 110 25t29 84v344q-2 131 -2 252q0 67 -62 67h-59
q-14 1 -14 25t14 24q170 9 315 74h9q32 0 32 -27q0 -44 -8 -323t-8 -447q0 -52 25 -71q22 -22 116 -25q8 1 8 -23t-8 -24l-108 2q-57 4 -142 4h-65l-182 -6q-9 0 -9 22zM768 815h-61q-13 1 -13 25t13 24q175 9 317 74q43 0 43 -27l-16 -1067q0 -234 -113 -356
q-116 -119 -315 -119q-121 0 -185 51t-65 121q0 41 24 68q26 26 67 26q41 1 66 -29q24 -30 32 -64t30 -66q23 -29 61 -29q91 1 131 65t41 214l4 1022q0 67 -61 67z" />
    <glyph glyph-name="Jcircumflex" unicode="&#x134;" horiz-adv-x="915" 
d="M90 -524q-152 0 -230 58t-77 136q0 111 113 111q85 0 116 -107q6 -38 39 -71q28 -35 86 -35q107 0 162 82t55 319l8 1260q0 161 -219 176q-6 -1 -6 29t10 30q150 -12 296 -12t403 10q8 0 8 -28t-8 -29q-116 -9 -158 -57q-45 -42 -45 -160l-8 -1219q0 -241 -158 -366
q-154 -127 -387 -127zM206 1561q-10 0 -22 9q-14 12 -6.5 22t15.5 22l241 297q8 14 48 14t53 -14l253 -322q0 -26 -32 -26q-15 0 -21 6l-262 186l-244 -186q-13 -8 -23 -8z" />
    <glyph glyph-name="jcircumflex" unicode="&#x135;" horiz-adv-x="610" 
d="M47 1040q-33 0 -33 31l17 33l231 350q10 16 47 16t47 -16l230 -350q2 -3 14 -31q0 -31 -33 -31q-9 0 -16 7l-252 227l-233 -227q-12 -9 -19 -9zM209 -274l1 201l2 451l3 361q0 66 -61 66h-62q-12 0 -12 28t12 31q160 12 318 74q41 0 41 -27l-17 -1067q0 -235 -112 -356
q-116 -119 -314 -119q-120 -1 -185 51t-65 121q0 40 25 68q26 26 67 26.5t66 -29.5q24 -30 32 -65t29 -65q23 -29 62 -29q92 0 129 64q41 61 41 215z" />
    <glyph glyph-name="Kcommaaccent" unicode="&#x136;" horiz-adv-x="1769" 
d="M809 20q0 -26 -10 -26q-253 12 -389 12t-289 -10q-8 0 -8 26t8 25q113 9 155 50t43 153l11 975q0 83 -43 125t-176 51q-9 1 -9 31t13 30q139 -10 341 -10t355 8q8 0 8 -30t-8 -29q-109 -3 -154 -45q-45 -36 -45 -146q-2 -46 -2 -90l-8 -211q0 -43 -1 -119t-1 -108
q153 120 361 346t208 313q0 62 -90 62q-8 -1 -8 27t8 28h101q66 -2 159 -2l119 2q22 2 72 5t72 5q10 0 10 -28t-10 -37q-160 -12 -287 -148q-230 -241 -424 -403q359 -417 556 -609t294 -192q28 -1 28 -29t-12 -28q-400 0 -441 17t-104 75q-124 116 -518 592l-94 -76
q0 -110 -2 -190q-6 -70 -1 -130t3 -90t12 -61q16 -31 22 -42t38 -23q55 -14 131 -19q6 -1 6 -27zM958 -349q0 64 -26 64q-20 0 -23 -10q-23 -18 -57 -18t-58 27q-24 28 -24 70t32 74t98 33q64 0 108 -52q44 -53 45 -163t-85 -194t-141 -84q-32 0 -32 31q0 15 10 18
q77 31 115 85t38 119z" />
    <glyph glyph-name="kcommaaccent" unicode="&#x137;" horiz-adv-x="1159" 
d="M76 20q0 22 8 23q79 6 101 28t22 83v1196q0 58 -28 78t-124 20q-12 0 -12 30t12 29q138 1 246 17t129 16t21 -18q0 -45 -4 -164t-21 -940q334 258 334 362q0 60 -103 60q-8 0 -8 24t8 23q48 0 97 -2h106q70 0 123 4l88 2q12 -1 12 -23t-8 -22q-80 -14 -190 -111
q-29 -22 -118.5 -103t-94.5 -85q126 -181 248 -321t166 -162q42 -22 79 -21q6 1 6 -23t-14 -24l-274 4q-53 0 -113 66t-264 350q-33 -33 -76 -58v-104l-4 -90v-51q0 -35 25 -47q19 -17 88 -23q6 -1 6 -23t-3 -22l-128 2q-52 4 -110 4t-111 -4l-107 -2q-10 0 -10 22z
M639 -348q0 64 -27 63q-19 0 -22 -10q-24 -18 -58 -18q-34 1 -58 27t-23 70q0 44 32.5 75.5t96.5 31.5t108 -52q44 -53 45 -163t-85 -194t-140 -84q-33 0 -33 31q0 15 10 18q76 31 113 86q41 55 41 119z" />
    <glyph glyph-name="Lacute" unicode="&#x139;" horiz-adv-x="1411" 
d="M1315 0h-948q-176 0 -277 -8q-10 0 -10 28t10 31q111 3 174 43q60 45 60 160v276l-5 699q0 101 -40 135q-37 37 -162 37q-6 1 -6 31t10 30q143 -10 346 -10l373 8q8 0 8 -30t-8 -29q-128 0 -185 -45q-54 -51 -51 -160l-12 -850q0 -154 72 -211q74 -53 229 -53
q225 0 313 88t103 260q3 25 38 25t35 -15l-16 -385q0 -40 -10 -47q-5 -8 -41 -8zM389 1550q-41 0 -41 23q0 6 4 10l250 313q15 21 121 21t106 -37q0 -16 -28 -35l-391 -289q-18 -6 -21 -6z" />
    <glyph glyph-name="lacute" unicode="&#x13a;" horiz-adv-x="624" 
d="M51 1450q-12 0 -12 28t12 29q138 1 248 17q109 16 117 16q33 0 33 -18q0 -8 -2 -50t-3 -102.5t-2 -94.5t-2 -121.5t-2 -137.5t-1.5 -178.5t-2.5 -238.5t-2 -441q0 -68 23 -88q18 -21 116 -27q7 1 7 -23t-11 -24l-250 8q-72 0 -133 -4l-118 -2q-9 0 -9 22t9 23
q94 9 118 26t23 76l-4 1207q1 58 -27 78t-125 20zM143 1550q-41 0 -41 23q0 6 4 10l250 313q16 21 122 21t106 -37q0 -16 -29 -35l-391 -289q-18 -6 -21 -6z" />
    <glyph glyph-name="Lcommaaccent" unicode="&#x13b;" horiz-adv-x="1411" 
d="M797 -346q0 60 -27 61q-15 0 -22 -10q-24 -18 -58 -18t-58 27q-24 28 -24 70t32 74t97 33q64 -1 109 -53t45 -162t-84 -196q-88 -82 -131 -82t-43 31q0 15 10 18q70 29 115 86q39 61 39 121zM1315 0h-948q-176 0 -277 -8q-10 0 -10 28t10 31q111 3 174 43q60 45 60 160
v276l-5 699q0 101 -40 135q-37 37 -162 37q-6 1 -6 31t10 30q143 -10 346 -10l373 8q8 0 8 -30t-8 -29q-128 0 -185 -45q-54 -51 -51 -160l-12 -850q0 -154 72 -211q74 -53 229 -53q225 0 313 88t103 260q3 25 38 25t35 -15l-16 -385q0 -40 -10 -47q-5 -8 -41 -8z" />
    <glyph glyph-name="lcommaaccent" unicode="&#x13c;" horiz-adv-x="624" 
d="M51 1450q-12 0 -12 28t12 29q138 1 248 17q109 16 117 16q33 0 33 -18q0 -8 -2 -50t-3 -102.5t-2 -94.5t-2 -121.5t-2 -137.5t-1.5 -178.5t-2.5 -238.5t-2 -441q0 -68 23 -88q18 -21 116 -27q7 1 7 -23t-11 -24l-250 8q-72 0 -133 -4l-118 -2q-9 0 -9 22t9 23
q94 9 118 26t23 76l-4 1207q1 58 -27 78t-125 20zM356 -348q0 64 -26 63q-20 0 -23 -10q-23 -18 -57 -18t-58 27q-24 28 -24 70t32 74t98 33q64 0 108 -52q44 -53 45 -163t-85 -194t-141 -84q-32 0 -32 31q0 15 10 18q73 29 113 85t40 120z" />
    <glyph glyph-name="Lcaron" unicode="&#x13d;" horiz-adv-x="1411" 
d="M1315 0h-948q-176 0 -277 -8q-10 0 -10 28t10 31q111 3 174 43q60 45 60 160v276l-5 699q0 101 -40 135q-37 37 -162 37q-6 1 -6 31t10 30q143 -10 346 -10l373 8q8 0 8 -30t-8 -29q-128 0 -185 -45q-54 -51 -51 -160l-12 -850q0 -154 72 -211q74 -53 229 -53
q225 0 313 88t103 260q3 25 38 25t35 -15l-16 -385q0 -40 -10 -47q-5 -8 -41 -8zM963 1473q0 38 92 38t92 -45q-97 -295 -170 -407q-7 -15 -33 -15t-26 25q16 54 28 182q17 125 17 222z" />
    <glyph glyph-name="lcaron" unicode="&#x13e;" horiz-adv-x="624" 
d="M51 1450q-12 0 -12 28t12 29q138 1 248 17q109 16 117 16q33 0 33 -18q0 -8 -2 -50t-3 -102.5t-2 -94.5t-2 -121.5t-2 -137.5t-1.5 -178.5t-2.5 -238.5t-2 -441q0 -68 23 -88q18 -21 116 -27q7 1 7 -23t-11 -24l-250 8q-72 0 -133 -4l-118 -2q-9 0 -9 22t9 23
q94 9 118 26t23 76l-4 1207q1 58 -27 78t-125 20zM555 1473q0 38 92 38t92 -45q-97 -295 -170 -407q-7 -15 -33 -15t-26 25q11 37 31 182q14 154 14 222z" />
    <glyph glyph-name="Lslash" unicode="&#x141;" horiz-adv-x="1411" 
d="M117 1399q-6 1 -6 33t10 32q143 -10 287 -10t235 4l197 2q8 0 8 -32t-8 -31q-132 0 -184 -46t-52 -157q0 -40 -4 -328l322 164q22 0 22 -62t-16 -73l-330 -168q-6 -217 -6 -373t72 -212q72 -54 229 -54q223 0 309 87t101 259q3 27 41 27t38 -15l-16 -385q0 -39 -10 -47
q-5 -8 -41 -8l-457 -2q-272 -4 -470 -4t-298 -8q-10 0 -10 30t10 29q117 6 176 45q58 42 58 158v340l-181 -92q-14 0 -14 66t8 69l187 96l-5 494q0 101 -40 135q-37 37 -162 37z" />
    <glyph glyph-name="lslash" unicode="&#x142;" horiz-adv-x="624" 
d="M57 20q0 22 9 23q94 9 118 26t23 76q0 392 -2 529l-137 -101q-17 1 -17 57t12 62l142 107v338q-2 129 -2 197t-28 88t-124 20q-12 0 -12 32t12 33q138 1 248 17q109 16 117 16q33 0 33 -18q0 -8 -2 -49t-2.5 -69t-1 -71t-1.5 -83t-2 -135t-2 -144l125 92q21 0 21 -51
t-15 -66l-135 -100q-2 -119 -2 -688q0 -68 23 -88q18 -21 116 -27q7 1 7 -23t-11 -24l-250 8q-72 0 -133 -4l-118 -2q-9 0 -9 22z" />
    <glyph glyph-name="Nacute" unicode="&#x143;" horiz-adv-x="1775" 
d="M1397 -25q-16 0 -35 29q-72 108 -440 566t-500 599q-3 -205 1 -409t5 -280.5t1.5 -112.5t0.5 -41q0 -138 49 -199q46 -64 213 -82q6 -5 6 -29t-12 -24q-76 8 -248 8t-350 -8q-8 0 -8 28t8 29q138 0 182 53q47 50 47 181l23 911q0 80 -66 137q-63 63 -200 72q-6 1 -6 31
t10 30q147 -10 276 -10h133q29 2 49 2t31 -18l25 -31q257 -301 469 -567q261 -318 321 -422v774q0 116 -50 166t-177 53q-8 1 -8 27t12 26q176 -12 291 -12t248 8q8 0 8 -32t-8 -31q-103 0 -160 -45q-55 -49 -55 -170l-15 -650v-172l5 -354q0 -31 -76 -31zM768 1550
q-41 0 -41 23q0 6 4 10l250 313q15 21 121 21t106 -37q0 -16 -28 -35l-392 -289q-18 -6 -20 -6z" />
    <glyph glyph-name="nacute" unicode="&#x144;" horiz-adv-x="1247" 
d="M150 815h-58q-12 1 -12 25t12 24q126 3 318 72q34 0 34 -25q0 -10 -4 -104t-4 -96q38 103 140 163t215 60q112 0 197 -72t85 -209l-16 -458q0 -102 20 -125q17 -29 115 -29q8 1 8 -23t-8 -24l-240 10h-131q-55 -2 -108 -2q-8 0 -8 24t8 23q72 3 93 24t21 66l9 492
q0 83 -45 131q-49 45 -129 45t-150 -76q-68 -77 -68 -233l-4 -373q0 -41 27 -59t86 -17q8 1 8 -23t-8 -24l-221 4l-128 -5q-128 -5 -128 19t8 23q85 6 109 22t24 64l-4 612q0 40 -12 58q-16 16 -51 16zM479 1038q-37 0 -37 27l4 12l218 363q14 24 106 24t92 -45
q0 -18 -24 -39l-342 -333q-9 -9 -17 -9z" />
    <glyph glyph-name="Ncommaaccent" unicode="&#x145;" horiz-adv-x="1775" 
d="M973 -346q0 60 -27 61q-15 0 -22 -10q-24 -18 -58 -18t-58 27q-24 28 -24 70t32 74t97 33q64 -1 109 -53t45 -162t-84 -196q-88 -82 -131 -82t-43 31q0 15 10 18q70 29 115 86q39 61 39 121zM1397 -25q-16 0 -35 29q-72 108 -440 566t-500 599q-3 -205 1 -409t5 -280.5
t1.5 -112.5t0.5 -41q0 -138 49 -199q46 -64 213 -82q6 -5 6 -29t-12 -24q-76 8 -248 8t-350 -8q-8 0 -8 28t8 29q138 0 182 53q47 50 47 181l23 911q0 80 -66 137q-63 63 -200 72q-6 1 -6 31t10 30q147 -10 276 -10h133q29 2 49 2t31 -18l25 -31q257 -301 469 -567
q261 -318 321 -422v774q0 116 -50 166t-177 53q-8 1 -8 27t12 26q176 -12 291 -12t248 8q8 0 8 -32t-8 -31q-103 0 -160 -45q-55 -49 -55 -170l-15 -650v-172l5 -354q0 -31 -76 -31z" />
    <glyph glyph-name="ncommaaccent" unicode="&#x146;" horiz-adv-x="1247" 
d="M150 815h-58q-12 1 -12 25t12 24q126 3 318 72q34 0 34 -25q0 -10 -4 -104t-4 -96q38 103 140 163t215 60q112 0 197 -72t85 -209l-16 -458q0 -102 20 -125q17 -29 115 -29q8 1 8 -23t-8 -24l-240 10h-131q-55 -2 -108 -2q-8 0 -8 24t8 23q72 3 93 24t21 66l9 492
q0 83 -45 131q-49 45 -129 45t-150 -76q-68 -77 -68 -233l-4 -373q0 -41 27 -59t86 -17q8 1 8 -23t-8 -24l-221 4l-128 -5q-128 -5 -128 19t8 23q85 6 109 22t24 64l-4 612q0 40 -12 58q-16 16 -51 16zM668 -348q0 64 -27 63q-20 0 -23 -10q-24 -18 -58 -18t-57 27
q-24 28 -24 70q1 42 33 74t96 33q64 0 110 -52q44 -53 44 -163t-86 -194t-139 -84q-33 0 -33 31q0 15 10 18q76 31 113 86q41 55 41 119z" />
    <glyph glyph-name="Ncaron" unicode="&#x147;" horiz-adv-x="1775" 
d="M900 1571q-40 0 -50 14l-234 293q-8 8 -20 29q0 26 33 26q11 0 20 -6l262 -186l244 186q9 6 21 6q34 0 34 -26q-105 -132 -262 -322q-8 -14 -48 -14zM1397 -25q-16 0 -35 29q-72 108 -440 566t-500 599q-3 -205 1 -409t5 -280.5t1.5 -112.5t0.5 -41q0 -138 49 -199
q46 -64 213 -82q6 -5 6 -29t-12 -24q-76 8 -248 8t-350 -8q-8 0 -8 28t8 29q138 0 182 53q47 50 47 181l23 911q0 80 -66 137q-63 63 -200 72q-6 1 -6 31t10 30q147 -10 276 -10h133q29 2 49 2t31 -18l25 -31q257 -301 469 -567q261 -318 321 -422v774q0 116 -50 166
t-177 53q-8 1 -8 27t12 26q176 -12 291 -12t248 8q8 0 8 -32t-8 -31q-103 0 -160 -45q-55 -49 -55 -170l-15 -650v-172l5 -354q0 -31 -76 -31z" />
    <glyph glyph-name="ncaron" unicode="&#x148;" horiz-adv-x="1247" 
d="M362 1470q11 0 17 -6l252 -229l233 229q9 6 19 6q32 0 32 -30q-2 -7 -16 -31l-231 -352q-10 -17 -48 -17t-47 17l-229 352q-5 8 -14 31q0 30 32 30zM150 815h-58q-12 1 -12 25t12 24q126 3 318 72q34 0 34 -25q0 -10 -4 -104t-4 -96q38 103 140 163t215 60q112 0 197 -72
t85 -209l-16 -458q0 -102 20 -125q17 -29 115 -29q8 1 8 -23t-8 -24l-240 10h-131q-55 -2 -108 -2q-8 0 -8 24t8 23q72 3 93 24t21 66l9 492q0 83 -45 131q-49 45 -129 45t-150 -76q-68 -77 -68 -233l-4 -373q0 -41 27 -59t86 -17q8 1 8 -23t-8 -24l-221 4l-128 -5
q-128 -5 -128 19t8 23q85 6 109 22t24 64l-4 612q0 40 -12 58q-16 16 -51 16z" />
    <glyph glyph-name="napostrophe" unicode="&#x149;" horiz-adv-x="1247" 
d="M150 815h-58q-12 1 -12 25t12 24q126 3 318 72q34 0 34 -25q0 -10 -4 -104t-4 -96q38 103 140 163t215 60q112 0 197 -72t85 -209l-16 -458q0 -102 20 -125q17 -29 115 -29q8 1 8 -23t-8 -24l-240 10h-131q-55 -2 -108 -2q-8 0 -8 24t8 23q72 3 93 24t21 66l9 492
q0 83 -45 131q-49 45 -129 45t-150 -76q-68 -77 -68 -233l-4 -373q0 -41 27 -59t86 -17q8 1 8 -23t-8 -24l-221 4l-128 -5q-128 -5 -128 19t8 23q85 6 109 22t24 64l-4 612q0 40 -12 58q-16 16 -51 16zM195 1428q-1 42 33 72q34 32 80 32t79 -33t33 -74t-4 -61l-84 -342
q-3 -21 -34 -21t-34 21l-67 354q-2 10 -2 52z" />
    <glyph glyph-name="Eng" unicode="&#x14a;" horiz-adv-x="1775" 
d="M698 16q0 -24 -12 -24q-120 10 -238 10t-360 -10q-8 0 -8 30t8 29q138 0 182 53q47 50 47 181l23 905q0 82 -66 139q-64 61 -200 70q-6 1 -6 33t10 32q147 -10 276 -10h133q29 2 49 2t31 -18l25 -31q257 -301 469 -567q261 -318 321 -422q0 41 -2 74v253q2 82 2 197v248
q0 118 -49 168t-178 53q-8 1 -8 27t12 26q177 -12 253 -12t284 10q8 0 8 -34t-8 -33q-107 1 -160 -45t-53 -170l-19 -873v-162q0 -46 -4 -190q-12 -225 -125 -354q-116 -125 -299 -125q-30 0 -30 32t16 33q146 0 235 133q93 134 93 342q-73 106 -439 566q-360 447 -489 587
l8 -870q0 -122 53 -178q51 -61 209 -76q6 -5 6 -29z" />
    <glyph glyph-name="eng" unicode="&#x14b;" horiz-adv-x="1226" 
d="M70 20q0 24 8 23q86 7 110 23t23 63v47q0 184 -2 313v242q0 74 -64 74h-57q-12 0 -12 28t12 31q60 4 84 9t100 20q36 14 66 22t43.5 12.5t19.5 6t7 2.5q32 0 32 -25q0 -12 -10 -200q42 105 142 164t214 59t197.5 -72t83.5 -209v-28l-12 -664q0 -215 -107 -339t-248 -124
q-43 0 -43 45q3 16 17 19q74 18 114 90q41 68 41 180l-4 221l2 295q4 133 4 245t-45.5 163t-121.5 51t-144 -62q-64 -67 -75 -176t-11 -444q0 -40 25 -59q31 -17 88 -17q8 1 8 -23t-8 -24l-219 4l-250 -10q-8 0 -8 24z" />
    <glyph glyph-name="Omacron" unicode="&#x14c;" horiz-adv-x="1806" 
d="M904 33q232 0 366 184q131 185 131 491t-141 509q-142 198 -365 198t-358 -194q-140 -195 -140 -508t140 -496q135 -184 367 -184zM1724 722q0 -322 -239 -542q-243 -217 -598 -217t-584 209q-225 212 -225 540t240 557q240 228 588 228t581 -227q237 -226 237 -548z
M1157 1616h-510q-31 0 -31 64t31 63h510q31 1 31 -63t-31 -64z" />
    <glyph glyph-name="omacron" unicode="&#x14d;" horiz-adv-x="1138" 
d="M574 27q117 0 180 106q61 107 61 307t-65 312q-61 116 -183 116q-241 0 -241 -407q0 -202 63 -322q68 -112 185 -112zM68 448q0 206 145 346t361 140t357 -140q140 -140 140 -346t-145 -346q-146 -137 -363 -137t-356 139t-139 344zM819 1167h-504q-18 1 -18 55t18 54
h504q19 0 19 -54t-19 -55z" />
    <glyph glyph-name="Obreve" unicode="&#x14e;" horiz-adv-x="1806" 
d="M904 33q232 0 366 184q131 185 131 491t-141 509q-142 198 -365 198t-358 -194q-140 -195 -140 -508t140 -496q135 -184 367 -184zM1724 722q0 -322 -239 -542q-243 -217 -598 -217t-584 209q-225 212 -225 540t240 557q240 228 588 228t581 -227q237 -226 237 -548z
M651 1829q0 23 34 25t34 -25q-1 -55 57 -92t128 -37t128 37q55 37 55 92q3 16 21 24t31 -2q17 -6 14 -22q0 -104 -69 -179t-181 -75t-182 76t-70 178z" />
    <glyph glyph-name="obreve" unicode="&#x14f;" horiz-adv-x="1138" 
d="M574 27q117 0 180 106q61 107 61 307t-65 312q-61 116 -183 116q-241 0 -241 -407q0 -202 63 -322q68 -112 185 -112zM68 448q0 206 145 346t361 140t357 -140q140 -140 140 -346t-145 -346q-146 -137 -363 -137t-356 139t-139 344zM322 1358q0 28 32 28t33 -28
q0 -71 51 -113q48 -47 128 -47t130 45t49 115q3 16 19 26q16 8 32 0t13 -26q1 -128 -61 -220t-182 -91q-120 0 -183 92q-61 94 -61 219z" />
    <glyph glyph-name="Ohungarumlaut" unicode="&#x150;" horiz-adv-x="1806" 
d="M904 33q232 0 366 184q131 185 131 491t-141 509q-142 198 -365 198t-358 -194q-140 -195 -140 -508t140 -496q135 -184 367 -184zM1724 722q0 -322 -239 -542q-243 -217 -598 -217t-584 209q-225 212 -225 540t240 557q240 228 588 228t581 -227q237 -226 237 -548z
M928 1556q-23 0 -23 19q10 15 15 20l159 209q47 62 121 62t74 -33q0 -16 -35 -51l-287 -217q-9 -9 -24 -9zM784 1804q46 64 122 64t75 -39q0 -20 -37 -47l-287 -217q-9 -9 -27 -9t-18 13v6z" />
    <glyph glyph-name="ohungarumlaut" unicode="&#x151;" horiz-adv-x="1138" 
d="M574 27q117 0 180 106q61 107 61 307t-65 312q-61 116 -183 116q-241 0 -241 -407q0 -202 63 -322q68 -112 185 -112zM68 448q0 206 145 346t361 140t357 -140q140 -140 140 -346t-145 -346q-146 -137 -363 -137t-356 139t-139 344zM600 1036q-18 0 -18 17v4l12 24
l186 301q36 41 100 41t64 -41q0 -17 -37 -63l-280 -275q-9 -8 -27 -8zM313 1036q-22 0 -22 21l12 24l156 254q25 36 37 50q36 40 96 40q61 0 61 -41q0 -24 -35 -65l-280 -275q-8 -8 -25 -8z" />
    <glyph glyph-name="OE" unicode="&#x152;" horiz-adv-x="2498" 
d="M2357 -4q-314 0 -1186 4q-146 -41 -282 -41q-354 0 -584 213q-227 214 -227 544t240 556t583 227q164 0 297 -47q66 2 352 2t494 14q207 14 215 13q29 0 29 -35l-13 -316q0 -14 -29 -14t-32 10q-21 101 -76 156q-110 104 -470 104q-182 0 -310 -14q315 -207 342 -557
q151 6 213 53q61 49 61 160q0 21 36 21t36 -23q-2 -22 -6 -44t-4 -155q0 -132 7 -217t7 -88q0 -16 -38 -16t-38 18q-3 107 -61 162q-53 56 -209 59q-6 -197 -90 -368t-244 -281q121 -26 372 -26t415 90q166 85 184 272q3 27 39 27t37 -15l-9 -391q0 -33 -8 -49
q-16 -8 -43 -8zM397 718q0 -313 139 -502q138 -189 368 -189t366 186q131 193 131 500q-1 307 -141 505t-364 199q-224 0 -359 -194q-140 -192 -140 -505z" />
    <glyph glyph-name="oe" unicode="&#x153;" horiz-adv-x="1718" 
d="M1294 864q-174 0 -235 -217q85 0 180 7t134 9t61 9q14 14 14 47q0 145 -154 145zM572 29q122 0 182 106q63 103 63 299t-63 316q-68 112 -187 112q-243 0 -243 -401q0 -210 65 -320q61 -112 183 -112zM1307 934q172 0 266 -98q92 -100 92 -207q0 -25 -8 -33t-31 -8
q-377 0 -577 8q-9 -40 -9 -92q0 -181 86 -293q88 -111 243 -111t222 101q5 8 17 8t25.5 -10t13.5 -23q-91 -211 -359 -211q-230 0 -358 146q-144 -146 -364 -146t-359 139t-139 344q0 206 145 346t366 140t367 -158q140 158 361 158z" />
    <glyph glyph-name="Racute" unicode="&#x154;" horiz-adv-x="1662" 
d="M881 1458q229 0 355 -110t126 -252t-105 -248q-108 -101 -307 -131q30 -18 74 -62l37 -37q29 -29 42 -43t29 -31t26 -29t34 -40q26 -28 139 -153t186 -186q74 -61 158 -70q19 0 19 -32t-23 -32l-307 -10q-68 0 -154 75t-266 308q-40 51 -53 69l-49 66q-38 50 -54 70
q-31 41 -54 65l-25 25q-3 3 -17 10q-78 4 -96 4l-4 -465q0 -98 40 -134t136 -36q8 -1 8 -27t-12 -26q-140 10 -313 10l-166 -4q-166 -4 -166 22t8 27q115 9 156 47q43 34 43 162l-9 975q0 92 -43 129q-39 39 -151 39q-6 1 -6 31t10 30q108 -12 311 -12l221 2q104 4 222 4z
M731 745q322 0 322 318q0 323 -285 323q-112 0 -164 -8q-8 -117 -8 -630q27 -3 135 -3zM614 1550q-41 0 -41 23q0 5 5 10l249 313q15 21 121 21t107 -37q0 -16 -29 -35l-391 -289q-18 -6 -21 -6z" />
    <glyph glyph-name="racute" unicode="&#x155;" horiz-adv-x="854" 
d="M63 22q0 24 9 23q74 0 106 21q29 26 29 65t2 102v238q2 94 2 285q0 59 -51 59h-82q-12 0 -12 23t12 26q163 9 323 72q35 0 35 -27t-6 -194q34 95 118 157t162 62t115 -37t37 -93t-28 -94t-78 -38t-70 45q-26 63 -111 63q-122 -15 -137 -213q-6 -68 -6 -430q0 -49 35 -67
q36 -23 129 -23q8 1 8 -23t-8 -24l-262 4q-84 0 -150 -4l-112 -2q-9 0 -9 24zM367 1038q-37 0 -37 27l4 12l217 363q15 24 107 24t92 -45q0 -17 -25 -39l-342 -333q-9 -9 -16 -9z" />
    <glyph glyph-name="Rcommaaccent" unicode="&#x156;" horiz-adv-x="1662" 
d="M920 -346q0 60 -27 61q-16 0 -23 -10q-24 -18 -58 -18t-57 27q-24 28 -24 70q1 42 33 74t96 33q64 -1 109 -53t45 -162t-84 -196q-88 -82 -142 -82q-32 0 -32 31q0 15 10 18q70 29 115 86q39 61 39 121zM881 1458q229 0 355 -110t126 -252t-105 -248q-108 -101 -307 -131
q30 -18 74 -62l37 -37q29 -29 42 -43t29 -31t26 -29t34 -40q26 -28 139 -153t186 -186q74 -61 158 -70q19 0 19 -32t-23 -32l-307 -10q-68 0 -154 75t-266 308q-40 51 -53 69l-49 66q-38 50 -54 70q-31 41 -54 65l-25 25q-3 3 -17 10q-78 4 -96 4l-4 -465q0 -98 40 -134
t136 -36q8 -1 8 -27t-12 -26q-140 10 -313 10l-166 -4q-166 -4 -166 22t8 27q115 9 156 47q43 34 43 162l-9 975q0 92 -43 129q-39 39 -151 39q-6 1 -6 31t10 30q108 -12 311 -12l221 2q104 4 222 4zM731 745q322 0 322 318q0 323 -285 323q-112 0 -164 -8q-8 -117 -8 -630
q27 -3 135 -3z" />
    <glyph glyph-name="rcommaaccent" unicode="&#x157;" horiz-adv-x="854" 
d="M63 22q0 24 9 23q74 0 106 21q29 26 29 65t2 102v238q2 94 2 285q0 59 -51 59h-82q-12 0 -12 23t12 26q163 9 323 72q35 0 35 -27t-6 -194q34 95 118 157t162 62t115 -37t37 -93t-28 -94t-78 -38t-70 45q-26 63 -111 63q-122 -15 -137 -213q-6 -68 -6 -430q0 -49 35 -67
q36 -23 129 -23q8 1 8 -23t-8 -24l-262 4q-84 0 -150 -4l-112 -2q-9 0 -9 24zM369 -348q0 64 -27 63q-20 0 -23 -10q-23 -18 -57 -18t-58 27q-24 28 -24 70t32 74t98 33q64 0 108 -52q44 -53 45 -163t-85 -194t-140 -84q-33 0 -33 31q0 15 10 18q76 31 113 86q41 55 41 119z
" />
    <glyph glyph-name="Rcaron" unicode="&#x158;" horiz-adv-x="1662" 
d="M786 1571q-40 0 -51 14l-233 293q-10 10 -21 29q0 26 33 26q12 0 21 -6l262 -186l243 186q9 6 21 6q35 0 35 -26q-105 -132 -262 -322q-8 -14 -48 -14zM881 1458q229 0 355 -110t126 -252t-105 -248q-108 -101 -307 -131q30 -18 74 -62l37 -37q29 -29 42 -43t29 -31
t26 -29t34 -40q26 -28 139 -153t186 -186q74 -61 158 -70q19 0 19 -32t-23 -32l-307 -10q-68 0 -154 75t-266 308q-40 51 -53 69l-49 66q-38 50 -54 70q-31 41 -54 65l-25 25q-3 3 -17 10q-78 4 -96 4l-4 -465q0 -98 40 -134t136 -36q8 -1 8 -27t-12 -26q-140 10 -313 10
l-166 -4q-166 -4 -166 22t8 27q115 9 156 47q43 34 43 162l-9 975q0 92 -43 129q-39 39 -151 39q-6 1 -6 31t10 30q108 -12 311 -12l221 2q104 4 222 4zM731 745q322 0 322 318q0 323 -285 323q-112 0 -164 -8q-8 -117 -8 -630q27 -3 135 -3z" />
    <glyph glyph-name="rcaron" unicode="&#x159;" horiz-adv-x="854" 
d="M207 1470q10 0 16 -6l252 -229l234 229q9 6 18 6q33 0 33 -30q-1 -3 -17 -31l-231 -352q-10 -17 -47 -17t-47 17l-230 352q-12 20 -14 31q0 30 33 30zM63 22q0 24 9 23q74 0 106 21q29 26 29 65t2 102v238q2 94 2 285q0 59 -51 59h-82q-12 0 -12 23t12 26q163 9 323 72
q35 0 35 -27t-6 -194q34 95 118 157t162 62t115 -37t37 -93t-28 -94t-78 -38t-70 45q-26 63 -111 63q-122 -15 -137 -213q-6 -68 -6 -430q0 -49 35 -67q36 -23 129 -23q8 1 8 -23t-8 -24l-262 4q-84 0 -150 -4l-112 -2q-9 0 -9 24z" />
    <glyph glyph-name="Sacute" unicode="&#x15a;" horiz-adv-x="1284" 
d="M168 504q0 18 35 18t35 -12q0 -217 120 -342t301 -125q131 0 205 68q72 72 72 179t-55 177t-140 104q-30 13 -151.5 64.5t-205.5 97.5t-138 135q-56 86 -56 215q0 183 130 299t317 115q141 0 260 -61q41 -21 49 -21q37 0 49 43q3 10 29 10t27 -16q0 -1 -3.5 -33
t-10.5 -178t-7 -186q0 -19 -32 -19t-33 21q1 159 -79 263t-245 103q-108 1 -175 -65t-67 -156q1 -90 41 -140t109 -87q96 -43 161 -65q64 -22 146 -60t148 -90t108 -142t43 -212q0 -206 -144 -324t-341 -119q-85 0 -174 21q-88 26 -120 48t-73 50q-38 20 -55 20t-31 -26
t-14 -47q0 -11 -33 -11t-33 27q15 85 23 243t8 216zM489 1550q-40 0 -40 23q0 6 4 10l249 313q16 21 122 21t106 -37q0 -16 -29 -35l-391 -289q-18 -6 -21 -6z" />
    <glyph glyph-name="sacute" unicode="&#x15b;" horiz-adv-x="827" 
d="M136 295q22 0 22 -12q16 -123 88 -187t152 -63q80 0 130 35q45 36 45 100t-47 104q-47 41 -122 70q-74 29 -132 56t-100 89q-47 61 -47 160q0 135 92 209q90 78 213 78t199 -76q23 10 43 33q33 0 33 -12t-5 -43l-4 -95q-4 -33 -4 -84q0 -16 -25 -16t-28 18
q-14 96 -74 156q-61 55 -130 55t-109 -34t-39 -91q1 -58 45 -94q44 -35 102 -59t144 -65q85 -41 131 -109q49 -64 49 -160q0 -148 -110 -220t-244 -73q-134 0 -209 60q-22 14 -32 14t-26 -16q-14 -7 -18 -7q-19 0 -19 15l13 248q1 16 23 16zM295 1038q-37 0 -37 27l4 12
l217 363q15 24 107 24t92 -45q0 -17 -25 -39l-342 -333q-9 -9 -16 -9z" />
    <glyph glyph-name="Scircumflex" unicode="&#x15c;" horiz-adv-x="1284" 
d="M168 504q0 18 35 18t35 -12q0 -217 120 -342t301 -125q131 0 205 68q72 72 72 179t-55 177t-140 104q-30 13 -151.5 64.5t-205.5 97.5t-138 135q-56 86 -56 215q0 183 130 299t317 115q141 0 260 -61q41 -21 49 -21q37 0 49 43q3 10 29 10t27 -16q0 -1 -3.5 -33
t-10.5 -178t-7 -186q0 -19 -32 -19t-33 21q1 159 -79 263t-245 103q-108 1 -175 -65t-67 -156q1 -90 41 -140t109 -87q96 -43 161 -65q64 -22 146 -60t148 -90t108 -142t43 -212q0 -206 -144 -324t-341 -119q-85 0 -174 21q-88 26 -120 48t-73 50q-38 20 -55 20t-31 -26
t-14 -47q0 -11 -33 -11t-33 27q15 85 23 243t8 216zM367 1561q-11 1 -21 9t-10 13t2.5 8.5t7 10t8.5 12.5l242 297q8 14 47 14t53 -14l254 -322q0 -26 -32 -26q-15 0 -21 6l-262 186l-244 -186q-13 -8 -24 -8z" />
    <glyph glyph-name="scircumflex" unicode="&#x15d;" horiz-adv-x="827" 
d="M136 295q22 0 22 -12q16 -123 88 -187t152 -63q80 0 130 35q45 36 45 100t-47 104q-47 41 -122 70q-74 29 -132 56t-100 89q-47 61 -47 160q0 135 92 209q90 78 213 78t199 -76q23 10 43 33q33 0 33 -12t-5 -43l-4 -95q-4 -33 -4 -84q0 -16 -25 -16t-28 18
q-14 96 -74 156q-61 55 -130 55t-109 -34t-39 -91q1 -58 45 -94q44 -35 102 -59t144 -65q85 -41 131 -109q49 -64 49 -160q0 -148 -110 -220t-244 -73q-134 0 -209 60q-22 14 -32 14t-26 -16q-14 -7 -18 -7q-19 0 -19 15l13 248q1 16 23 16zM178 1040q-33 0 -33 31l17 33
l231 350q10 16 47 16t47 -16l230 -350q2 -3 14 -31q0 -31 -33 -31q-9 0 -16 7l-252 227l-233 -227q-12 -9 -19 -9z" />
    <glyph glyph-name="Scaron" unicode="&#x160;" horiz-adv-x="1284" 
d="M642 1571q-40 0 -50 14l-234 293q-8 8 -20 29q0 26 33 26q11 0 20 -6l262 -186l244 186q9 6 21 6q34 0 34 -26q-105 -132 -262 -322q-8 -14 -48 -14zM168 504q0 18 35 18t35 -12q0 -217 120 -342t301 -125q131 0 205 68q72 72 72 179t-55 177t-140 104
q-30 13 -151.5 64.5t-205.5 97.5t-138 135q-56 86 -56 215q0 183 130 299t317 115q141 0 260 -61q41 -21 49 -21q37 0 49 43q3 10 29 10t27 -16q0 -1 -3.5 -33t-10.5 -178t-7 -186q0 -19 -32 -19t-33 21q1 159 -79 263t-245 103q-108 1 -175 -65t-67 -156q1 -90 41 -140
t109 -87q96 -43 161 -65q64 -22 146 -60t148 -90t108 -142t43 -212q0 -206 -144 -324t-341 -119q-85 0 -174 21q-88 26 -120 48t-73 50q-38 20 -55 20t-31 -26t-14 -47q0 -11 -33 -11t-33 27q15 85 23 243t8 216z" />
    <glyph glyph-name="scaron" unicode="&#x161;" horiz-adv-x="827" 
d="M136 295q22 0 22 -12q16 -123 88 -187t152 -63q80 0 130 35q45 36 45 100t-47 104q-47 41 -122 70q-74 29 -132 56t-100 89q-47 61 -47 160q0 135 92 209q90 78 213 78t199 -76q23 10 43 33q33 0 33 -12t-5 -43l-4 -95q-4 -33 -4 -84q0 -16 -25 -16t-28 18
q-14 96 -74 156q-61 55 -130 55t-109 -34t-39 -91q1 -58 45 -94q44 -35 102 -59t144 -65q85 -41 131 -109q49 -64 49 -160q0 -148 -110 -220t-244 -73q-134 0 -209 60q-22 14 -32 14t-26 -16q-14 -7 -18 -7q-19 0 -19 15l13 248q1 16 23 16zM164 1470q10 0 16 -6l252 -229
l234 229q9 6 18 6q33 0 33 -30q-1 -3 -17 -31l-231 -352q-10 -17 -47 -17t-47 17l-230 352q-12 19 -14 31q0 30 33 30z" />
    <glyph glyph-name="Tcaron" unicode="&#x164;" horiz-adv-x="1474" 
d="M736 1571q-40 0 -50 14l-233 293q-10 10 -21 29q0 26 33 26q11 0 20 -6l263 -186l243 186q9 6 21 6q35 0 35 -26q-82 -103 -263 -322q-8 -14 -48 -14zM1081 19q0 -25 -10 -25q-199 12 -353 12t-323 -8q-8 0 -8 22t8 31q106 9 154 51q47 44 47 150l8 1112q-105 6 -180 6
q-159 0 -237 -74t-124 -245q-3 -13 -29 -13t-26 17l15 381q0 32 30 32q1 0 217 -8t377 -8t302 2t238 6t111 4l119 4q31 0 31 -8l14 -405q0 -17 -26 -17t-29 13q-45 171 -121 247q-81 72 -237 72q-4 0 -164 -4l-8 -1122q0 -112 44 -153t154 -44q6 -3 6 -28z" />
    <glyph glyph-name="tcaron" unicode="&#x165;" horiz-adv-x="712" 
d="M78 828q0 19 10 22q90 28 166 114t111 195q3 8 28 8t25 -14q0 -187 -6 -272q234 6 246 6t12 -48t-13 -48h-251v-410q-3 -62 -3 -126t12 -95q13 -32 21 -46t30 -24t61 -10t76 16t44 41q3 19 25 19t22 -19q0 -74 -70 -122t-192 -48t-190 56q-64 58 -64 194l10 547
q0 27 -16 37q-16 7 -38 3t-40 -1q-16 6 -16 25zM575 1473q1 38 93 38t92 -45q-97 -295 -170 -407q-6 -15 -33 -15t-27 25q11 37 31 182q14 154 14 222z" />
    <glyph glyph-name="Tbar" unicode="&#x166;" horiz-adv-x="1474" 
d="M879 700h215q18 0 18 -51t-18 -51h-215q-2 -113 -2 -354q0 -112 44 -153t154 -44q6 -3 6 -28t-10 -25q-199 12 -353 12t-323 -8q-8 0 -8 22t8 31q106 9 154 51q47 44 47 150q0 252 2 344h-223q-19 0 -19 51t19 51h223l4 521q2 70 2 145q-105 6 -180 6q-159 0 -237 -74
t-124 -245q-3 -13 -29 -13t-26 17l15 381q0 32 30 32q1 0 217 -8t377 -8t302 2t238 6t111 4l119 4q31 0 31 -8l14 -405q0 -17 -26 -17t-29 13q-45 171 -121 247q-81 72 -237 72q-4 0 -164 -4v-129q-6 -228 -6 -537z" />
    <glyph glyph-name="tbar" unicode="&#x167;" horiz-adv-x="712" 
d="M188 762q0 30 -16 39q-16 7 -38 3t-40 -1q-16 6 -16 25t10 22q90 28 166 114t111 195q3 8 28 8t25 -14q0 -187 -6 -272q234 6 246 6t12 -48t-13 -48h-251v-271h204q19 0 19 -44t-19 -44h-204q-3 -215 6 -262q21 -90 108 -90q46 0 83 16t44 41q3 19 25 19t22 -19
q0 -74 -70 -122t-192 -48t-190 56q-64 58 -64 205t2 204h-94q-18 0 -18 44t18 44h98q4 212 4 242z" />
    <glyph glyph-name="Utilde" unicode="&#x168;" horiz-adv-x="1789" 
d="M884 -37q-275 0 -433 143t-158 394l10 729q0 176 -219 176q-8 -1 -8 29t12 30q150 -12 326 -12t383 10q8 0 8 -28t-8 -29q-167 -11 -196 -103q-15 -47 -15 -114v-148l-4 -307v-248q0 -180 110 -275t296 -95q186 -1 298 103q111 104 111 269q0 330 -5.5 533.5t-5.5 208.5
q0 83 -63 131q-64 45 -160 45q-6 -1 -6 29t10 30q137 -12 231 -12t316 10q8 0 8 -28t-8 -29q-102 -6 -158 -53q-51 -48 -51 -164l-8 -727q0 -208 -170 -350q-168 -148 -443 -148zM1268 1802q0 -108 -48 -166t-120 -57q-71 -1 -167 71t-132 72q-76 0 -76 -100q0 -35 -29 -35
q-37 0 -37 43q0 101 58 156q53 59 126 59t160 -56t127 -56q84 0 84 88q0 22 27 22t27 -41z" />
    <glyph glyph-name="utilde" unicode="&#x169;" horiz-adv-x="1218" 
d="M1022 895q27 0 27 -18q-29 -375 -29 -711q0 -64 41 -64h78q14 0 14 -27t-14 -30q-209 -42 -279 -78q-28 0 -37 31q-20 70 -20 172q-53 -100 -146 -152t-198 -53q-258 0 -258 258l4 463q0 99 -19 121t-114 31q-9 3 -9 25t9 22l358 10l-8 -625q0 -92 35 -134t123 -42
t153 78q70 73 70 195l8 395q0 44 -33 61q-34 17 -104 17q-8 0 -8 22t8 21l137 2q25 2 73 4t65 3t20 1l49 2h4zM903 1323q1 -111 -49 -169t-120 -58t-159 72t-122 73q-76 0 -76 -102q0 -35 -29 -35q-37 0 -37 43q0 99 57 159q58 60 130 60t147 -58t111 -57q94 0 94 92
q0 21 24 21q29 0 29 -41z" />
    <glyph glyph-name="Umacron" unicode="&#x16a;" horiz-adv-x="1789" 
d="M884 -37q-275 0 -433 143t-158 394l10 729q0 176 -219 176q-8 -1 -8 29t12 30q150 -12 326 -12t383 10q8 0 8 -28t-8 -29q-167 -11 -196 -103q-15 -47 -15 -114v-148l-4 -307v-248q0 -180 110 -275t296 -95q186 -1 298 103q111 104 111 269q0 330 -5.5 533.5t-5.5 208.5
q0 83 -63 131q-64 45 -160 45q-6 -1 -6 29t10 30q137 -12 231 -12t316 10q8 0 8 -28t-8 -29q-102 -6 -158 -53q-51 -48 -51 -164l-8 -727q0 -208 -170 -350q-168 -148 -443 -148zM1233 1616h-510q-31 0 -31 64t31 63h510q31 1 31 -63t-31 -64z" />
    <glyph glyph-name="umacron" unicode="&#x16b;" horiz-adv-x="1218" 
d="M1022 895q27 0 27 -18q-29 -375 -29 -711q0 -64 41 -64h78q14 0 14 -27t-14 -30q-209 -42 -279 -78q-28 0 -37 31q-20 70 -20 172q-53 -100 -146 -152t-198 -53q-258 0 -258 258l4 463q0 99 -19 121t-114 31q-9 3 -9 25t9 22l358 10l-8 -625q0 -92 35 -134t123 -42
t153 78q70 73 70 195l8 395q0 44 -33 61q-34 17 -104 17q-8 0 -8 22t8 21l137 2q25 2 73 4t65 3t20 1l49 2h4zM860 1167h-504q-18 1 -18 55t18 54h504q19 0 19 -54t-19 -55z" />
    <glyph glyph-name="Ubreve" unicode="&#x16c;" horiz-adv-x="1789" 
d="M884 -37q-275 0 -433 143t-158 394l10 729q0 176 -219 176q-8 -1 -8 29t12 30q150 -12 326 -12t383 10q8 0 8 -28t-8 -29q-167 -11 -196 -103q-15 -47 -15 -114v-148l-4 -307v-248q0 -180 110 -275t296 -95q186 -1 298 103q111 104 111 269q0 330 -5.5 533.5t-5.5 208.5
q0 83 -63 131q-64 45 -160 45q-6 -1 -6 29t10 30q137 -12 231 -12t316 10q8 0 8 -28t-8 -29q-102 -6 -158 -53q-51 -48 -51 -164l-8 -727q0 -208 -170 -350q-168 -148 -443 -148zM707 1829q-1 23 33 25t34 -25q0 -55 58 -92t128 -37t126 37t57 92q3 16 20 22q15 9 31 1
t14 -23q0 -106 -69 -178q-67 -76 -180 -76q-113 -1 -183 75t-69 179z" />
    <glyph glyph-name="ubreve" unicode="&#x16d;" horiz-adv-x="1218" 
d="M1022 895q27 0 27 -18q-29 -375 -29 -711q0 -64 41 -64h78q14 0 14 -27t-14 -30q-209 -42 -279 -78q-28 0 -37 31q-20 70 -20 172q-53 -100 -146 -152t-198 -53q-258 0 -258 258l4 463q0 99 -19 121t-114 31q-9 3 -9 25t9 22l358 10l-8 -625q0 -92 35 -134t123 -42
t153 78q70 73 70 195l8 395q0 44 -33 61q-34 17 -104 17q-8 0 -8 22t8 21l137 2q25 2 73 4t65 3t20 1l49 2h4zM362 1358q0 28 33 28t33 -28q0 -71 51 -113q47 -47 127 -47t130 45t50 115q3 16 19 26q17 8 33 0t12 -26q0 -127 -62 -219t-182 -92.5t-182 93.5t-62 218z" />
    <glyph glyph-name="Uring" unicode="&#x16e;" horiz-adv-x="1789" 
d="M884 -37q-275 0 -433 143t-158 394l10 729q0 176 -219 176q-8 -1 -8 29t12 30q150 -12 326 -12t383 10q8 0 8 -28t-8 -29q-167 -11 -196 -103q-15 -47 -15 -114v-148l-4 -307v-248q0 -180 110 -275t296 -95q186 -1 298 103q111 104 111 269q0 330 -5.5 533.5t-5.5 208.5
q0 83 -63 131q-64 45 -160 45q-6 -1 -6 29t10 30q137 -12 231 -12t316 10q8 0 8 -28t-8 -29q-102 -6 -158 -53q-51 -48 -51 -164l-8 -727q0 -208 -170 -350q-168 -148 -443 -148zM975 1587q51 0 87 37q36 38 36 90t-36 86t-88 35q-52 0 -87 -35t-35 -87t36 -89t87 -37z
M1212 1718q0 -90 -70 -148t-168 -57q-99 -1 -167 57t-68 148t68 154q70 61 168 61t168 -61q69 -64 69 -154z" />
    <glyph glyph-name="uring" unicode="&#x16f;" horiz-adv-x="1218" 
d="M1022 895q27 0 27 -18q-29 -375 -29 -711q0 -64 41 -64h78q14 0 14 -27t-14 -30q-209 -42 -279 -78q-28 0 -37 31q-20 70 -20 172q-53 -100 -146 -152t-198 -53q-258 0 -258 258l4 463q0 99 -19 121t-114 31q-9 3 -9 25t9 22l358 10l-8 -625q0 -92 35 -134t123 -42
t153 78q70 73 70 195l8 395q0 44 -33 61q-34 17 -104 17q-8 0 -8 22t8 21l137 2q25 2 73 4t65 3t20 1l49 2h4zM485.5 1238q-0.5 -52 36.5 -90t89 -38t89 38t37 90.5t-37 92.5q-38 39 -90 39t-88 -40t-36.5 -92zM612 1462q96 0 162 -64t66 -154t-68 -159q-68 -63 -160 -63
t-161 63q-68 68 -68 159t68 153q65 65 161 65z" />
    <glyph glyph-name="Uhungarumlaut" unicode="&#x170;" horiz-adv-x="1789" 
d="M884 -37q-275 0 -433 143t-158 394l10 729q0 176 -219 176q-8 -1 -8 29t12 30q150 -12 326 -12t383 10q8 0 8 -28t-8 -29q-167 -11 -196 -103q-15 -47 -15 -114v-148l-4 -307v-248q0 -180 110 -275t296 -95q186 -1 298 103q111 104 111 269q0 330 -5.5 533.5t-5.5 208.5
q0 83 -63 131q-64 45 -160 45q-6 -1 -6 29t10 30q137 -12 231 -12t316 10q8 0 8 -28t-8 -29q-102 -6 -158 -53q-51 -48 -51 -164l-8 -727q0 -208 -170 -350q-168 -148 -443 -148zM983 1556q-22 0 -22 19q12 18 14 20l160 209q47 62 121 62t73 -33q0 -16 -35 -51l-286 -217
q-9 -9 -25 -9zM840 1804q46 64 121 64t75 -39q0 -20 -37 -47l-286 -217q-9 -9 -27 -9t-18 13v6l12 20z" />
    <glyph glyph-name="uhungarumlaut" unicode="&#x171;" horiz-adv-x="1218" 
d="M1022 895q27 0 27 -18q-29 -375 -29 -711q0 -64 41 -64h78q14 0 14 -27t-14 -30q-209 -42 -279 -78q-28 0 -37 31q-20 70 -20 172q-53 -100 -146 -152t-198 -53q-258 0 -258 258l4 463q0 99 -19 121t-114 31q-9 3 -9 25t9 22l358 10l-8 -625q0 -92 35 -134t123 -42
t153 78q70 73 70 195l8 395q0 44 -33 61q-34 17 -104 17q-8 0 -8 22t8 21l137 2q25 2 73 4t65 3t20 1l49 2h4zM642 1036q-18 0 -19 17v4l12 24l186 301q35 41 99 41t65 -41q0 -17 -37 -63l-280 -275q-8 -8 -26 -8zM354 1036q-22 0 -22 21l12 24l156 254q26 39 36 51
q34 39 96 39t62 -41q0 -24 -35 -65l-280 -275q-8 -8 -25 -8z" />
    <glyph glyph-name="Uogonek" unicode="&#x172;" horiz-adv-x="1789" 
d="M1159 -229q47 1 47 -63t-63 -118q-66 -51 -165 -51q-98 1 -154 53t-56 142q0 147 125 229h-16q-268 0 -426 143t-158 394l10 729q0 176 -219 176q-8 -1 -8 29t12 30q150 -12 326 -12t383 10q8 0 8 -28t-8 -29q-167 -11 -196 -103q-15 -47 -15 -114v-148l-4 -307v-248
q0 -180 110 -275t296 -95q186 -1 298 103q111 104 111 269q0 330 -5.5 533.5t-5.5 208.5q0 83 -63 131q-64 45 -160 45q-6 -1 -6 29t10 30q137 -12 231 -12t316 10q8 0 8 -28t-8 -29q-102 -6 -158 -53q-51 -48 -51 -164l-8 -727q0 -179 -131 -316t-360 -172
q-93 -84 -93 -219t113 -135q98 0 98 78l-6 41q0 33 41 33z" />
    <glyph glyph-name="uogonek" unicode="&#x173;" horiz-adv-x="1218" 
d="M1069 -229q47 1 47 -63t-63 -118q-66 -51 -165 -51q-98 1 -154 53t-56 134t41 150t112 106q-28 56 -28 188q-53 -100 -146 -152t-198 -53q-258 0 -258 258l4 463q0 99 -19 121t-114 31q-9 3 -9 25t9 22l358 10l-8 -625q0 -92 35 -134t123 -42t153 78q70 73 70 195l8 395
q0 44 -33 61q-34 17 -104 17q-8 0 -8 22t8 21l137 2q25 2 73 4t65 3t20 1l49 2h4q27 0 27 -18q-29 -375 -29 -711q0 -64 41 -64h78q14 0 14 -27t-14 -30q-36 -7 -178 -41q-138 -76 -138 -242q0 -143 113 -143q98 0 98 78l-6 41q0 33 41 33z" />
    <glyph glyph-name="Wcircumflex" unicode="&#x174;" horiz-adv-x="2181" 
d="M1837 1268q0 129 -166 129q-14 1 -14 33t18 32q144 -12 273 -12l206 10q13 0 13 -30t-10 -31q-149 -3 -195 -166q-25 -90 -216.5 -652.5t-195.5 -589.5q-4 -26 -64 -26t-63 25q-53 194 -317 946q-138 -398 -235 -659q-98 -262 -102 -287q-5 -25 -61 -25t-59 25
q-22 87 -234 657t-249 635q-70 120 -162 129q-4 1 -4 27t8 26q141 -12 306 -12t321 8q6 0 6 -28t-10 -29q-148 -6 -148 -105q-1 -42 17 -93t151 -435q121 -361 148 -430q15 46 74 209q84 236 167 495q89 246 97 332q-1 27 55 27t59 -25q13 -96 158 -534q138 -434 170 -492
q102 294 180 572t78 344zM883 1561q-11 1 -21 9t-10 13t2.5 8.5t7 10t8.5 12.5l242 297q8 14 47 14t53 -14l254 -322q0 -26 -32 -26q-15 0 -21 6l-262 186l-244 -186q-13 -8 -24 -8z" />
    <glyph glyph-name="wcircumflex" unicode="&#x175;" horiz-adv-x="1482" 
d="M1507 870q0 -18 -8 -26q-74 -20 -127 -94q-45 -51 -156 -325t-167 -429q-7 -21 -41 -21t-54 5q-17 9 -24 38q-7 30 -197 527q-114 -293 -161 -405q-48 -112 -56 -144q-2 -21 -50 -21q-48 1 -56 19t-135 343q-128 325 -171 408q-43 84 -77 93q-19 4 -31 4t-12 24t8 25
q15 0 33 -2l208 -4l218 4q8 0 8 -22t-8 -25q-91 -19 -91 -68q0 -18 7 -39l8 -24q29 -85 85 -237t81 -236q51 132 125 346t84 268q6 18 39 18t42 -6t12 -16t5 -12v-5q6 -17 70 -201t96 -270t49 -133q53 123 109 293t57 222q0 52 -21 77q-23 20 -86 23q-8 0 -8 24t8 23
q168 -8 221 -8l156 8q8 -1 8 -19zM514 1040q-33 0 -33 31l17 33l231 350q10 16 47 16t47 -16l230 -350q2 -3 14 -31q0 -31 -33 -31q-9 0 -16 7l-252 227l-234 -227q-12 -9 -18 -9z" />
    <glyph glyph-name="Ycircumflex" unicode="&#x176;" horiz-adv-x="1572" 
d="M909 265q0 -133 45 -175q46 -40 158 -43q6 -1 6 -27t-10 -26q-205 12 -358 12t-312 -8q-10 0 -10 26t10 25q107 6 154 47t47 148q0 275 2 334q-104 188 -264 417q-159 237 -205 289q-104 122 -172 125q-6 -1 -6 27t12 28q296 -12 418 -12t270 8q6 0 6 -28t-10 -29
q-162 0 -162 -98q0 -27 26 -85t56 -106q40 -72 66 -110t57 -87t71 -111t64 -101q297 473 297 581q0 115 -159 115q-13 1 -13 31t17 30q120 -10 287 -10t259 10q13 0 13 -30t-19 -37q-120 -18 -219 -144q-49 -55 -193 -265t-220 -370q-9 -218 -9 -351zM558 1561q-10 -1 -21 9
q-14 12 -7 22t15 22l241 297q8 14 48 14t53 -14l254 -322q0 -26 -33 -26q-15 0 -21 6l-262 186l-243 -186q-14 -8 -24 -8z" />
    <glyph glyph-name="ycircumflex" unicode="&#x177;" horiz-adv-x="991" 
d="M109 -668q-84 0 -84 93q0 54 49 88q41 33 115 73t106 82q89 123 149 314q-12 59 -174 411t-213 412q-19 22 -34 31q-27 10 -43 10q-9 0 -9 22t9 23q17 0 40 -2l191 -4q78 0 133 4l111 2q8 0 8 -21t-8 -24q-97 -15 -97 -72q0 -36 72 -204t97.5 -226t36.5 -84t14 -33
q21 56 63 159q43 103 85 218q42 116 42 156t-15 60t-73 22q-8 0 -8 24t8 23l180 -4q33 0 111 4l59 2q8 0 8 -21t-8 -24q-32 -8 -44 -18t-15 -9l-29 -28q0 -1 -13 -17t-16 -20q-34 -44 -129 -240q-278 -592 -396 -887t-279 -295zM274 1040q-32 0 -32 31l16 33l231 350
q9 16 47 16t48 -16l229 -350q2 -3 14 -31q0 -31 -32 -31q-10 0 -17 7l-252 227l-233 -227q-12 -9 -19 -9z" />
    <glyph glyph-name="Ydieresis" unicode="&#x178;" horiz-adv-x="1572" 
d="M909 265q0 -133 45 -175q46 -40 158 -43q6 -1 6 -27t-10 -26q-205 12 -358 12t-312 -8q-10 0 -10 26t10 25q107 6 154 47t47 148q0 275 2 334q-104 188 -264 417q-159 237 -205 289q-104 122 -172 125q-6 -1 -6 27t12 28q296 -12 418 -12t270 8q6 0 6 -28t-10 -29
q-162 0 -162 -98q0 -27 26 -85t56 -106q40 -72 66 -110t57 -87t71 -111t64 -101q297 473 297 581q0 115 -159 115q-13 1 -13 31t17 30q120 -10 287 -10t259 10q13 0 13 -30t-19 -37q-120 -18 -219 -144q-49 -55 -193 -265t-220 -370q-9 -218 -9 -351zM1141 1701
q0 -44 -32 -76t-78 -32q-45 -1 -75 31t-30 77t30 75t75 30t79 -30q31 -31 31 -75zM638 1593q-46 0 -76 32t-30 76q0 45 30 75t78 30q46 0 78 -30t32 -75q0 -46 -33 -77t-79 -31z" />
    <glyph glyph-name="Zacute" unicode="&#x179;" horiz-adv-x="1431" 
d="M164 1090l20 335q0 35 37 35l561 -8q180 0 258 2h181q41 2 73 2t33 -22q-1 -10 -11 -26t-416 -640q-406 -623 -454 -690q580 0 725 151q77 74 86 203q3 25 39 25t35 -13l-10 -395q0 -35 -10 -43q-11 -8 -119 -8t-438 2h-656q-14 0 -20 12q-10 10 -10 28t10 28
q152 166 518 724q230 351 279.5 427.5t69 106.5t26.5 42q-114 6 -248 6q-247 0 -354 -71q-109 -66 -148 -218q-3 -10 -30 -10t-27 15zM635 1550q-41 0 -41 23q0 6 4 10l250 313q15 21 121 21t106 -37q0 -16 -28 -35l-392 -289q-18 -6 -20 -6z" />
    <glyph glyph-name="zacute" unicode="&#x17a;" horiz-adv-x="1005" 
d="M913 863q0 -24 -15.5 -31.5t-60.5 -73.5t-61 -90l-44 -66q-27 -42 -77 -110q-36 -54 -90 -136t-215 -293q325 3 422 66q38 22 66 70t36 92q4 12 26 12t22 -8l-21 -252v-18q-4 -8 -4 -13q-8 -12 -35 -12h-442q-213 -2 -342 -2q-15 0 -15 26t13 33q26 11 274 361
q42 55 271 393q-31 -1 -111 -2t-162 -14q-106 -25 -135 -103q-17 -49 -31 -121q0 -12 -24 -12t-25 12l19 279v18q0 13 16 13q6 2 25 2l702 4q18 0 18 -24zM401 1038q-36 0 -36 27l4 12l217 363q14 24 106 24t92 -45q0 -18 -24 -39l-342 -333q-9 -9 -17 -9z" />
    <glyph glyph-name="Zdotaccent" unicode="&#x17b;" horiz-adv-x="1431" 
d="M164 1090l20 335q0 35 37 35l561 -8q180 0 258 2h181q41 2 73 2t33 -22q-1 -10 -11 -26t-416 -640q-406 -623 -454 -690q580 0 725 151q77 74 86 203q3 25 39 25t35 -13l-10 -395q0 -35 -10 -43q-11 -8 -119 -8t-438 2h-656q-14 0 -20 12q-10 10 -10 28t10 28
q152 166 518 724q230 351 279.5 427.5t69 106.5t26.5 42q-114 6 -248 6q-247 0 -354 -71q-109 -66 -148 -218q-3 -10 -30 -10t-27 15zM890.5 1737q0.5 -51 -35.5 -87t-87 -36t-88 36t-37 88t36 86q35 34 87 34t88 -35t36.5 -86z" />
    <glyph glyph-name="zdotaccent" unicode="&#x17c;" horiz-adv-x="1005" 
d="M913 863q0 -24 -15.5 -31.5t-60.5 -73.5t-61 -90l-44 -66q-27 -42 -77 -110q-36 -54 -90 -136t-215 -293q325 3 422 66q38 22 66 70t36 92q4 12 26 12t22 -8l-21 -252v-18q-4 -8 -4 -13q-8 -12 -35 -12h-442q-213 -2 -342 -2q-15 0 -15 26t13 33q26 11 274 361
q42 55 271 393q-31 -1 -111 -2t-162 -14q-106 -25 -135 -103q-17 -49 -31 -121q0 -12 -24 -12t-25 12l19 279v18q0 13 16 13q6 2 25 2l702 4q18 0 18 -24zM650 1229q0 -53 -38 -90t-90 -37t-92 37q-37 37 -37 90t37 90q40 37 92 37t90 -37t38 -90z" />
    <glyph glyph-name="Zcaron" unicode="&#x17d;" horiz-adv-x="1431" 
d="M770 1571q-40 0 -51 14l-234 293q-8 8 -20 29q0 26 33 26q11 0 20 -6l262 -186l244 186q9 6 20 6q35 0 35 -26q-105 -132 -262 -322q-7 -14 -47 -14zM164 1090l20 335q0 35 37 35l561 -8q180 0 258 2h181q41 2 73 2t33 -22q-1 -10 -11 -26t-416 -640q-406 -623 -454 -690
q580 0 725 151q77 74 86 203q3 25 39 25t35 -13l-10 -395q0 -35 -10 -43q-11 -8 -119 -8t-438 2h-656q-14 0 -20 12q-10 10 -10 28t10 28q152 166 518 724q230 351 279.5 427.5t69 106.5t26.5 42q-114 6 -248 6q-247 0 -354 -71q-109 -66 -148 -218q-3 -10 -30 -10t-27 15z
" />
    <glyph glyph-name="zcaron" unicode="&#x17e;" horiz-adv-x="1005" 
d="M264 1470q11 0 17 -6l251 -229l234 229q9 6 18 6q33 0 33 -30q-2 -7 -16 -31l-232 -352q-10 -17 -47 -17t-47 17l-229 352q-8 13 -15 31q0 30 33 30zM913 863q0 -24 -15.5 -31.5t-60.5 -73.5t-61 -90l-44 -66q-27 -42 -77 -110q-36 -54 -90 -136t-215 -293q325 3 422 66
q38 22 66 70t36 92q4 12 26 12t22 -8l-21 -252v-18q-4 -8 -4 -13q-8 -12 -35 -12h-442q-213 -2 -342 -2q-15 0 -15 26t13 33q26 11 274 361q42 55 271 393q-31 -1 -111 -2t-162 -14q-106 -25 -135 -103q-17 -49 -31 -121q0 -12 -24 -12t-25 12l19 279v18q0 13 16 13
q6 2 25 2l702 4q18 0 18 -24z" />
    <glyph glyph-name="longs" unicode="&#x17f;" horiz-adv-x="679" 
d="M205 371q8 312 8 413h-119q-12 0 -12 29t14 29q74 9 96 37t21 90v75q-2 33 -2 70q0 183 121 295q118 115 296 115t257 -54q86 -50 86 -145q0 -40 -29 -72q-32 -26 -70 -26t-63 22q-27 18 -37 62q-27 127 -149 127q-114 0 -156 -99q-16 -48 -29 -125q-8 -98 -8 -170v-217
q2 -88 2 -209v-438q0 -79 31 -110q34 -27 135 -27q8 -1 8 -23t-8 -22l-307 8l-111 -2q-47 -4 -88 -4q-8 0 -8 21t8 24q67 9 92 37q21 31 21 72v217z" />
  </font>
</defs>
</svg>
