<?xml version="1.0" standalone="no"?> <!DOCTYPE svg PUBLIC "-//W3C//DTD SVG 1.0//EN" "http://www.w3.org/TR/2001/REC-SVG-20010904/DTD/svg10.dtd" > <svg xmlns="http://www.w3.org/2000/svg" width="100%" height="100%">
<defs >
<font id="supergroteskcomp-medium" horiz-adv-x="505" ><font-face
    font-family="SuperGroteskComp-Medium"
    units-per-em="1000"
    panose-1="2 11 6 4 2 1 1 2 1 2"
    ascent="980"
    descent="-260"
    alphabetic="0" />
<missing-glyph horiz-adv-x="530" d="M60 720H470V0H60V720ZM360 110V610H170V110H360Z" />
<glyph unicode=" " glyph-name="space" horiz-adv-x="250" />
<glyph unicode="!" glyph-name="exclam" horiz-adv-x="270" d="M70 200V720H200V200H70ZM70 0V140H200V0H70Z" />
<glyph unicode="&quot;" glyph-name="quotedbl" horiz-adv-x="340" d="M290 450H200L190 720H300L290 450ZM140 450H50L40 720H150L140 450Z" />
<glyph unicode="#" glyph-name="numbersign" horiz-adv-x="640" d="M500 160V0H390V160H250V0H140V160H40V265H140V430H40V535H140V680H250V535H390V680H500V535H600V430H500V265H600V160H500ZM390 430H250V265H390V430Z" />
<glyph unicode="$" glyph-name="dollar" horiz-adv-x="525" d="M495 180Q495 140 482 106T444 47T384 5T305 -18V-90H225V-18Q190 -14 161 -4T108 21T64 54T25 92L115 180Q133 155 158 134T225 104V308Q194 321 164 337T109 376T70 431T55 510Q55 590 102 638T225
697V770H305V698Q356 692 395 671T466 614L395 525Q378 550 355 565T305 586V400Q338 386 372 369T433 327T477 267T495 180ZM225 582Q204 573 190 555T175 510Q175 486 188 469T225 438V582ZM365 180Q365 212 348 232T305 270V106Q329 113 347 130T365 180Z" />
<glyph unicode="%" glyph-name="percent" horiz-adv-x="680" d="M320 530Q320 447 280 404T180 360Q120 360 80 403T40 530Q40 613 80 656T180 700Q240 700 280 657T320 530ZM190 0H80L490 680H600L190 0ZM640 160Q640 77 600 34T500 -10Q440 -10 400 33T360 160Q360
243 400 286T500 330Q560 330 600 287T640 160ZM225 530Q225 576 216 598T181 620Q154 620 145 594T135 530Q135 492 144 466T180 440Q193 440 201 447T215 467T223 496T225 530ZM545 160Q545 206 536 228T501 250Q474 250 465 224T455 160Q455 122 464 96T500
70Q513 70 521 77T535 97T543 126T545 160Z" />
<glyph unicode="&amp;" glyph-name="ampersand" horiz-adv-x="620" d="M480 0L451 35Q412 9 364 -5T260 -20Q207 -20 162 -4T83 42T30 114T10 210Q10 248 21 278T50 332T92 374T142 408Q134 418 125 430T108 458T95 494T90 540Q90 574 102 602T137 650T191 681T260
693Q297 693 328 682T382 650T417 601T430 540Q430 511 420 488T393 445T354 409T307 379L446 210Q465 253 465 305Q465 318 464 332T460 360H570Q576 322 576 288Q576 237 563 193T527 112L620 0H480ZM320 540Q320 570 305 586T260 603Q230 603 215 587T200 540Q200
517 212 498T241 459Q276 474 298 493T320 540ZM211 324Q176 302 153 276T130 210Q130 180 140 158T169 120T210 98T260 90Q324 90 376 125L211 324Z" />
<glyph unicode="&apos;" glyph-name="quotesingle" horiz-adv-x="190" d="M140 450H50L40 720H150L140 450Z" />
<glyph unicode="(" glyph-name="parenleft" horiz-adv-x="355" d="M240 -130Q199 -93 161 -43T94 66T48 193T30 335Q30 409 47 477T94 604T161 712T240 800L330 710Q295 678 264 638T210 549T174 447T160 335Q160 277 174 225T211 125T265 37T330 -40L240 -130Z" />
<glyph unicode=")" glyph-name="parenright" horiz-adv-x="355" d="M325 335Q325 261 308 194T261 67T194 -43T115 -130L25 -40Q59 -4 89 37T143 125T181 224T195 335Q195 393 182 447T145 549T91 637T25 710L115 800Q156 762 194 713T261 604T307 477T325 335Z" />
<glyph unicode="*" glyph-name="asterisk" horiz-adv-x="446" d="M346 438L261 490L263 390H183L185 490L100 438L60 507L148 555L60 603L100 672L185 620L183 720H263L261 620L346 672L386 603L298 555L386 507L346 438Z" />
<glyph unicode="+" glyph-name="plus" horiz-adv-x="564" d="M337 250V70H227V250H47V360H227V540H337V360H517V250H337Z" />
<glyph unicode="," glyph-name="comma" horiz-adv-x="290" d="M210 0Q210 -53 182 -95T100 -160L40 -110Q63 -87 71 -59T80 0V140H210V0Z" />
<glyph unicode="-" glyph-name="hyphen" horiz-adv-x="320" d="M40 190V300H280V190H40Z" />
<glyph unicode="." glyph-name="period" horiz-adv-x="290" d="M80 0V140H210V0H80Z" />
<glyph unicode="/" glyph-name="slash" horiz-adv-x="420" d="M110 -100H0L310 780H420L110 -100Z" />
<glyph unicode="0" glyph-name="zero" horiz-adv-x="564" d="M542 340Q542 257 525 191T475 78T394 6T282 -20Q219 -20 171 5T89 77T39 190T22 340Q22 422 39 489T89 602T170 674T282 700Q345 700 393 675T475 603T525 489T542 340ZM417 340Q417 462 382 526T282
590Q218 590 183 527T147 340Q147 219 182 155T282 90Q346 90 381 154T417 340Z" />
<glyph unicode="1" glyph-name="one" horiz-adv-x="564" d="M96 120H241V540L90 444V581L246 680H366V120H503V0H96V120Z" />
<glyph unicode="2" glyph-name="two" horiz-adv-x="564" d="M505 0H45V80Q45 152 71 201T136 285T220 342T304 388T369 434T395 495Q395 534 367 562T285 590Q232 590 200 559T161 466L35 484Q38 535 58 575T112 642T190 685T285 700Q344 700 388 683T461 638T505
573T520 496Q520 432 495 390T433 318T353 269T272 228T210 182T185 120H525L505 0Z" />
<glyph unicode="3" glyph-name="three" horiz-adv-x="564" d="M520 200Q520 94 454 37T275 -20Q222 -20 182 -6T112 31T59 85T20 150L130 195Q143 167 160 147T197 115T236 96T275 90Q297 90 319 96T357 116T384 153T395 210Q395 236 385 256T358 291T319 312T275
320H242V420H275Q290 420 305 426T332 444T352 475T360 520Q360 547 338 568T275 590Q255 590 240 586T211 571T187 543T165 500L52 528Q77 613 130 656T275 700Q324 700 363 686T429 648T470 590T485 520Q485 466 462 431T405 376V374Q427 366 448 351T485 313T510
263T520 200Z" />
<glyph unicode="4" glyph-name="four" horiz-adv-x="564" d="M457 120V0H332V120H7L327 680H457V230H527V120H457ZM332 500H330L177 230H332V500Z" />
<glyph unicode="5" glyph-name="five" horiz-adv-x="564" d="M510 234Q510 176 491 129T438 49T354 -2T245 -20Q198 -20 163 -10T99 17T48 57T5 108L95 189Q118 144 156 117T245 90Q274 90 299 100T344 130T374 176T385 234Q385 262 374 288T344 335T300 368T245
380Q197 380 157 363T75 310L95 680H446L432 570H200L196 466Q214 473 235 476T295 480Q336 480 375 464T444 416T492 338T510 234Z" />
<glyph unicode="6" glyph-name="six" horiz-adv-x="564" d="M528 230Q528 174 511 128T462 49T383 -2T280 -20Q223 -20 177 -2T97 48T46 124T28 223Q28 298 51 352T118 457L308 680H448L268 460Q289 463 309 463Q359 463 399 446T468 398T512 324T528 230ZM403
230Q403 291 368 325T278 360Q224 360 189 325T153 230Q153 200 162 175T188 130T228 101T278 90Q305 90 328 100T367 129T393 174T403 230Z" />
<glyph unicode="7" glyph-name="seven" horiz-adv-x="564" d="M273 0H133L383 570H38L63 680H513V570L273 0Z" />
<glyph unicode="8" glyph-name="eight" horiz-adv-x="564" d="M532 205Q532 154 515 113T464 42T385 -4T282 -20Q225 -20 179 -4T100 43T50 114T32 205Q32 240 41 268T66 319T100 358T138 385Q103 407 83 443T62 530Q62 567 78 598T122 652T191 687T282 700Q331
700 371 688T441 653T486 599T502 530Q502 479 482 444T426 385Q445 375 464 359T498 319T522 267T532 205ZM387 510Q387 527 381 543T361 572T328 592T282 600Q256 600 236 593T203 572T184 543T177 510Q177 493 183 477T203 448T236 428T282 420Q308 420 328
427T361 448T380 477T387 510ZM407 205Q407 229 399 251T375 291T336 319T282 330Q252 330 229 320T189 293T165 253T157 205Q157 152 190 121T282 90Q339 90 373 119T407 205Z" />
<glyph unicode="9" glyph-name="nine" horiz-adv-x="564" d="M535 457Q535 382 512 328T445 223L255 0H115L295 220Q274 217 254 217Q204 217 164 234T95 282T51 356T35 450Q35 506 52 552T101 631T180 682T283 700Q340 700 386 682T466 632T517 556T535 457ZM410
450Q410 480 401 505T375 550T335 579T285 590Q258 590 235 580T196 551T170 506T160 450Q160 389 195 355T285 320Q339 320 374 355T410 450Z" />
<glyph unicode=":" glyph-name="colon" horiz-adv-x="290" d="M80 280V420H210V280H80ZM80 0V140H210V0H80Z" />
<glyph unicode=";" glyph-name="semicolon" horiz-adv-x="290" d="M80 280V420H210V280H80ZM210 0Q210 -53 182 -95T100 -160L40 -110Q63 -87 71 -59T80 0V140H210V0Z" />
<glyph unicode="&lt;" glyph-name="less" horiz-adv-x="564" d="M47 265V345L517 590V460L192 305L517 150V20L47 265Z" />
<glyph unicode="=" glyph-name="equal" horiz-adv-x="564" d="M47 350V450H517V350H47ZM47 160V260H517V160H47Z" />
<glyph unicode="&gt;" glyph-name="greater" horiz-adv-x="564" d="M47 20V150L372 305L47 460V590L517 345V265L47 20Z" />
<glyph unicode="?" glyph-name="question" horiz-adv-x="550" d="M500 540Q500 497 487 469T453 419T410 380T366 342T333 294T319 226V213Q319 207 320 200H190Q187 225 187 249Q187 299 200 332T232 390T273 431T315 463T347 496T360 540Q360 578 334 599T270
620Q229 620 199 595T160 510L30 520Q30 565 45 605T89 675T161 722T260 740Q314 740 358 727T433 689T482 626T500 540ZM190 0V140H320V0H190Z" />
<glyph unicode="@" glyph-name="at" horiz-adv-x="850" d="M810 230Q810 174 797 133T759 64T700 24T625 10Q587 10 558 23T505 60Q482 37 451 24T375 10Q341 10 312 23T262 60T228 119T215 200Q215 245 227 280T260 340T308 377T365 390Q395 390 423 380T475
340V380H585V180Q585 142 603 126T645 110Q668 110 686 135T705 220Q705 280 684 329T625 412T536 466T425 485Q369 485 318 463T227 403T164 312T140 200Q140 140 162 89T222 0T313 -59T425 -80Q453 -80 476 -78T521 -70T562 -55T605 -30L725 -70Q665 -131 592
-155T425 -180Q342 -180 272 -152T150 -73T69 47T40 200Q40 282 70 352T152 472T274 551T425 580Q504 580 574 555T696 485T779 374T810 230ZM475 200Q475 243 455 271T405 300Q367 300 346 273T325 200Q325 154 346 127T405 100Q435 100 455 123T475 200Z" />
<glyph unicode="A" glyph-name="A" horiz-adv-x="640" d="M485 0L437 160H203L155 0H10L250 720H390L630 0H485ZM321 560H319L239 280H401L321 560Z" />
<glyph unicode="B" glyph-name="B" horiz-adv-x="580" d="M540 210Q540 161 523 122T474 56T401 15T310 0H70V720H290Q335 720 375 707T445 670T492 613T510 540Q510 480 484 438T420 380Q439 372 460 359T499 325T528 276T540 210ZM380 520Q380 542 372 558T349
585T317 600T280 605H205V435H280Q299 435 317 440T349 455T371 481T380 520ZM400 220Q400 265 372 292T290 320H205V120H290Q343 120 371 147T400 220Z" />
<glyph unicode="C" glyph-name="C" horiz-adv-x="701" d="M661 90Q620 36 553 8T410 -20Q326 -20 258 8T141 87T66 207T40 360Q40 442 67 512T144 632T261 711T410 740Q481 740 544 713T652 639L580 531Q546 569 504 589T410 610Q355 610 312 591T238 538T191
458T175 360Q175 307 192 262T239 183T313 130T410 110Q466 110 506 129T580 189L661 90Z" />
<glyph unicode="D" glyph-name="D" horiz-adv-x="690" d="M650 360Q650 270 618 203T534 90T420 23T295 0H70V720H290Q354 720 418 698T533 630T617 518T650 360ZM510 360Q510 420 488 464T430 537T350 581T260 595H205V125H260Q305 125 349 139T430 182T488 256T510
360Z" />
<glyph unicode="E" glyph-name="E" horiz-adv-x="510" d="M450 0H70V720H440L460 590H205V430H430V300H205V130H470L450 0Z" />
<glyph unicode="F" glyph-name="F" horiz-adv-x="490" d="M205 590V430H430V300H205V0H70V720H440L460 590H205Z" />
<glyph unicode="G" glyph-name="G" horiz-adv-x="795" d="M735 153Q707 116 677 85T607 30T518 -7T400 -20Q326 -20 261 9T146 89T69 209T40 360Q40 441 68 510T146 631T260 711T400 740Q461 740 509 729T594 699T658 656T706 603L616 513Q582 561 532 585T400
610Q349 610 308 590T237 536T191 456T175 360Q175 309 191 264T236 185T307 130T400 110Q456 110 509 128T600 189V300H470L490 415H735V153Z" />
<glyph unicode="H" glyph-name="H" horiz-adv-x="705" d="M500 0V305H205V0H70V720H205V435H500V720H635V0H500Z" />
<glyph unicode="I" glyph-name="I" horiz-adv-x="275" d="M70 0V720H205V0H70Z" />
<glyph unicode="J" glyph-name="J" horiz-adv-x="375" d="M305 142Q305 92 291 61T253 11T200 -13T140 -20Q92 -20 56 -4T0 30L60 140Q90 110 120 110Q127 110 136 112T152 121T165 139T170 170V720H305V142Z" />
<glyph unicode="K" glyph-name="K" horiz-adv-x="605" d="M420 0L207 300H205V0H70V720H205V435H207L410 720H570L315 370L590 0H420Z" />
<glyph unicode="L" glyph-name="L" horiz-adv-x="440" d="M420 0H70V720H205V130H440L420 0Z" />
<glyph unicode="M" glyph-name="M" horiz-adv-x="860" d="M655 0V480H653L430 120L207 480H205V0H70V720H205L430 350L655 720H790V0H655Z" />
<glyph unicode="N" glyph-name="N" horiz-adv-x="730" d="M530 0L207 480H205V0H70V720H200L523 240H525V720H660V0H530Z" />
<glyph unicode="O" glyph-name="O" horiz-adv-x="820" d="M780 360Q780 276 751 206T672 86T555 8T410 -20Q333 -20 266 7T148 85T69 206T40 360Q40 444 68 514T147 634T264 712T410 740Q487 740 554 713T672 635T751 514T780 360ZM645 360Q645 417 627 463T576
542T501 592T410 610Q362 610 320 593T245 543T194 464T175 360Q175 303 193 257T244 178T319 128T410 110Q458 110 501 127T576 177T626 256T645 360Z" />
<glyph unicode="P" glyph-name="P" horiz-adv-x="540" d="M520 500Q520 451 501 411T450 341T377 296T290 280H205V0H70V720H290Q336 720 377 704T450 659T501 590T520 500ZM380 500Q380 553 348 581T270 610H205V390H270Q315 390 347 418T380 500Z" />
<glyph unicode="Q" glyph-name="Q" horiz-adv-x="820" d="M780 360Q780 282 756 217T686 101L770 0H640L610 36Q567 9 517 -5T410 -20Q333 -20 266 7T148 85T69 206T40 360Q40 444 68 514T147 634T264 712T410 740Q487 740 554 713T672 635T751 514T780 360ZM645
360Q645 417 627 463T576 542T501 592T410 610Q362 610 320 593T245 543T194 464T175 360Q175 303 193 257T244 178T319 128T410 110Q473 110 525 139L400 290H530L599 206Q621 236 633 274T645 360Z" />
<glyph unicode="R" glyph-name="R" horiz-adv-x="580" d="M400 0L215 300H205V0H70V720H290Q336 720 377 706T450 664T501 598T520 510Q520 469 506 436T470 377T419 334T360 310L570 0H400ZM380 510Q380 562 348 586T270 610H205V410H270Q292 410 312 416T347
434T371 465T380 510Z" />
<glyph unicode="S" glyph-name="S" horiz-adv-x="525" d="M495 200Q495 151 479 111T432 41T360 -4T265 -20Q221 -20 187 -11T124 13T71 51T25 99L115 189Q126 174 139 160T171 135T212 117T265 110Q303 110 331 132T360 200Q360 234 338 256T283 296T210 332T138
377T82 442T60 540Q60 587 76 624T121 687T186 726T265 740Q333 740 380 718T465 650L390 560Q371 590 337 605T265 620Q231 620 211 601T190 540Q190 506 212 485T269 447T342 413T416 370T472 303T495 200Z" />
<glyph unicode="T" glyph-name="T" horiz-adv-x="465" d="M300 590V0H165V590H10L25 720H440L455 590H300Z" />
<glyph unicode="U" glyph-name="U" horiz-adv-x="700" d="M635 260Q635 189 613 136T553 49T462 -3T350 -20Q290 -20 238 -3T148 48T87 136T65 260V720H200V260Q200 222 211 194T243 145T290 115T350 105Q382 105 409 115T457 145T488 193T500 260V720H635V260Z" />
<glyph unicode="V" glyph-name="V" horiz-adv-x="620" d="M380 0H240L10 720H155L309 210H311L465 720H610L380 0Z" />
<glyph unicode="W" glyph-name="W" horiz-adv-x="940" d="M710 0H590L471 480H469L350 0H230L10 720H155L289 240H291L410 720H530L649 240H651L785 720H930L710 0Z" />
<glyph unicode="X" glyph-name="X" horiz-adv-x="600" d="M430 0L300 250L170 0H20L228 374L40 720H180L300 500L420 720H560L372 374L580 0H430Z" />
<glyph unicode="Y" glyph-name="Y" horiz-adv-x="585" d="M360 230V0H225V230L0 720H145L293 380L440 720H585L360 230Z" />
<glyph unicode="Z" glyph-name="Z" horiz-adv-x="580" d="M240 120H550L520 0H20L340 600H50L80 720H560L240 120Z" />
<glyph unicode="[" glyph-name="bracketleft" horiz-adv-x="340" d="M280 -125L80 -115V795L280 805L290 690H210V-10H290L280 -125Z" />
<glyph unicode="\" glyph-name="backslash" horiz-adv-x="420" d="M310 -100L0 780H110L420 -100H310Z" />
<glyph unicode="]" glyph-name="bracketright" horiz-adv-x="340" d="M60 -125L50 -10H130V690H50L60 805L260 795V-115L60 -125Z" />
<glyph unicode="^" glyph-name="asciicircum" horiz-adv-x="560" d="M400 320L280 600L160 320H0L220 720H340L560 320H400Z" />
<glyph unicode="_" glyph-name="underscore" horiz-adv-x="480" d="M0 -180V-70H480V-180H0Z" />
<glyph unicode="`" glyph-name="grave" horiz-adv-x="280" d="M150 500L40 640H170L240 500H150Z" />
<glyph unicode="a" glyph-name="a" horiz-adv-x="555" d="M370 0V40H368Q343 10 307 -2T225 -15Q187 -15 153 0T93 45T51 115T35 210Q35 262 50 304T92 375T153 419T225 435Q270 435 306 423T368 380H370V420H495V0H370ZM370 210Q370 263 340 291T265 320Q246
320 228 313T196 291T174 257T165 210Q165 184 173 164T196 129T228 108T265 100Q310 100 340 128T370 210Z" />
<glyph unicode="b" glyph-name="b" horiz-adv-x="555" d="M520 210Q520 157 505 116T463 45T402 1T330 -15Q285 -15 249 -3T187 40H185V0H60V730H185V380H187Q212 410 248 422T330 435Q367 435 401 420T462 375T504 304T520 210ZM390 210Q390 236 382 256T359
291T327 312T290 320Q245 320 215 292T185 210Q185 157 215 129T290 100Q309 100 327 107T359 129T381 163T390 210Z" />
<glyph unicode="c" glyph-name="c" horiz-adv-x="470" d="M455 70Q410 25 368 5T265 -15Q212 -15 170 2T97 49T51 120T35 210Q35 259 51 300T97 371T169 418T265 435Q325 435 365 417T440 360L375 280Q364 291 353 300T330 316T302 326T265 330Q220 330 193 297T165
210Q165 157 194 124T265 90Q303 90 327 105T375 150L455 70Z" />
<glyph unicode="d" glyph-name="d" horiz-adv-x="555" d="M370 0V40H368Q343 10 307 -2T225 -15Q187 -15 153 0T93 45T51 115T35 210Q35 262 50 304T92 375T153 419T225 435Q270 435 306 423T368 380H370V730H495V0H370ZM370 210Q370 263 340 291T265 320Q246
320 228 313T196 291T174 257T165 210Q165 184 173 164T196 129T228 108T265 100Q310 100 340 128T370 210Z" />
<glyph unicode="e" glyph-name="e" horiz-adv-x="525" d="M165 170Q173 132 200 106T265 80Q303 80 328 90T382 130L476 81Q438 28 389 7T265 -15Q212 -15 170 2T97 49T51 120T35 210Q35 259 51 300T97 371T169 418T265 435Q314 435 355 418T427 371T473 302T490
220V170H165ZM365 250Q361 265 354 279T334 305T305 323T265 330Q220 330 196 305T165 250H365Z" />
<glyph unicode="f" glyph-name="f" horiz-adv-x="335" d="M215 310V0H90V310H20L35 420H90V550Q90 641 138 686T273 731H286Q293 731 300 730V620Q294 621 289 621T278 622Q240 622 228 601T215 550V420H300V310H215Z" />
<glyph unicode="g" glyph-name="g" horiz-adv-x="555" d="M495 20Q495 -100 440 -155T265 -210Q204 -210 151 -194T45 -140L105 -40Q135 -63 173 -79T265 -95Q318 -95 344 -64T370 20V40H368Q343 10 307 -2T225 -15Q187 -15 153 0T93 45T51 115T35 210Q35 262
50 304T92 375T153 419T225 435Q270 435 306 423T368 380H370V420H495V20ZM370 210Q370 263 340 291T265 320Q246 320 228 313T196 291T174 257T165 210Q165 184 173 164T196 129T228 108T265 100Q310 100 340 128T370 210Z" />
<glyph unicode="h" glyph-name="h" horiz-adv-x="530" d="M350 0V230Q350 275 333 297T270 320Q232 320 209 294T185 230V0H60V730H185V380H187Q212 410 247 422T322 435Q396 435 435 394T475 270V0H350Z" />
<glyph unicode="i" glyph-name="i" horiz-adv-x="245" d="M60 500V640H185V500H60ZM60 0V420H185V0H60Z" />
<glyph unicode="j" glyph-name="j" horiz-adv-x="245" d="M60 500V640H185V500H60ZM185 -70Q185 -145 157 -177T75 -210Q45 -210 23 -203T-15 -185V-65Q7 -77 29 -77Q43 -77 51 -70T60 -45V420H185V-70Z" />
<glyph unicode="k" glyph-name="k" horiz-adv-x="470" d="M320 0L187 180H185V0H60V730H185V270H187L300 420H450L290 220L470 0H320Z" />
<glyph unicode="l" glyph-name="l" horiz-adv-x="245" d="M60 0V730H185V0H60Z" />
<glyph unicode="m" glyph-name="m" horiz-adv-x="780" d="M600 0V240Q600 278 584 299T530 320Q492 320 474 297T455 240V0H330V240Q330 278 314 299T260 320Q245 320 232 313T208 295T191 270T185 240V0H60V420H185V380H187Q212 410 245 422T320 435Q361 435
388 418T430 370Q467 407 501 421T580 435Q614 435 640 424T686 393T715 347T725 290V0H600Z" />
<glyph unicode="n" glyph-name="n" horiz-adv-x="530" d="M350 0V230Q350 275 333 297T270 320Q232 320 209 294T185 230V0H60V420H185V380H187Q212 410 247 422T322 435Q396 435 435 394T475 270V0H350Z" />
<glyph unicode="o" glyph-name="o" horiz-adv-x="530" d="M495 210Q495 161 479 120T432 49T360 2T265 -15Q212 -15 170 2T97 49T51 120T35 210Q35 259 51 300T97 371T169 418T265 435Q317 435 359 418T432 371T478 300T495 210ZM370 210Q370 236 362 258T340
296T307 321T265 330Q220 330 190 297T160 211Q160 184 168 162T190 124T223 99T265 90Q287 90 306 99T340 124T362 162T370 210Z" />
<glyph unicode="p" glyph-name="p" horiz-adv-x="555" d="M520 210Q520 157 505 116T463 45T402 1T330 -15Q285 -15 249 -3T187 40H185V-190H60V420H185V380H187Q212 410 248 422T330 435Q367 435 401 420T462 375T504 304T520 210ZM390 210Q390 236 382 256T359
291T327 312T290 320Q245 320 215 292T185 210Q185 157 215 129T290 100Q309 100 327 107T359 129T381 163T390 210Z" />
<glyph unicode="q" glyph-name="q" horiz-adv-x="555" d="M370 -190V40H368Q343 10 307 -2T225 -15Q187 -15 153 0T93 45T51 115T35 210Q35 262 50 304T92 375T153 419T225 435Q270 435 306 423T368 380H370V420H495V-190H370ZM370 210Q370 263 340 291T265 320Q246
320 228 313T196 291T174 257T165 210Q165 184 173 164T196 129T228 108T265 100Q310 100 340 128T370 210Z" />
<glyph unicode="r" glyph-name="r" horiz-adv-x="340" d="M320 320Q313 321 307 321T294 322Q240 322 213 296T185 225V0H60V420H185V370H187Q199 389 211 401T239 421T274 432T320 435V320Z" />
<glyph unicode="s" glyph-name="s" horiz-adv-x="416" d="M376 116Q376 78 362 53T324 12T267 -9T197 -15Q143 -15 104 6T35 53L89 134Q99 124 112 114T139 97T168 85T197 80Q251 80 251 116Q251 134 237 145T200 165T153 185T106 211T70 252T55 315Q55 345 67
367T100 405T148 427T206 435Q260 435 297 424T368 386L314 314Q294 328 268 336T215 345Q198 345 184 340T170 314Q170 300 185 291T223 273T273 252T322 224T360 180T376 116Z" />
<glyph unicode="t" glyph-name="t" horiz-adv-x="350" d="M300 20Q285 5 259 -5T210 -15Q184 -15 162 -8T124 14T99 52T90 110V310H20L35 420H90V560L215 580V420H300V310H215V150Q215 128 225 117T251 105Q275 105 300 130V20Z" />
<glyph unicode="u" glyph-name="u" horiz-adv-x="530" d="M345 0V40H343Q318 10 283 -2T208 -15Q134 -15 95 26T55 150V420H180V190Q180 145 197 123T260 100Q298 100 321 126T345 190V420H470V0H345Z" />
<glyph unicode="v" glyph-name="v" horiz-adv-x="430" d="M280 0H150L0 420H130L214 145H216L300 420H430L280 0Z" />
<glyph unicode="w" glyph-name="w" horiz-adv-x="650" d="M520 0H400L326 255H324L250 0H130L0 420H130L199 160H201L280 420H370L449 160H451L520 420H650L520 0Z" />
<glyph unicode="x" glyph-name="x" horiz-adv-x="450" d="M290 0L225 105L160 0H20L158 214L30 420H160L225 319L290 420H420L292 214L430 0H290Z" />
<glyph unicode="y" glyph-name="y" horiz-adv-x="440" d="M190 -190H60L160 50L0 420H130L219 200H221L310 420H440L190 -190Z" />
<glyph unicode="z" glyph-name="z" horiz-adv-x="450" d="M380 0H20L200 310H40L70 420H410L230 110H410L380 0Z" />
<glyph unicode="{" glyph-name="braceleft" horiz-adv-x="360" d="M330 -125H260Q179 -125 140 -87T100 35V235Q100 265 88 275T60 285H20V395H60Q75 395 87 405T100 445V645Q100 728 139 766T260 805H330L340 695H280Q257 695 244 680T230 635V420Q230 390 222
369T190 340Q213 332 221 311T230 260V45Q230 15 243 0T280 -15H340L330 -125Z" />
<glyph unicode="|" glyph-name="bar" horiz-adv-x="420" d="M160 -100V780H260V-100H160Z" />
<glyph unicode="}" glyph-name="braceright" horiz-adv-x="360" d="M300 285Q285 285 273 275T260 235V35Q260 -48 221 -86T100 -125H30L20 -15H80Q103 -15 116 0T130 45V260Q130 290 138 311T170 340Q147 348 139 369T130 420V635Q130 665 117 680T80 695H20L30
805H100Q181 805 220 767T260 645V445Q260 415 272 405T300 395H340V285H300Z" />
<glyph unicode="~" glyph-name="asciitilde" horiz-adv-x="572" d="M531 400Q532 392 532 384V369Q532 288 498 249T401 210Q360 210 331 222T278 250T234 277T191 290Q181 290 172 288T156 278T145 256T141 220H41Q40 228 40 234V247Q40 330 77 370T171 410Q212
410 241 398T294 370T338 343T381 330Q404 330 417 342T431 400H531Z" />
</font>
</defs>
</svg>
